<?xml version="1.0" encoding="utf-8"?>
<!-- Generator: Adobe Illustrator 15.1.0, SVG Export Plug-In . SVG Version: 6.00 Build 0)  -->
<!DOCTYPE svg PUBLIC "-//W3C//DTD SVG 1.1//EN" "http://www.w3.org/Graphics/SVG/1.1/DTD/svg11.dtd">
<svg version="1.1" id="Vrstva_1" xmlns="http://www.w3.org/2000/svg" xmlns:xlink="http://www.w3.org/1999/xlink" x="0px" y="0px"
	 width="372.5px" height="54px" viewBox="0 0 372.5 54" enable-background="new 0 0 372.5 54" xml:space="preserve">
<g>
	<path fill="#1C4382" d="M41.5068359,38.9101563c-0.5732422,2.7929688-2.0048828,9.8085938-2.6494141,11.8134766H4.921875
		v-2.2910156c6.1572266-0.5009766,6.8017578-0.9306641,6.8017578-7.0166016v-27.921875
		c0-6.0849609-0.5732422-6.5146484-6.2290039-7.015625V4.1875h20.690918v2.2910156
		c-5.5126953,0.5009766-6.1572266,0.859375-6.1572266,7.015625v28.1367188c0,3.5087891,0.2861328,4.8691406,1.7182617,5.5126953
		c1.2885742,0.5732422,3.3647461,0.7158203,5.8706055,0.7158203c3.4365234,0,5.9423828-0.4287109,7.5888672-2.3623047
		c1.3603516-1.4316406,2.6494141-3.7226563,3.8662109-7.2304688L41.5068359,38.9101563z"/>
	<path fill="#1C4382" d="M42.6542969,50.7236328v-2.2910156c5.5126953-0.5009766,6.1572266-0.9306641,6.1572266-7.0166016
		v-27.921875c0-6.0849609-0.6445313-6.5146484-6.1572266-7.015625V4.1875h20.5473633v2.2910156
		c-5.5126953,0.5009766-6.0854492,0.9306641-6.0854492,7.015625v27.921875c0,6.0859375,0.5727539,6.515625,6.0854492,7.0166016
		v2.2910156H42.6542969z"/>
	<path fill="#1C4382" d="M87.7602539,4.1875c9.0209961,0,15.894043,1.7900391,20.4760742,6.1572266
		c3.5083008,3.3642578,6.2285156,8.5195313,6.2285156,15.2490234c0,8.6630859-3.4365234,14.9638672-8.9492188,19.1875
		c-5.2978516,4.0810547-12.671875,5.9423828-21.5498047,5.9423828H66.0673828v-2.2910156
		c5.8706055-0.4296875,6.5151367-0.9306641,6.5151367-7.0166016v-27.921875c0-6.15625-0.6445313-6.5146484-5.8706055-7.015625
		V4.1875H87.7602539z M80.9589844,40.9150391c0,5.2265625,1.5751953,6.8730469,6.5869141,6.8730469
		c11.0253906,0,17.46875-8.5908203,17.46875-20.9052734c0-7.0166016-2.2910156-12.8154297-6.5151367-16.1083984
		C95.4926758,8.125,91.5546875,6.9082031,86.6865234,6.9082031c-2.7919922,0-4.3671875,0.4296875-4.9399414,0.9306641
		c-0.5727539,0.5722656-0.7875977,1.6464844-0.7875977,4.0087891V40.9150391z"/>
	<path fill="#1C4382" d="M165.8730469,26.9541016c0,15.4648438-11.0253906,24.84375-24.3417969,24.84375
		c-13.8178711,0-23.9125977-10.3095703-23.9125977-24.0556641c0-12.5292969,8.8774414-24.5566406,24.7714844-24.5566406
		C155.1337891,3.1855469,165.8730469,12.7783203,165.8730469,26.9541016z M127.2836914,26.0957031
		c0,12.671875,6.0854492,22.8378906,15.6079102,22.8378906c7.230957,0,13.3164063-6.6582031,13.3164063-19.9746094
		c0-14.6054688-6.5151367-22.9101563-15.2495117-22.9101563C133.5126953,6.0488281,127.2836914,13.3515625,127.2836914,26.0957031z"
		/>
	<path fill="#1C4382" d="M210.0498047,6.5498047c-4.7255859,0.5009766-5.8710938,1.2890625-8.734375,8.0185547
		c-2.1484375,5.2265625-9.0927734,22.1943359-14.6054688,36.9423828h-3.0791016
		c-4.8681641-13.1015625-11.2397461-29.7109375-14.6762695-38.2304688c-2.1479492-5.4414063-3.293457-6.3007813-7.6606445-6.7304688
		V4.1875h19.9746094v2.3623047c-5.1547852,0.6445313-5.2260742,1.3603516-4.1523438,4.5107422
		c2.0048828,5.5126953,7.4462891,19.7597656,10.8828125,28.4941406h0.2138672
		c3.7949219-9.8798828,7.7324219-20.1894531,9.8085938-26.7763672c1.5039063-4.6533203,1.3603516-5.5126953-4.5097656-6.2285156
		V4.1875h16.5380859V6.5498047z"/>
	<path fill="#1C4382" d="M241.9833984,50.7236328c-3.9375-4.9404297-9.8798828-12.8154297-15.3925781-20.3330078
		c-1.5751953-2.0761719-2.5058594-2.4335938-3.6513672-2.2910156v13.1738281c0,6.1572266,0.6445313,6.6582031,6.3007813,7.1591797
		v2.2910156h-20.4042969v-2.2910156c5.2978516-0.5009766,5.9414063-1.0019531,5.9414063-7.1591797V13.6376953
		c0-6.2285156-0.6435547-6.6582031-6.15625-7.1591797V4.1875h20.1894531v2.2910156
		c-5.2978516,0.5009766-5.8710938,0.9306641-5.8710938,7.1591797v12.3144531
		c1.5039063-0.4296875,3.1503906-1.5039063,5.2978516-3.5800781c4.5107422-4.4384766,8.0908203-8.5195313,10.7392578-12.0273438
		c1.8613281-2.2910156,1.71875-3.2216797-1.5751953-3.6513672l-1.4316406-0.2148438V4.1875h18.1132813v2.2910156
		c-4.796875,0.5009766-7.3027344,1.2890625-11.4550781,5.1542969c-3.6513672,3.4365234-7.4462891,7.375-11.2402344,11.3125
		c4.8681641,6.8730469,11.0966797,14.6767578,15.6787109,20.1894531c3.2939453,3.8662109,5.0117188,4.8681641,8.0908203,5.2978516
		v2.2910156H241.9833984z"/>
	<path fill="#1C4382" d="M298.2597656,6.4785156c-4.6533203,0.5009766-5.8710938,1.6464844-8.5908203,5.8710938
		c-2.8642578,4.5820313-4.9404297,8.0898438-8.4482422,14.6767578c-1.0029297,1.8613281-1.2177734,2.7197266-1.2177734,4.7246094
		v9.4501953c0,6.3007813,0.5732422,6.7304688,7.0166016,7.2314453v2.2910156h-22.1230469v-2.2910156
		c6.1572266-0.4296875,6.8017578-0.9306641,6.8017578-7.2314453v-8.5195313c0-1.7177734-0.2861328-2.3623047-1.1455078-4.0810547
		c-2.1474609-4.0800781-4.7246094-8.8056641-8.8779297-16.0371094c-2.7197266-4.7958984-3.7939453-5.5839844-7.875-6.0849609V4.1875
		h19.2587891v2.2910156c-4.8681641,0.6445313-4.7255859,1.5029297-3.4365234,4.0087891
		c2.6494141,5.2978516,5.7988281,10.8115234,8.734375,16.109375c2.2197266-4.2958984,5.9423828-11.1689453,7.8037109-15.5361328
		c1.2890625-3.1503906,1.1455078-3.9375-4.2236328-4.5820313V4.1875h16.3232422V6.4785156z"/>
</g>
<g>
	<path fill="#DADADA" d="M296.2617188,46.5712891c0-2.7919922,2.0761719-4.8681641,4.796875-4.8681641
		c2.7919922,0,4.8681641,2.0761719,4.8681641,4.8681641c0,3.0068359-2.0761719,5.0117188-4.9394531,5.0117188
		C298.3378906,51.5830078,296.2617188,49.578125,296.2617188,46.5712891z"/>
	<path fill="#DADADA" d="M337.6435547,43.9941406c-3.2216797,4.4384766-7.9462891,7.5888672-12.2421875,7.5888672
		c-9.5224609,0-15.1064453-7.3740234-15.1064453-15.1064453c0-5.3701172,2.5771484-10.3095703,7.2314453-13.8183594
		c4.2949219-3.2216797,8.8769531-4.2949219,11.5976563-4.2949219h0.0712891c2.6494141,0,5.0117188,0.859375,6.2294922,1.7900391
		c1.0019531,0.7871094,1.2880859,1.5029297,1.2880859,2.5048828c-0.0712891,1.8623047-1.7890625,3.5800781-2.8632813,3.5800781
		c-0.4296875,0-0.859375-0.2148438-1.5039063-0.7871094c-2.6484375-2.3632813-5.0117188-3.4365234-7.2304688-3.4365234
		c-3.5087891,0-7.0166016,3.2216797-7.0166016,10.8105469c0,9.6650391,6.8017578,12.8154297,10.2382813,12.8154297
		c3.0068359,0,5.1542969-0.7880859,8.0185547-3.2939453L337.6435547,43.9941406z"/>
	<path fill="#DADADA" d="M367.6435547,41.2011719c-1.2167969,3.5087891-2.3623047,7.0878906-3.3642578,9.5224609h-24.7714844
		l-0.7167969-1.0742188c5.9423828-9.3066406,11.0976563-18.0410156,16.7539063-27.5634766c-1.71875,0-3.2939453,0-4.7255859,0
		c-4.9404297,0-6.3720703,1.0742188-8.4482422,5.0830078l-1.0742188,2.2197266l-2.0761719-0.859375
		c0.9306641-3.2216797,2.0761719-7.7324219,2.7207031-10.8105469h1.5751953
		c0.5009766,1.1455078,1.5039063,1.5751953,4.2236328,1.5039063h17.1113281l0.5732422,1.0019531
		c-5.5849609,9.3066406-10.7392578,17.9697266-16.3242188,27.6347656h5.4414063
		c5.1552734,0,7.2314453-1.1445313,9.9521484-5.7265625l1.1455078-1.9335938L367.6435547,41.2011719z"/>
</g>
</svg>
