<?xml version="1.0" encoding="utf-8"?>
<!-- Generator: Adobe Illustrator 19.2.0, SVG Export Plug-In . SVG Version: 6.00 Build 0)  -->
<svg version="1.1" id="Layer_1" xmlns="http://www.w3.org/2000/svg" xmlns:xlink="http://www.w3.org/1999/xlink" x="0px" y="0px"
	 viewBox="0 0 497.8 497.8" style="enable-background:new 0 0 497.8 497.8;" xml:space="preserve">
<style type="text/css">
	.st0{fill:url(#SVGID_1_);}
	.st1{fill:url(#SVGID_2_);}
	.st2{fill:url(#SVGID_3_);}
</style>
<g>
	
		<linearGradient id="SVGID_1_" gradientUnits="userSpaceOnUse" x1="88.6003" y1="411.2037" x2="561.6832" y2="-61.8791" gradientTransform="matrix(1 0 0 -1 0 499.804)">
		<stop  offset="0" style="stop-color:#DD272D"/>
		<stop  offset="0.5153" style="stop-color:#CA2429"/>
		<stop  offset="1" style="stop-color:#B22025"/>
	</linearGradient>
	<path class="st0" d="M248.9,0C111.4,0,0,111.4,0,248.9s111.4,248.9,248.9,248.9c137.5,0,248.9-111.4,248.9-248.9
		C497.8,111.4,386.4,0,248.9,0z M191.9,389.3c-49,0-90.4-20-90.4-51.9c0-32.4,37.8-63.6,86.8-63.6c5.3,0,10.3-0.1,15.3-0.1
		c-6.7-6.5-12-14.4-12-24.3c0-5.9,1.8-11.2,4.5-16.2c-2.7,0.2-5.4,0.8-8.2,0.8c-40.3,0-67.3-27.6-67.3-63.1
		c0-34.7,37.3-62.5,76.9-62.5c22.1,0,86.5,0,86.5,0l-14,14h-31.6c18.6,0,28.1,27.1,28.1,49.3c0,18.7-10.3,32.3-24.9,43.7
		c-14.3,11.1-17,15.8-17,25.3c0,8.1,15.3,21.8,23.2,27.5c23.3,16.5,30.9,31.9,30.9,57.4C278.7,357.6,247.8,389.3,191.9,389.3z
		 M396.3,248.8h-42.1v42.1h-28.1v-42.1H284v-28.1h42.1v-42.1h28.1v42.1h42.1V248.8z"/>
	
		<linearGradient id="SVGID_2_" gradientUnits="userSpaceOnUse" x1="20.8926" y1="343.496" x2="493.9753" y2="-129.5867" gradientTransform="matrix(1 0 0 -1 0 499.804)">
		<stop  offset="0" style="stop-color:#DD272D"/>
		<stop  offset="0.5153" style="stop-color:#CA2429"/>
		<stop  offset="1" style="stop-color:#B22025"/>
	</linearGradient>
	<path class="st1" d="M219.6,285.5c-6.7-2.1-14.1-3.4-22-3.5c-33.9-0.4-64.3,20.7-64.3,45.9c0,25.8,24.5,47.2,58.4,47.2
		c47.7,0,64.3-20.1,64.3-45.9c0-3.1-0.4-6.1-1.1-9.1C251.2,305.6,238,298.3,219.6,285.5z"/>
	
		<linearGradient id="SVGID_3_" gradientUnits="userSpaceOnUse" x1="100.3155" y1="422.9189" x2="573.3982" y2="-50.1638" gradientTransform="matrix(1 0 0 -1 0 499.804)">
		<stop  offset="0" style="stop-color:#DD272D"/>
		<stop  offset="0.5153" style="stop-color:#CA2429"/>
		<stop  offset="1" style="stop-color:#B22025"/>
	</linearGradient>
	<path class="st2" d="M234.7,171.1c-3.9-29.9-25.6-53.9-48.3-54.6c-22.7-0.7-38,22.2-34.1,52.1c3.9,29.9,25.6,54.7,48.3,55.3
		C223.4,224.6,238.7,201,234.7,171.1z"/>
</g>
</svg>
