<?xml version="1.0" standalone="no"?>
<!DOCTYPE svg PUBLIC "-//W3C//DTD SVG 1.1//EN" "http://www.w3.org/Graphics/SVG/1.1/DTD/svg11.dtd" >
<svg xmlns="http://www.w3.org/2000/svg" xmlns:xlink="http://www.w3.org/1999/xlink" version="1.1">
<metadata>
Created by FontForge 20170910 at Fri Oct 24 17:03:24 2014
 By Jimmy Wärting
Copyright (c) 2012 by Fontfabric LLC. All rights reserved.
</metadata>
<defs>
<font id="Panton-BoldItalic" horiz-adv-x="552" >
  <font-face 
    font-family="Panton Bold Italic"
    font-weight="700"
    font-style="italic"
    font-stretch="normal"
    units-per-em="1000"
    panose-1="0 0 8 0 0 0 0 0 0 0"
    ascent="740"
    descent="-260"
    x-height="518"
    cap-height="710"
    bbox="-198.95 -258 1145.01 971.224"
    underline-thickness="50"
    underline-position="-100"
    stemh="117"
    stemv="125"
    unicode-range="U+0020-FB02"
  />
<missing-glyph horiz-adv-x="686" 
d="M616 34c0 -25 -8 -34 -34 -34h-473c-26 0 -34 9 -34 34v642c0 25 8 34 34 34h473c26 0 34 -9 34 -34v-642zM200 593v-476h291v476h-291z" />
    <glyph glyph-name="fi" unicode="fi" horiz-adv-x="588" 
d="M578 740c23 0 29 -8 25 -32l-8 -44c-4 -24 -14 -32 -37 -32h-170c-81 0 -119 -32 -131 -103l-2 -11h284c23 0 29 -7 24 -30l-79 -457c-5 -23 -14 -31 -37 -31h-54c-24 0 -30 8 -25 31l67 380h-199l-67 -380c-4 -23 -13 -31 -37 -31h-53c-24 0 -30 8 -26 31l67 380h-60
c-23 0 -30 8 -26 31l8 46c5 23 14 30 37 30h60l2 11c24 140 111 211 266 211h171z" />
    <glyph glyph-name="fl" unicode="fl" horiz-adv-x="578" 
d="M565 740c23 0 29 -8 25 -31l-119 -678c-5 -23 -14 -31 -37 -31h-54c-24 0 -30 8 -25 31l105 601h-72c-80 0 -119 -30 -131 -103l-2 -11h78c23 0 29 -7 25 -30l-8 -46c-4 -23 -12 -31 -36 -31h-78l-67 -380c-4 -23 -13 -31 -37 -31h-53c-24 0 -30 8 -26 31l67 380h-60
c-23 0 -30 8 -26 31l8 46c5 23 14 30 37 30h60l2 12c24 137 111 210 266 210h158z" />
    <glyph glyph-name=".notdef" horiz-adv-x="686" 
d="M616 34c0 -25 -8 -34 -34 -34h-473c-26 0 -34 9 -34 34v642c0 25 8 34 34 34h473c26 0 34 -9 34 -34v-642zM200 593v-476h291v476h-291z" />
    <glyph glyph-name="space" unicode=" " horiz-adv-x="223" 
 />
    <glyph glyph-name="A" unicode="A" horiz-adv-x="656" 
d="M599 33c5 -22 -3 -33 -28 -33h-47c-43 0 -54 6 -57 30l-24 129h-276l-70 -129c-12 -24 -24 -30 -67 -30h-50c-25 0 -30 11 -17 33l365 650c12 23 23 28 46 28h53c23 0 34 -5 38 -27zM387 473c-10 62 -2 121 -2 122h-6c0 -1 -12 -60 -44 -121l-114 -212h205z" />
    <glyph glyph-name="Aacute" unicode="&#xc1;" horiz-adv-x="656" 
d="M469 904c21 11 43 17 56 -2l20 -32c11 -18 11 -26 -10 -34l-187 -73c-21 -7 -32 -10 -39 1l-10 19c-11 16 -10 24 7 32zM599 33c5 -22 -3 -33 -28 -33h-47c-43 0 -54 6 -57 30l-24 129h-276l-70 -129c-12 -24 -24 -30 -67 -30h-50c-25 0 -30 11 -17 33l365 650
c12 23 23 28 46 28h53c23 0 34 -5 38 -27zM387 473c-10 62 -2 121 -2 122h-6c0 -1 -12 -60 -44 -121l-114 -212h205z" />
    <glyph glyph-name="Abreve" unicode="&#x102;" horiz-adv-x="656" 
d="M583 863c-34 -65 -97 -103 -173 -103c-75 0 -126 38 -136 103c-2 15 2 22 18 28l43 15c18 5 25 4 28 -10c5 -34 27 -52 61 -52s63 18 80 52c8 14 15 16 28 11l42 -16c15 -7 17 -13 9 -28zM599 33c5 -22 -3 -33 -28 -33h-47c-43 0 -54 6 -57 30l-24 129h-276l-70 -129
c-12 -24 -24 -30 -67 -30h-50c-25 0 -30 11 -17 33l365 650c12 23 23 28 46 28h53c23 0 34 -5 38 -27zM387 473c-10 62 -2 121 -2 122h-6c0 -1 -12 -60 -44 -121l-114 -212h205z" />
    <glyph glyph-name="Acircumflex" unicode="&#xc2;" horiz-adv-x="656" 
d="M445 909c24 0 30 -1 50 -27l85 -98c9 -13 7 -25 -19 -25h-41c-25 0 -35 2 -47 18l-46 57l-71 -57c-19 -17 -25 -18 -50 -18h-46c-25 0 -25 12 -10 25l119 98c29 25 35 27 64 27h12zM599 33c5 -22 -3 -33 -28 -33h-47c-43 0 -54 6 -57 30l-24 129h-276l-70 -129
c-12 -24 -24 -30 -67 -30h-50c-25 0 -30 11 -17 33l365 650c12 23 23 28 46 28h53c23 0 34 -5 38 -27zM387 473c-10 62 -2 121 -2 122h-6c0 -1 -12 -60 -44 -121l-114 -212h205z" />
    <glyph glyph-name="Adieresis" unicode="&#xc4;" horiz-adv-x="656" 
d="M335 888c40 0 51 -14 44 -52l-2 -10c-7 -39 -22 -52 -62 -52h-7c-40 0 -49 13 -42 52l1 10c7 38 21 52 61 52h7zM535 888c40 0 51 -14 44 -52l-2 -10c-7 -39 -22 -52 -62 -52h-6c-41 0 -51 13 -44 52l2 10c7 38 22 52 62 52h6zM599 33c5 -22 -3 -33 -28 -33h-47
c-43 0 -54 6 -57 30l-24 129h-276l-70 -129c-12 -24 -24 -30 -67 -30h-50c-25 0 -30 11 -17 33l365 650c12 23 23 28 46 28h53c23 0 34 -5 38 -27zM387 473c-10 62 -2 121 -2 122h-6c0 -1 -12 -60 -44 -121l-114 -212h205z" />
    <glyph glyph-name="Agrave" unicode="&#xc0;" horiz-adv-x="656" 
d="M348 900c20 20 38 13 56 2l132 -87c15 -9 13 -17 -3 -33l-17 -18c-11 -11 -22 -9 -39 -2l-162 72c-19 8 -17 17 1 35zM599 33c5 -22 -3 -33 -28 -33h-47c-43 0 -54 6 -57 30l-24 129h-276l-70 -129c-12 -24 -24 -30 -67 -30h-50c-25 0 -30 11 -17 33l365 650
c12 23 23 28 46 28h53c23 0 34 -5 38 -27zM387 473c-10 62 -2 121 -2 122h-6c0 -1 -12 -60 -44 -121l-114 -212h205z" />
    <glyph glyph-name="Amacron" unicode="&#x100;" horiz-adv-x="656" 
d="M545 870c23 0 28 -6 24 -29l-5 -25c-4 -23 -11 -29 -34 -29h-231c-24 0 -29 6 -25 29l5 25c4 23 14 29 34 29h232zM599 33c5 -22 -3 -33 -28 -33h-47c-43 0 -54 6 -57 30l-24 129h-276l-70 -129c-12 -24 -24 -30 -67 -30h-50c-25 0 -30 11 -17 33l365 650
c12 23 23 28 46 28h53c23 0 34 -5 38 -27zM387 473c-10 62 -2 121 -2 122h-6c0 -1 -12 -60 -44 -121l-114 -212h205z" />
    <glyph glyph-name="Aogonek" unicode="&#x104;" horiz-adv-x="656" 
d="M427 711c23 0 34 -5 38 -27l134 -651c3 -13 2 -20 -6 -27c-71 -66 -96 -120 -94 -143c2 -14 8 -23 22 -23c9 0 20 3 29 10c8 5 16 4 18 -5l9 -40c3 -10 1 -16 -5 -21c-29 -24 -67 -29 -102 -29c-43 0 -77 25 -78 71c-2 51 32 111 117 175c-31 1 -39 9 -43 30l-23 128
h-276l-70 -129c-12 -24 -24 -30 -67 -30h-50c-25 0 -30 11 -17 33l365 650c12 23 23 28 46 28h53zM387 473c-10 62 -2 121 -2 122h-6c0 -1 -12 -60 -44 -121l-114 -212h205z" />
    <glyph glyph-name="Aring" unicode="&#xc5;" horiz-adv-x="657" 
d="M282 768c12 74 75 125 152 125c73 0 117 -52 104 -126c-7 -44 -34 -80 -70 -99l131 -635c5 -22 -3 -33 -28 -33h-47c-43 0 -54 6 -57 30l-24 129h-276l-70 -129c-12 -24 -24 -30 -67 -30h-50c-25 0 -30 11 -17 33l356 634c-30 20 -44 56 -37 101zM468 767
c7 35 -12 58 -46 58c-35 0 -64 -22 -70 -58c-6 -33 13 -57 49 -57c33 0 62 24 67 57zM387 473c-10 62 -2 121 -2 122h-6c0 -1 -12 -60 -44 -121l-114 -212h205z" />
    <glyph glyph-name="Aringacute" unicode="&#x1fa;" horiz-adv-x="656" 
d="M484 963c20 8 41 14 54 -1l19 -25c12 -13 10 -19 -9 -25l-173 -53c-19 -6 -29 -7 -35 1l-11 14c-10 12 -2 21 14 28zM292 743c12 64 68 103 134 103c65 0 108 -41 97 -110c-6 -32 -30 -59 -57 -74l133 -629c5 -22 -3 -33 -28 -33h-47c-43 0 -54 6 -57 30l-24 131h-274
l-72 -131c-12 -24 -24 -30 -67 -30h-50c-25 0 -30 11 -17 33l358 629c-23 16 -35 49 -29 81zM456 740c5 29 -12 48 -40 48c-30 0 -55 -19 -59 -48c-5 -27 12 -46 42 -46c28 0 52 19 57 46zM392 454c-12 67 -5 134 -6 140h-8c-3 -6 -19 -72 -54 -139l-102 -192h204z" />
    <glyph glyph-name="Atilde" unicode="&#xc3;" horiz-adv-x="656" 
d="M563 895c15 0 19 -6 16 -19c-14 -81 -45 -111 -104 -111c-63 0 -76 57 -119 57c-15 0 -26 -12 -30 -38c-3 -13 -9 -19 -22 -19h-33c-13 0 -18 6 -15 19c14 83 48 111 102 111c69 0 80 -57 122 -57c15 0 25 12 30 38c2 13 7 19 21 19h32zM599 33c5 -22 -3 -33 -28 -33h-47
c-43 0 -54 6 -57 30l-24 129h-276l-70 -129c-12 -24 -24 -30 -67 -30h-50c-25 0 -30 11 -17 33l365 650c12 23 23 28 46 28h53c23 0 34 -5 38 -27zM387 473c-10 62 -2 121 -2 122h-6c0 -1 -12 -60 -44 -121l-114 -212h205z" />
    <glyph glyph-name="AE" unicode="&#xc6;" horiz-adv-x="858" 
d="M761 117c25 0 33 -9 28 -34l-9 -49c-4 -25 -14 -34 -40 -34h-334c-26 0 -33 9 -28 34l20 115h-210l-93 -119c-16 -21 -25 -30 -68 -30h-57c-25 0 -29 11 -16 33l514 649c16 20 23 28 46 28h340c26 0 33 -9 28 -34l-8 -49c-4 -25 -15 -34 -40 -34h-240l-30 -175h191
c26 0 33 -9 29 -34l-9 -49c-5 -25 -15 -34 -41 -34h-192l-32 -184h251zM461 508l-193 -256h148z" />
    <glyph glyph-name="AEacute" unicode="&#x1fc;" horiz-adv-x="858" 
d="M757 904c22 11 44 17 57 -2l19 -32c12 -18 12 -26 -10 -34l-187 -73c-20 -7 -31 -10 -38 1l-11 19c-10 16 -9 24 7 32zM761 117c25 0 33 -9 28 -34l-9 -49c-4 -25 -14 -34 -40 -34h-334c-26 0 -33 9 -28 34l20 115h-210l-93 -119c-16 -21 -25 -30 -68 -30h-57
c-25 0 -29 11 -16 33l514 649c16 20 23 28 46 28h340c26 0 33 -9 28 -34l-8 -49c-4 -25 -15 -34 -40 -34h-240l-30 -175h191c26 0 33 -9 29 -34l-9 -49c-5 -25 -15 -34 -41 -34h-192l-32 -184h251zM461 508l-193 -256h148z" />
    <glyph glyph-name="B" unicode="B" horiz-adv-x="650" 
d="M454 710c128 0 192 -80 171 -193c-13 -72 -43 -114 -101 -145l-1 -4c61 -24 86 -90 71 -179c-23 -126 -128 -189 -259 -189h-284c-25 0 -32 9 -28 34l113 642c5 25 15 34 40 34h278zM495 505c10 59 -17 88 -76 88h-172l-31 -176h171c60 0 97 28 108 88zM464 209
c11 61 -16 94 -79 94h-189l-33 -186h189c63 0 102 31 112 92z" />
    <glyph glyph-name="C" unicode="C" horiz-adv-x="636" 
d="M79 471c29 161 145 254 329 254c147 0 218 -62 236 -170c4 -24 -1 -35 -27 -43l-50 -17c-26 -9 -35 -4 -40 21c-12 61 -53 92 -137 92c-103 0 -170 -50 -185 -142l-39 -221c-17 -93 32 -143 135 -143c84 0 136 32 169 93c14 25 25 31 48 21l54 -21c22 -8 26 -19 13 -44
c-57 -107 -154 -166 -302 -166c-184 0 -270 106 -242 267z" />
    <glyph glyph-name="Cacute" unicode="&#x106;" horiz-adv-x="636" 
d="M481 904c21 11 44 17 57 -2l19 -32c11 -18 11 -26 -10 -34l-187 -73c-20 -7 -31 -10 -38 1l-11 19c-10 16 -9 24 7 32zM79 471c29 161 145 254 329 254c147 0 218 -62 236 -170c4 -24 -1 -35 -27 -43l-50 -17c-26 -9 -35 -4 -40 21c-12 61 -53 92 -137 92
c-103 0 -170 -50 -185 -142l-39 -221c-17 -93 32 -143 135 -143c84 0 136 32 169 93c14 25 25 31 48 21l54 -21c22 -8 26 -19 13 -44c-57 -107 -154 -166 -302 -166c-184 0 -270 106 -242 267z" />
    <glyph glyph-name="Ccaron" unicode="&#x10c;" horiz-adv-x="636" 
d="M596 907c26 0 24 -12 10 -25l-119 -97c-29 -26 -37 -27 -60 -27h-12c-29 0 -34 1 -54 27l-85 97c-10 13 -6 25 20 25h41c25 0 31 -1 44 -17l50 -57l68 57c16 16 27 17 52 17h45zM79 471c29 161 145 254 329 254c147 0 218 -62 236 -170c4 -24 -1 -35 -27 -43l-50 -17
c-26 -9 -35 -4 -40 21c-12 61 -53 92 -137 92c-103 0 -170 -50 -185 -142l-39 -221c-17 -93 32 -143 135 -143c84 0 136 32 169 93c14 25 25 31 48 21l54 -21c22 -8 26 -19 13 -44c-57 -107 -154 -166 -302 -166c-184 0 -270 106 -242 267z" />
    <glyph glyph-name="Ccedilla" unicode="&#xc7;" horiz-adv-x="636" 
d="M408 725c147 0 218 -62 236 -170c4 -24 -1 -35 -27 -43l-50 -17c-26 -9 -35 -4 -40 21c-12 61 -53 92 -137 92c-103 0 -170 -50 -185 -142l-39 -221c-17 -93 32 -143 135 -143c84 0 136 32 169 93c14 25 25 31 48 21l54 -21c22 -8 26 -19 13 -44
c-50 -94 -130 -151 -252 -163l-30 -53h12c62 0 87 -40 72 -91c-18 -69 -86 -93 -150 -93c-32 0 -56 8 -70 17c-12 6 -15 12 -12 28l5 30c1 9 6 18 17 12c16 -9 27 -17 57 -17c35 0 55 15 59 35s-10 31 -41 31c-8 0 -17 -1 -25 -2c-17 0 -20 7 -10 25l46 76
c-170 7 -249 111 -222 266l38 219c29 161 145 254 329 254z" />
    <glyph glyph-name="Ccircumflex" unicode="&#x108;" horiz-adv-x="636" 
d="M457 909c24 0 30 -1 51 -27l84 -98c10 -13 7 -25 -19 -25h-41c-25 0 -35 2 -46 18l-47 57l-71 -57c-18 -17 -25 -18 -50 -18h-45c-26 0 -26 12 -11 25l119 98c29 25 35 27 64 27h12zM79 471c29 161 145 254 329 254c147 0 218 -62 236 -170c4 -24 -1 -35 -27 -43l-50 -17
c-26 -9 -35 -4 -40 21c-12 61 -53 92 -137 92c-103 0 -170 -50 -185 -142l-39 -221c-17 -93 32 -143 135 -143c84 0 136 32 169 93c14 25 25 31 48 21l54 -21c22 -8 26 -19 13 -44c-57 -107 -154 -166 -302 -166c-184 0 -270 106 -242 267z" />
    <glyph glyph-name="Cdotaccent" unicode="&#x10a;" horiz-adv-x="636" 
d="M447 888c41 0 52 -13 45 -54l-2 -8c-7 -41 -22 -53 -63 -53h-6c-42 0 -51 12 -44 53l1 8c7 41 21 54 63 54h6zM79 471c29 161 145 254 329 254c147 0 218 -62 236 -170c4 -24 -1 -35 -27 -43l-50 -17c-26 -9 -35 -4 -40 21c-12 61 -53 92 -137 92
c-103 0 -170 -50 -185 -142l-39 -221c-17 -93 32 -143 135 -143c84 0 136 32 169 93c14 25 25 31 48 21l54 -21c22 -8 26 -19 13 -44c-57 -107 -154 -166 -302 -166c-184 0 -270 106 -242 267z" />
    <glyph glyph-name="D" unicode="D" horiz-adv-x="666" 
d="M401 710c186 0 271 -111 242 -274l-32 -182c-29 -163 -143 -254 -329 -254h-231c-25 0 -32 9 -28 34l113 642c5 25 15 34 40 34h225zM520 447c17 95 -33 146 -139 146h-134l-84 -476h134c105 0 173 51 191 146z" />
    <glyph glyph-name="Eth" unicode="&#xd0;" horiz-adv-x="682" 
d="M415 710c186 0 271 -112 242 -275l-32 -182c-29 -163 -143 -253 -335 -253h-225c-26 0 -32 9 -28 34l52 292h-59c-16 0 -20 4 -17 22l7 37c3 17 10 22 24 22h59l47 269c5 25 14 34 40 34h225zM533 447c17 95 -24 146 -138 146h-134l-32 -186h133c15 0 18 -5 15 -22
l-6 -37c-3 -18 -8 -22 -24 -22h-133l-37 -209h134c105 0 173 51 190 146z" />
    <glyph glyph-name="Dcaron" unicode="&#x10e;" horiz-adv-x="666" 
d="M571 907c26 0 24 -12 9 -25l-118 -97c-30 -26 -37 -27 -60 -27h-13c-29 0 -34 1 -54 27l-85 97c-9 13 -6 25 20 25h42c25 0 31 -1 44 -17l50 -57l67 57c17 16 28 17 53 17h45zM401 710c186 0 271 -111 242 -274l-32 -182c-29 -163 -143 -254 -329 -254h-231
c-25 0 -32 9 -28 34l113 642c5 25 15 34 40 34h225zM520 447c17 95 -33 146 -139 146h-134l-84 -476h134c105 0 173 51 191 146z" />
    <glyph glyph-name="Dcroat" unicode="&#x110;" horiz-adv-x="682" 
d="M415 710c186 0 271 -112 242 -275l-32 -182c-29 -163 -143 -253 -335 -253h-225c-26 0 -32 9 -28 34l52 292h-59c-16 0 -20 4 -17 22l7 37c3 17 10 22 24 22h59l47 269c5 25 14 34 40 34h225zM533 447c17 95 -24 146 -138 146h-134l-32 -186h133c15 0 18 -5 15 -22
l-6 -37c-3 -18 -8 -22 -24 -22h-133l-37 -209h134c105 0 173 51 190 146z" />
    <glyph glyph-name="E" unicode="E" horiz-adv-x="579" 
d="M574 710c26 0 34 -9 29 -34l-9 -49c-4 -25 -14 -34 -40 -34h-307l-30 -175h259c25 0 32 -9 28 -34l-9 -49c-5 -25 -15 -34 -41 -34h-259l-32 -184h318c25 0 33 -9 28 -34l-9 -49c-4 -25 -14 -34 -40 -34h-409c-25 0 -32 9 -28 34l113 642c5 25 15 34 40 34h398z" />
    <glyph glyph-name="Eacute" unicode="&#xc9;" horiz-adv-x="579" 
d="M444 904c22 11 44 17 57 -2l19 -32c12 -18 12 -26 -10 -34l-186 -73c-21 -7 -32 -10 -39 1l-11 19c-10 16 -9 24 7 32zM574 710c26 0 34 -9 29 -34l-9 -49c-4 -25 -14 -34 -40 -34h-307l-30 -175h259c25 0 32 -9 28 -34l-9 -49c-5 -25 -15 -34 -41 -34h-259l-32 -184h318
c25 0 33 -9 28 -34l-9 -49c-4 -25 -14 -34 -40 -34h-409c-25 0 -32 9 -28 34l113 642c5 25 15 34 40 34h398z" />
    <glyph glyph-name="Ebreve" unicode="&#x114;" horiz-adv-x="579" 
d="M559 863c-34 -65 -98 -103 -174 -103c-75 0 -125 38 -136 103c-2 15 2 22 19 28l43 15c18 5 24 4 28 -10c5 -34 27 -52 61 -52s62 18 79 52c9 14 16 16 29 11l42 -16c14 -7 17 -13 9 -28zM574 710c26 0 34 -9 29 -34l-9 -49c-4 -25 -14 -34 -40 -34h-307l-30 -175h259
c25 0 32 -9 28 -34l-9 -49c-5 -25 -15 -34 -41 -34h-259l-32 -184h318c25 0 33 -9 28 -34l-9 -49c-4 -25 -14 -34 -40 -34h-409c-25 0 -32 9 -28 34l113 642c5 25 15 34 40 34h398z" />
    <glyph glyph-name="Ecaron" unicode="&#x11a;" horiz-adv-x="579" 
d="M560 907c25 0 23 -12 9 -25l-118 -97c-30 -26 -37 -27 -61 -27h-12c-29 0 -34 1 -54 27l-85 97c-9 13 -6 25 20 25h41c25 0 31 -1 44 -17l50 -57l68 57c16 16 28 17 53 17h45zM574 710c26 0 34 -9 29 -34l-9 -49c-4 -25 -14 -34 -40 -34h-307l-30 -175h259
c25 0 32 -9 28 -34l-9 -49c-5 -25 -15 -34 -41 -34h-259l-32 -184h318c25 0 33 -9 28 -34l-9 -49c-4 -25 -14 -34 -40 -34h-409c-25 0 -32 9 -28 34l113 642c5 25 15 34 40 34h398z" />
    <glyph glyph-name="Ecircumflex" unicode="&#xca;" horiz-adv-x="579" 
d="M421 909c23 0 30 -1 50 -27l85 -98c9 -13 6 -25 -19 -25h-42c-25 0 -35 2 -46 18l-47 57l-71 -57c-18 -17 -25 -18 -50 -18h-45c-26 0 -25 12 -10 25l118 98c29 25 35 27 64 27h13zM574 710c26 0 34 -9 29 -34l-9 -49c-4 -25 -14 -34 -40 -34h-307l-30 -175h259
c25 0 32 -9 28 -34l-9 -49c-5 -25 -15 -34 -41 -34h-259l-32 -184h318c25 0 33 -9 28 -34l-9 -49c-4 -25 -14 -34 -40 -34h-409c-25 0 -32 9 -28 34l113 642c5 25 15 34 40 34h398z" />
    <glyph glyph-name="Edieresis" unicode="&#xcb;" horiz-adv-x="579" 
d="M310 888c40 0 51 -14 44 -52l-1 -10c-7 -39 -23 -52 -63 -52h-7c-39 0 -49 13 -42 52l2 10c7 38 21 52 61 52h6zM511 888c40 0 50 -14 43 -52l-2 -10c-7 -39 -22 -52 -61 -52h-7c-40 0 -50 13 -43 52l1 10c7 38 22 52 62 52h7zM574 710c26 0 34 -9 29 -34l-9 -49
c-4 -25 -14 -34 -40 -34h-307l-30 -175h259c25 0 32 -9 28 -34l-9 -49c-5 -25 -15 -34 -41 -34h-259l-32 -184h318c25 0 33 -9 28 -34l-9 -49c-4 -25 -14 -34 -40 -34h-409c-25 0 -32 9 -28 34l113 642c5 25 15 34 40 34h398z" />
    <glyph glyph-name="Edotaccent" unicode="&#x116;" horiz-adv-x="579" 
d="M410 888c42 0 52 -13 45 -54l-2 -8c-7 -41 -22 -53 -63 -53h-6c-41 0 -51 12 -44 53l2 8c7 41 21 54 62 54h6zM574 710c26 0 34 -9 29 -34l-9 -49c-4 -25 -14 -34 -40 -34h-307l-30 -175h259c25 0 32 -9 28 -34l-9 -49c-5 -25 -15 -34 -41 -34h-259l-32 -184h318
c25 0 33 -9 28 -34l-9 -49c-4 -25 -14 -34 -40 -34h-409c-25 0 -32 9 -28 34l113 642c5 25 15 34 40 34h398z" />
    <glyph glyph-name="Egrave" unicode="&#xc8;" horiz-adv-x="579" 
d="M323 900c20 20 39 13 57 2l132 -87c14 -9 12 -17 -4 -33l-17 -18c-10 -11 -21 -9 -39 -2l-162 72c-18 8 -16 17 2 35zM574 710c26 0 34 -9 29 -34l-9 -49c-4 -25 -14 -34 -40 -34h-307l-30 -175h259c25 0 32 -9 28 -34l-9 -49c-5 -25 -15 -34 -41 -34h-259l-32 -184h318
c25 0 33 -9 28 -34l-9 -49c-4 -25 -14 -34 -40 -34h-409c-25 0 -32 9 -28 34l113 642c5 25 15 34 40 34h398z" />
    <glyph glyph-name="Emacron" unicode="&#x112;" horiz-adv-x="579" 
d="M520 870c23 0 28 -6 24 -29l-4 -25c-4 -23 -11 -29 -34 -29h-232c-23 0 -28 6 -24 29l4 25c5 23 14 29 35 29h231zM574 710c26 0 34 -9 29 -34l-9 -49c-4 -25 -14 -34 -40 -34h-307l-30 -175h259c25 0 32 -9 28 -34l-9 -49c-5 -25 -15 -34 -41 -34h-259l-32 -184h318
c25 0 33 -9 28 -34l-9 -49c-4 -25 -14 -34 -40 -34h-409c-25 0 -32 9 -28 34l113 642c5 25 15 34 40 34h398z" />
    <glyph glyph-name="Eogonek" unicode="&#x118;" horiz-adv-x="579" 
d="M574 710c26 0 34 -9 29 -34l-9 -49c-4 -25 -14 -34 -40 -34h-307l-30 -175h259c25 0 32 -9 28 -34l-9 -49c-5 -25 -15 -34 -41 -34h-259l-32 -184h318c25 0 33 -9 28 -34l-9 -49c-2 -14 -7 -20 -13 -27c-82 -79 -99 -120 -97 -144c2 -14 8 -23 22 -23c9 0 20 3 28 10
c9 5 17 4 19 -5l9 -40c3 -10 1 -16 -5 -21c-29 -24 -67 -29 -102 -29c-43 0 -77 25 -79 71c-2 52 35 110 123 174h-354c-25 0 -32 9 -28 34l113 642c5 25 15 34 40 34h398z" />
    <glyph glyph-name="F" unicode="F" horiz-adv-x="567" 
d="M574 710c26 0 34 -9 29 -34l-9 -49c-4 -25 -14 -34 -40 -34h-307l-32 -184h258c25 0 32 -9 28 -34l-9 -49c-4 -26 -14 -34 -40 -34h-258l-45 -258c-5 -25 -15 -34 -40 -34h-58c-25 0 -32 9 -28 34l113 642c5 25 15 34 40 34h398z" />
    <glyph glyph-name="G" unicode="G" horiz-adv-x="660" 
d="M602 389c25 0 32 -8 28 -34l-25 -143c-25 -140 -141 -227 -325 -227s-267 109 -239 270l38 219c29 163 146 251 330 251c147 0 218 -68 236 -169c5 -24 0 -35 -26 -43l-53 -18c-26 -9 -35 -4 -40 21c-12 61 -53 92 -137 92c-103 0 -169 -50 -185 -142l-39 -221
c-17 -93 32 -143 135 -143s170 50 183 118l9 52h-151c-25 0 -32 9 -28 35l9 48c5 26 14 34 40 34h240z" />
    <glyph glyph-name="Gbreve" unicode="&#x11e;" horiz-adv-x="660" 
d="M592 873c-34 -65 -98 -103 -174 -103c-75 0 -125 38 -136 103c-2 15 2 22 18 28l43 15c18 5 25 4 29 -10c5 -34 27 -52 61 -52c33 0 62 18 79 52c8 14 15 16 28 11l42 -16c15 -7 18 -13 10 -28zM602 389c25 0 32 -8 28 -34l-25 -143c-25 -140 -141 -227 -325 -227
s-267 109 -239 270l38 219c29 163 146 251 330 251c147 0 218 -68 236 -169c5 -24 0 -35 -26 -43l-53 -18c-26 -9 -35 -4 -40 21c-12 61 -53 92 -137 92c-103 0 -169 -50 -185 -142l-39 -221c-17 -93 32 -143 135 -143s170 50 183 118l9 52h-151c-25 0 -32 9 -28 35l9 48
c5 26 14 34 40 34h240z" />
    <glyph glyph-name="Gcircumflex" unicode="&#x11c;" horiz-adv-x="660" 
d="M453 919c24 0 30 -1 51 -27l84 -98c10 -13 7 -25 -19 -25h-41c-25 0 -35 2 -46 18l-47 57l-71 -57c-18 -17 -25 -18 -50 -18h-45c-26 0 -25 12 -11 25l119 98c29 25 35 27 64 27h12zM602 389c25 0 32 -8 28 -34l-25 -143c-25 -140 -141 -227 -325 -227s-267 109 -239 270
l38 219c29 163 146 251 330 251c147 0 218 -68 236 -169c5 -24 0 -35 -26 -43l-53 -18c-26 -9 -35 -4 -40 21c-12 61 -53 92 -137 92c-103 0 -169 -50 -185 -142l-39 -221c-17 -93 32 -143 135 -143s170 50 183 118l9 52h-151c-25 0 -32 9 -28 35l9 48c5 26 14 34 40 34h240
z" />
    <glyph glyph-name="Gcommaaccent" unicode="&#x122;" horiz-adv-x="660" 
d="M602 389c25 0 32 -8 28 -34l-25 -143c-25 -140 -141 -227 -325 -227s-267 109 -239 270l38 219c29 163 146 251 330 251c147 0 218 -68 236 -169c5 -24 0 -35 -26 -43l-53 -18c-26 -9 -35 -4 -40 21c-12 61 -53 92 -137 92c-103 0 -169 -50 -185 -142l-39 -221
c-17 -93 32 -143 135 -143s170 50 183 118l9 52h-151c-25 0 -32 9 -28 35l9 48c5 26 14 34 40 34h240zM270 -228c-10 -21 -19 -29 -40 -29h-38c-18 0 -21 5 -15 22l45 142c7 26 17 32 42 32h53c29 0 35 -11 24 -32z" />
    <glyph glyph-name="Gdotaccent" unicode="&#x120;" horiz-adv-x="660" 
d="M443 898c41 0 52 -13 45 -54l-2 -8c-7 -41 -22 -53 -63 -53h-6c-42 0 -51 12 -44 53l2 8c7 41 20 54 62 54h6zM602 389c25 0 32 -8 28 -34l-25 -143c-25 -140 -141 -227 -325 -227s-267 109 -239 270l38 219c29 163 146 251 330 251c147 0 218 -68 236 -169
c5 -24 0 -35 -26 -43l-53 -18c-26 -9 -35 -4 -40 21c-12 61 -53 92 -137 92c-103 0 -169 -50 -185 -142l-39 -221c-17 -93 32 -143 135 -143s170 50 183 118l9 52h-151c-25 0 -32 9 -28 35l9 48c5 26 14 34 40 34h240z" />
    <glyph glyph-name="H" unicode="H" horiz-adv-x="688" 
d="M655 710c26 0 34 -9 29 -34l-114 -642c-4 -25 -14 -34 -40 -34h-57c-25 0 -32 9 -28 34l47 267h-297l-46 -267c-5 -25 -15 -34 -40 -34h-58c-25 0 -32 9 -28 34l113 642c5 25 15 34 40 34h58c25 0 33 -9 28 -34l-45 -258h296l45 258c5 25 15 34 40 34h57z" />
    <glyph glyph-name="Hbar" unicode="&#x126;" horiz-adv-x="698" 
d="M724 608c15 0 19 -5 15 -21l-5 -29c-2 -18 -8 -22 -23 -22h-47l-89 -502c-4 -25 -14 -34 -40 -34h-57c-26 0 -33 9 -28 34l47 267h-297l-47 -267c-4 -25 -14 -34 -40 -34h-57c-26 0 -32 9 -28 34l89 502h-46c-16 0 -19 4 -17 22l6 29c3 16 10 21 24 21h46l11 68
c5 25 14 34 40 34h57c26 0 34 -9 28 -34l-11 -68h296l12 68c5 25 14 34 40 34h57c26 0 33 -9 28 -34l-11 -68h47zM242 536l-20 -118h296l21 118h-297z" />
    <glyph glyph-name="Hcircumflex" unicode="&#x124;" horiz-adv-x="688" 
d="M461 909c23 0 30 -1 50 -27l85 -98c9 -13 6 -25 -19 -25h-42c-25 0 -35 2 -46 18l-47 57l-71 -57c-18 -17 -25 -18 -50 -18h-45c-26 0 -25 12 -10 25l118 98c29 25 35 27 64 27h13zM655 710c26 0 34 -9 29 -34l-114 -642c-4 -25 -14 -34 -40 -34h-57c-25 0 -32 9 -28 34
l47 267h-297l-46 -267c-5 -25 -15 -34 -40 -34h-58c-25 0 -32 9 -28 34l113 642c5 25 15 34 40 34h58c25 0 33 -9 28 -34l-45 -258h296l45 258c5 25 15 34 40 34h57z" />
    <glyph glyph-name="I" unicode="I" horiz-adv-x="266" 
d="M136 676c5 25 15 34 40 34h58c25 0 33 -9 28 -34l-113 -642c-5 -25 -15 -34 -40 -34h-58c-25 0 -32 9 -28 34z" />
    <glyph glyph-name="IJ" unicode="&#x132;" horiz-adv-x="845" 
d="M136 676c5 25 15 34 40 34h58c25 0 33 -9 28 -34l-113 -642c-5 -25 -15 -34 -40 -34h-58c-25 0 -32 9 -28 34zM819 710c25 0 32 -9 27 -33l-80 -457c-28 -155 -121 -235 -288 -235c-132 0 -203 61 -218 167c-5 24 1 35 26 44l54 18c25 8 34 3 39 -22
c10 -60 43 -90 112 -90c86 0 136 45 152 131l78 444c5 24 13 33 39 33h59z" />
    <glyph glyph-name="Iacute" unicode="&#xcd;" horiz-adv-x="266" 
d="M274 904c21 11 43 17 56 -2l20 -32c11 -18 11 -26 -10 -34l-187 -73c-21 -7 -32 -10 -39 1l-10 19c-11 16 -10 24 7 32zM136 676c5 25 15 34 40 34h58c25 0 33 -9 28 -34l-113 -642c-5 -25 -15 -34 -40 -34h-58c-25 0 -32 9 -28 34z" />
    <glyph glyph-name="Ibreve" unicode="&#x12c;" horiz-adv-x="266" 
d="M388 863c-34 -65 -97 -103 -173 -103s-126 38 -136 103c-3 15 2 22 18 28l43 15c18 5 25 4 28 -10c5 -34 27 -52 61 -52s62 18 79 52c9 14 16 16 29 11l42 -16c15 -7 17 -13 9 -28zM136 676c5 25 15 34 40 34h58c25 0 33 -9 28 -34l-113 -642c-5 -25 -15 -34 -40 -34h-58
c-25 0 -32 9 -28 34z" />
    <glyph glyph-name="Icircumflex" unicode="&#xce;" horiz-adv-x="266" 
d="M250 909c23 0 30 -1 50 -27l85 -98c9 -13 7 -25 -19 -25h-41c-25 0 -35 2 -47 18l-47 57l-70 -57c-19 -17 -25 -18 -50 -18h-46c-26 0 -25 12 -10 25l118 98c30 25 36 27 65 27h12zM136 676c5 25 15 34 40 34h58c25 0 33 -9 28 -34l-113 -642c-5 -25 -15 -34 -40 -34h-58
c-25 0 -32 9 -28 34z" />
    <glyph glyph-name="Idieresis" unicode="&#xcf;" horiz-adv-x="266" 
d="M140 888c40 0 51 -14 44 -52l-2 -10c-7 -39 -22 -52 -62 -52h-7c-40 0 -50 13 -43 52l2 10c7 38 21 52 61 52h7zM340 888c40 0 51 -14 44 -52l-2 -10c-7 -39 -22 -52 -62 -52h-7c-40 0 -50 13 -43 52l2 10c7 38 21 52 62 52h6zM136 676c5 25 15 34 40 34h58
c25 0 33 -9 28 -34l-113 -642c-5 -25 -15 -34 -40 -34h-58c-25 0 -32 9 -28 34z" />
    <glyph glyph-name="Idotaccent" unicode="&#x130;" horiz-adv-x="266" 
d="M239 888c42 0 52 -13 45 -54l-1 -8c-7 -41 -22 -53 -64 -53h-5c-42 0 -52 12 -45 53l2 8c7 41 21 54 63 54h5zM136 676c5 25 15 34 40 34h58c25 0 33 -9 28 -34l-113 -642c-5 -25 -15 -34 -40 -34h-58c-25 0 -32 9 -28 34z" />
    <glyph glyph-name="Igrave" unicode="&#xcc;" horiz-adv-x="266" 
d="M153 900c19 20 38 13 56 2l132 -87c15 -9 12 -17 -3 -33l-17 -18c-11 -11 -22 -9 -39 -2l-162 72c-19 8 -17 17 1 35zM136 676c5 25 15 34 40 34h58c25 0 33 -9 28 -34l-113 -642c-5 -25 -15 -34 -40 -34h-58c-25 0 -32 9 -28 34z" />
    <glyph glyph-name="Imacron" unicode="&#x12a;" horiz-adv-x="266" 
d="M350 870c23 0 28 -6 24 -29l-5 -25c-4 -23 -11 -29 -34 -29h-232c-23 0 -28 6 -24 29l5 25c4 23 13 29 34 29h232zM136 676c5 25 15 34 40 34h58c25 0 33 -9 28 -34l-113 -642c-5 -25 -15 -34 -40 -34h-58c-25 0 -32 9 -28 34z" />
    <glyph glyph-name="Iogonek" unicode="&#x12e;" horiz-adv-x="266" 
d="M132 -188c3 -10 1 -16 -5 -21c-29 -24 -66 -36 -101 -36c-43 0 -78 14 -79 60c-2 51 31 119 103 186c-31 0 -31 11 -27 34l114 641c5 25 14 34 40 34h57c25 0 33 -9 28 -34l-113 -642c-3 -13 -6 -22 -14 -30c-62 -63 -82 -120 -80 -143c2 -14 9 -21 21 -21
c10 0 21 3 30 10c8 5 16 3 18 -6z" />
    <glyph glyph-name="Itilde" unicode="&#x128;" horiz-adv-x="266" 
d="M368 895c15 0 18 -6 16 -19c-14 -81 -46 -111 -104 -111c-64 0 -77 57 -119 57c-15 0 -26 -12 -30 -38c-3 -13 -9 -19 -22 -19h-33c-14 0 -18 6 -15 19c14 83 48 111 102 111c69 0 80 -57 122 -57c15 0 25 12 30 38c2 13 7 19 21 19h32zM136 676c5 25 15 34 40 34h58
c25 0 33 -9 28 -34l-113 -642c-5 -25 -15 -34 -40 -34h-58c-25 0 -32 9 -28 34z" />
    <glyph glyph-name="J" unicode="J" horiz-adv-x="575" 
d="M547 710c25 0 32 -9 27 -33l-80 -457c-27 -155 -121 -235 -288 -235c-131 0 -202 61 -218 167c-5 24 1 35 27 44l53 18c25 8 34 3 40 -22c9 -60 42 -90 111 -90c86 0 137 45 152 131l78 444c5 24 14 33 39 33h59z" />
    <glyph glyph-name="Jcircumflex" unicode="&#x134;" horiz-adv-x="575" 
d="M563 909c24 0 31 -1 51 -27l84 -98c10 -13 7 -25 -19 -25h-41c-25 0 -35 2 -46 18l-47 57l-71 -57c-18 -17 -25 -18 -50 -18h-45c-26 0 -25 12 -11 25l119 98c29 25 35 27 64 27h12zM548 710c25 0 32 -9 27 -33l-80 -457c-28 -155 -121 -235 -288 -235
c-132 0 -203 61 -218 167c-5 24 1 35 26 44l54 18c25 8 34 3 39 -22c10 -60 43 -90 112 -90c86 0 136 45 152 131l78 444c5 24 13 33 39 33h59z" />
    <glyph glyph-name="K" unicode="K" horiz-adv-x="627" 
d="M563 34c6 -19 1 -34 -24 -34h-57c-43 0 -54 5 -62 30l-65 203c-18 54 -38 70 -107 70h-52l-47 -269c-5 -25 -15 -34 -40 -34h-58c-25 0 -32 9 -28 34l113 642c5 25 15 34 40 34h58c25 0 33 -9 28 -34l-46 -259h40h14l247 265c22 24 33 28 73 28h64c23 0 26 -16 11 -33
l-278 -288c49 -21 73 -56 92 -111z" />
    <glyph glyph-name="Kcommaaccent" unicode="&#x136;" horiz-adv-x="627" 
d="M563 34c6 -19 1 -34 -24 -34h-57c-43 0 -54 5 -62 30l-65 203c-18 54 -38 70 -107 70h-52l-47 -269c-5 -25 -15 -34 -40 -34h-58c-25 0 -32 9 -28 34l113 642c5 25 15 34 40 34h58c25 0 33 -9 28 -34l-46 -259h40h14l247 265c22 24 33 28 73 28h64c23 0 26 -16 11 -33
l-278 -288c49 -21 73 -56 92 -111zM249 -228c-11 -21 -20 -29 -41 -29h-37c-18 0 -21 5 -16 22l46 142c7 26 17 32 42 32h52c30 0 36 -11 24 -32z" />
    <glyph glyph-name="L" unicode="L" horiz-adv-x="525" 
d="M234 710c25 0 33 -9 28 -34l-99 -559h287c26 0 33 -9 28 -34l-8 -49c-5 -25 -15 -34 -40 -34h-379c-25 0 -32 9 -28 34l113 642c5 25 15 34 40 34h58z" />
    <glyph glyph-name="Lacute" unicode="&#x139;" horiz-adv-x="525" 
d="M274 904c21 11 43 17 56 -2l20 -32c11 -18 11 -26 -10 -34l-187 -73c-21 -7 -32 -10 -39 1l-10 19c-10 16 -9 24 7 32zM234 710c25 0 33 -9 28 -34l-99 -559h287c26 0 33 -9 28 -34l-8 -49c-5 -25 -15 -34 -40 -34h-379c-25 0 -32 9 -28 34l113 642c5 25 15 34 40 34h58z
" />
    <glyph glyph-name="Lcaron" unicode="&#x13d;" horiz-adv-x="526" 
d="M234 710c25 0 33 -9 28 -34l-99 -559h287c26 0 33 -9 28 -34l-8 -49c-5 -25 -15 -34 -40 -34h-379c-25 0 -32 9 -28 34l113 642c5 25 15 34 40 34h58zM433 509c-11 -20 -18 -28 -39 -28h-28c-17 0 -21 4 -15 21l55 176c6 25 16 32 41 32h47c28 0 34 -10 23 -32z" />
    <glyph glyph-name="Lcommaaccent" unicode="&#x13b;" horiz-adv-x="525" 
d="M234 710c25 0 33 -9 28 -34l-99 -559h287c26 0 33 -9 28 -34l-8 -49c-5 -25 -15 -34 -40 -34h-379c-25 0 -32 9 -28 34l113 642c5 25 15 34 40 34h58zM210 -228c-10 -21 -20 -29 -40 -29h-38c-18 0 -21 5 -15 22l45 142c7 26 17 32 42 32h53c29 0 35 -11 24 -32z" />
    <glyph glyph-name="Ldot" unicode="&#x13f;" horiz-adv-x="526" 
d="M234 710c25 0 33 -9 28 -34l-99 -559h287c26 0 33 -9 28 -34l-8 -49c-5 -25 -15 -34 -40 -34h-379c-25 0 -32 9 -28 34l113 642c5 25 15 34 40 34h58zM382 451c48 0 60 -16 53 -64l-2 -9c-9 -49 -27 -64 -76 -64h-7c-48 0 -61 15 -53 64l2 9c8 48 27 64 76 64h7z" />
    <glyph glyph-name="Lslash" unicode="&#x141;" horiz-adv-x="550" 
d="M476 117c25 0 33 -9 28 -34l-9 -49c-4 -25 -14 -34 -40 -34h-378c-26 0 -33 9 -28 34l40 225l-59 -25c-20 -9 -26 -4 -31 11l-12 36c-4 13 2 24 15 29l103 44l57 322c5 25 14 34 40 34h57c26 0 33 -9 28 -34l-46 -265l161 69c19 7 27 1 32 -12l12 -36
c3 -13 -2 -24 -17 -29l-205 -87l-35 -199h287z" />
    <glyph glyph-name="M" unicode="M" horiz-adv-x="813" 
d="M780 710c26 0 33 -9 28 -34l-113 -642c-4 -25 -14 -34 -40 -34h-51c-26 0 -33 9 -28 34l54 305c10 57 29 122 59 199h-7c-39 -75 -72 -125 -115 -183l-128 -173c-14 -18 -23 -24 -44 -24h-26c-20 0 -27 4 -34 24l-69 174c-24 58 -35 102 -46 182h-7
c2 -78 -2 -137 -13 -200l-54 -304c-4 -25 -14 -34 -40 -34h-55c-25 0 -32 9 -28 34l113 642c5 25 15 34 40 34h43c28 0 36 -5 44 -26l142 -372l274 371c15 22 23 27 50 27h51z" />
    <glyph glyph-name="N" unicode="N" horiz-adv-x="698" 
d="M665 710c25 0 33 -9 28 -34l-113 -642c-4 -25 -15 -34 -40 -34h-57c-17 0 -24 4 -30 17l-180 362c-34 70 -48 162 -51 168h-6c-2 -8 3 -104 -14 -199l-55 -314c-4 -25 -15 -34 -40 -34h-56c-25 0 -32 9 -28 34l113 642c5 25 15 34 40 34h53c18 0 27 -6 33 -16l179 -360
c38 -76 51 -162 54 -170h6c2 10 -4 101 13 202l55 310c5 25 15 34 40 34h56z" />
    <glyph glyph-name="Nacute" unicode="&#x143;" horiz-adv-x="698" 
d="M490 904c21 11 43 17 56 -2l20 -32c11 -18 11 -26 -10 -34l-187 -73c-21 -7 -32 -10 -39 1l-10 19c-11 16 -10 24 7 32zM665 710c25 0 33 -9 28 -34l-113 -642c-4 -25 -15 -34 -40 -34h-57c-17 0 -24 4 -30 17l-180 362c-34 70 -48 162 -51 168h-6c-2 -8 3 -104 -14 -199
l-55 -314c-4 -25 -15 -34 -40 -34h-56c-25 0 -32 9 -28 34l113 642c5 25 15 34 40 34h53c18 0 27 -6 33 -16l179 -360c38 -76 51 -162 54 -170h6c2 10 -4 101 13 202l55 310c5 25 15 34 40 34h56z" />
    <glyph glyph-name="Ncaron" unicode="&#x147;" horiz-adv-x="698" 
d="M605 907c26 0 24 -12 9 -25l-118 -97c-29 -26 -37 -27 -60 -27h-12c-30 0 -35 1 -55 27l-84 97c-10 13 -7 25 19 25h42c25 0 31 -1 44 -17l50 -57l68 57c16 16 27 17 52 17h45zM665 710c25 0 33 -9 28 -34l-113 -642c-4 -25 -15 -34 -40 -34h-57c-17 0 -24 4 -30 17
l-180 362c-34 70 -48 162 -51 168h-6c-2 -8 3 -104 -14 -199l-55 -314c-4 -25 -15 -34 -40 -34h-56c-25 0 -32 9 -28 34l113 642c5 25 15 34 40 34h53c18 0 27 -6 33 -16l179 -360c38 -76 51 -162 54 -170h6c2 10 -4 101 13 202l55 310c5 25 15 34 40 34h56z" />
    <glyph glyph-name="Ncommaaccent" unicode="&#x145;" horiz-adv-x="698" 
d="M665 710c25 0 33 -9 28 -34l-113 -642c-4 -25 -15 -34 -40 -34h-57c-17 0 -24 4 -30 17l-180 362c-34 70 -48 162 -51 168h-6c-2 -8 3 -104 -14 -199l-55 -314c-4 -25 -15 -34 -40 -34h-56c-25 0 -32 9 -28 34l113 642c5 25 15 34 40 34h53c18 0 27 -6 33 -16l179 -360
c38 -76 51 -162 54 -170h6c2 10 -4 101 13 202l55 310c5 25 15 34 40 34h56zM279 -228c-10 -21 -19 -29 -40 -29h-37c-19 0 -21 5 -16 22l45 142c7 26 18 32 42 32h53c29 0 35 -11 24 -32z" />
    <glyph glyph-name="Eng" unicode="&#x14a;" horiz-adv-x="698" 
d="M665 710c26 0 33 -9 28 -34l-120 -684c-25 -139 -116 -222 -273 -222c-24 0 -30 8 -26 32l8 44c4 24 13 32 37 32c83 0 121 45 134 117l2 16l-181 368c-35 70 -49 162 -52 168h-6c-1 -7 4 -101 -13 -195l-56 -318c-4 -25 -15 -34 -40 -34h-56c-25 0 -32 9 -28 34l113 642
c5 25 15 34 40 34h55c18 0 25 -6 31 -16l179 -360c38 -76 51 -163 55 -170h6c1 9 -5 101 13 202l55 310c5 25 14 34 40 34h55z" />
    <glyph glyph-name="Ntilde" unicode="&#xd1;" horiz-adv-x="698" 
d="M584 895c15 0 19 -6 16 -19c-14 -81 -46 -111 -104 -111c-64 0 -77 57 -119 57c-15 0 -26 -12 -30 -38c-3 -13 -9 -19 -22 -19h-33c-13 0 -18 6 -15 19c14 83 48 111 102 111c69 0 80 -57 122 -57c15 0 25 12 30 38c2 13 7 19 21 19h32zM665 710c25 0 33 -9 28 -34
l-113 -642c-4 -25 -15 -34 -40 -34h-57c-17 0 -24 4 -30 17l-180 362c-34 70 -48 162 -51 168h-6c-2 -8 3 -104 -14 -199l-55 -314c-4 -25 -15 -34 -40 -34h-56c-25 0 -32 9 -28 34l113 642c5 25 15 34 40 34h53c18 0 27 -6 33 -16l179 -360c38 -76 51 -162 54 -170h6
c2 10 -4 101 13 202l55 310c5 25 15 34 40 34h56z" />
    <glyph glyph-name="O" unicode="O" horiz-adv-x="670" 
d="M80 472c28 160 143 253 327 253s269 -109 241 -270l-38 -219c-28 -161 -143 -251 -326 -251c-184 0 -270 107 -243 268zM526 465c15 93 -33 143 -136 143c-102 0 -169 -50 -185 -143l-39 -220c-17 -93 33 -143 135 -143c103 0 169 50 185 143z" />
    <glyph glyph-name="Oacute" unicode="&#xd3;" horiz-adv-x="670" 
d="M478 914c22 11 44 17 57 -2l20 -32c11 -18 11 -26 -11 -34l-186 -73c-21 -7 -32 -10 -39 1l-11 19c-10 16 -9 24 7 32zM80 472c28 160 143 253 327 253s269 -109 241 -270l-38 -219c-28 -161 -143 -251 -326 -251c-184 0 -270 107 -243 268zM526 465
c15 93 -33 143 -136 143c-102 0 -169 -50 -185 -143l-39 -220c-17 -93 33 -143 135 -143c103 0 169 50 185 143z" />
    <glyph glyph-name="Obreve" unicode="&#x14e;" horiz-adv-x="670" 
d="M593 873c-34 -65 -97 -103 -173 -103s-126 38 -136 103c-3 15 1 22 18 28l43 15c18 5 25 4 28 -10c5 -34 27 -52 61 -52s62 18 79 52c9 14 16 16 29 11l42 -16c14 -7 17 -13 9 -28zM80 472c28 160 143 253 327 253s269 -109 241 -270l-38 -219
c-28 -161 -143 -251 -326 -251c-184 0 -270 107 -243 268zM526 465c15 93 -33 143 -136 143c-102 0 -169 -50 -185 -143l-39 -220c-17 -93 33 -143 135 -143c103 0 169 50 185 143z" />
    <glyph glyph-name="Ocircumflex" unicode="&#xd4;" horiz-adv-x="670" 
d="M455 919c23 0 30 -1 50 -27l85 -98c9 -13 7 -25 -19 -25h-41c-26 0 -36 2 -47 18l-47 57l-71 -57c-18 -17 -25 -18 -50 -18h-45c-26 0 -25 12 -10 25l118 98c30 25 35 27 65 27h12zM80 472c28 160 143 253 327 253s269 -109 241 -270l-38 -219
c-28 -161 -143 -251 -326 -251c-184 0 -270 107 -243 268zM526 465c15 93 -33 143 -136 143c-102 0 -169 -50 -185 -143l-39 -220c-17 -93 33 -143 135 -143c103 0 169 50 185 143z" />
    <glyph glyph-name="Odieresis" unicode="&#xd6;" horiz-adv-x="670" 
d="M345 898c40 0 51 -14 44 -52l-2 -10c-7 -39 -22 -52 -63 -52h-6c-40 0 -50 13 -43 52l2 10c7 38 21 52 61 52h7zM545 898c40 0 50 -14 43 -52l-1 -10c-7 -39 -22 -52 -62 -52h-7c-40 0 -50 13 -43 52l2 10c6 38 21 52 61 52h7zM80 472c28 160 143 253 327 253
s269 -109 241 -270l-38 -219c-28 -161 -143 -251 -326 -251c-184 0 -270 107 -243 268zM526 465c15 93 -33 143 -136 143c-102 0 -169 -50 -185 -143l-39 -220c-17 -93 33 -143 135 -143c103 0 169 50 185 143z" />
    <glyph glyph-name="Ograve" unicode="&#xd2;" horiz-adv-x="670" 
d="M357 910c20 20 39 13 57 2l132 -87c14 -9 12 -17 -4 -33l-17 -18c-10 -11 -21 -9 -38 -2l-163 72c-18 8 -16 17 2 35zM80 472c28 160 143 253 327 253s269 -109 241 -270l-38 -219c-28 -161 -143 -251 -326 -251c-184 0 -270 107 -243 268zM526 465
c15 93 -33 143 -136 143c-102 0 -169 -50 -185 -143l-39 -220c-17 -93 33 -143 135 -143c103 0 169 50 185 143z" />
    <glyph glyph-name="Ohungarumlaut" unicode="&#x150;" horiz-adv-x="670" 
d="M365 903c16 18 32 27 55 20l33 -12c21 -7 20 -19 3 -34l-118 -92c-17 -13 -26 -18 -38 -13l-16 6c-19 6 -17 16 -5 30zM534 903c17 18 33 27 56 20l35 -12c21 -7 22 -20 3 -34l-128 -96c-17 -13 -25 -18 -38 -13l-16 5c-19 6 -18 18 -5 31zM80 472
c28 160 143 253 327 253s269 -109 241 -270l-38 -219c-28 -161 -143 -251 -326 -251c-184 0 -270 107 -243 268zM526 465c15 93 -33 143 -136 143c-102 0 -169 -50 -185 -143l-39 -220c-17 -93 33 -143 135 -143c103 0 169 50 185 143z" />
    <glyph glyph-name="Omacron" unicode="&#x14c;" horiz-adv-x="670" 
d="M554 880c23 0 29 -6 24 -29l-4 -25c-4 -23 -11 -29 -34 -29h-232c-23 0 -28 6 -24 29l4 25c5 23 14 29 35 29h231zM80 472c28 160 143 253 327 253s269 -109 241 -270l-38 -219c-28 -161 -143 -251 -326 -251c-184 0 -270 107 -243 268zM526 465c15 93 -33 143 -136 143
c-102 0 -169 -50 -185 -143l-39 -220c-17 -93 33 -143 135 -143c103 0 169 50 185 143z" />
    <glyph glyph-name="Oslash" unicode="&#xd8;" horiz-adv-x="671" 
d="M707 753c8 0 8 -4 4 -11l-90 -110c30 -46 40 -106 27 -177l-38 -219c-28 -161 -143 -251 -326 -251c-66 0 -119 13 -158 39l-44 -53c-7 -9 -9 -10 -24 -10h-65c-8 0 -8 5 -3 11l82 102c-32 45 -43 106 -31 179l39 219c28 160 143 253 327 253c68 0 122 -15 162 -43l49 61
c8 9 11 10 22 10h67zM488 583c-23 16 -56 25 -98 25c-102 0 -169 -50 -185 -143l-39 -220c-4 -21 -3 -38 3 -53zM526 465c3 18 2 34 -2 47l-317 -387c23 -15 54 -23 94 -23c103 0 169 50 185 143z" />
    <glyph glyph-name="Oslashacute" unicode="&#x1fe;" horiz-adv-x="671" 
d="M478 914c22 11 44 17 57 -2l20 -32c11 -18 11 -26 -11 -34l-186 -73c-21 -7 -32 -10 -39 1l-11 19c-10 16 -9 24 7 32zM707 753c8 0 8 -4 4 -11l-90 -110c30 -46 40 -106 27 -177l-38 -219c-28 -161 -143 -251 -326 -251c-66 0 -119 13 -158 39l-44 -53
c-7 -9 -9 -10 -24 -10h-65c-8 0 -8 5 -3 11l82 102c-32 45 -43 106 -31 179l39 219c28 160 143 253 327 253c68 0 122 -15 162 -43l49 61c8 9 11 10 22 10h67zM488 583c-23 16 -56 25 -98 25c-102 0 -169 -50 -185 -143l-39 -220c-4 -21 -3 -38 3 -53zM526 465
c3 18 2 34 -2 47l-317 -387c23 -15 54 -23 94 -23c103 0 169 50 185 143z" />
    <glyph glyph-name="Otilde" unicode="&#xd5;" horiz-adv-x="670" 
d="M573 905c15 0 18 -6 16 -19c-15 -81 -46 -111 -104 -111c-64 0 -77 57 -119 57c-16 0 -26 -12 -30 -38c-3 -13 -9 -19 -22 -19h-33c-14 0 -18 6 -15 19c14 83 48 111 102 111c69 0 80 -57 121 -57c16 0 26 12 30 38c3 13 7 19 22 19h32zM80 472c28 160 143 253 327 253
s269 -109 241 -270l-38 -219c-28 -161 -143 -251 -326 -251c-184 0 -270 107 -243 268zM526 465c15 93 -33 143 -136 143c-102 0 -169 -50 -185 -143l-39 -220c-17 -93 33 -143 135 -143c103 0 169 50 185 143z" />
    <glyph glyph-name="OE" unicode="&#x152;" horiz-adv-x="858" 
d="M760 117c26 0 33 -9 28 -34l-9 -49c-4 -25 -14 -34 -40 -34h-344c-35 -10 -74 -15 -115 -15c-184 0 -266 113 -238 273l39 219c28 161 145 248 329 248c42 0 79 -5 110 -15h334c25 0 33 -9 28 -34l-9 -49c-4 -25 -14 -34 -40 -34h-243l-30 -175h195c25 0 32 -9 28 -34
l-9 -49c-5 -25 -15 -34 -41 -34h-195l-32 -184h254zM165 245c-16 -93 33 -143 136 -143c31 0 59 5 80 12l85 482c-19 7 -45 12 -76 12c-103 0 -170 -50 -186 -143z" />
    <glyph glyph-name="P" unicode="P" horiz-adv-x="633" 
d="M442 710c144 0 218 -98 192 -243c-25 -144 -129 -220 -274 -220h-174l-37 -213c-5 -25 -15 -34 -40 -34h-58c-25 0 -32 9 -28 34l113 642c5 25 15 34 40 34h266zM369 364c73 0 124 42 137 114s-24 115 -97 115h-162l-40 -229h162z" />
    <glyph glyph-name="Thorn" unicode="&#xde;" horiz-adv-x="629" 
d="M413 601c149 0 227 -101 200 -251c-26 -150 -136 -232 -286 -232h-164l-14 -84c-5 -25 -15 -34 -40 -34h-58c-25 0 -32 9 -28 34l113 642c5 25 15 34 40 34h58c25 0 33 -9 28 -34l-13 -75h164zM336 235c78 0 136 51 148 124c13 73 -26 125 -104 125h-152l-44 -249h152z
" />
    <glyph glyph-name="Q" unicode="Q" horiz-adv-x="686" 
d="M80 472c28 160 143 253 327 253s269 -109 241 -270l-38 -219c-11 -65 -37 -118 -75 -159l45 -66c13 -20 9 -32 -13 -49l-43 -31c-22 -16 -34 -15 -47 4l-50 75c-40 -17 -89 -25 -143 -25c-184 0 -270 107 -243 268zM390 608c-102 0 -169 -50 -185 -143l-39 -220
c-17 -93 33 -143 135 -143c103 0 169 50 185 143l40 220c15 93 -33 143 -136 143z" />
    <glyph glyph-name="R" unicode="R" horiz-adv-x="651" 
d="M453 710c139 0 210 -90 184 -228c-17 -104 -77 -166 -165 -194c11 -11 18 -26 24 -43l73 -211c7 -19 1 -34 -23 -34h-58c-43 0 -56 5 -63 30l-53 170c-17 55 -31 70 -100 70h-81l-42 -236c-5 -25 -15 -34 -40 -34h-58c-25 0 -32 9 -28 34l113 642c5 25 15 34 40 34h277z
M507 490c13 66 -19 103 -86 103h-174l-36 -206h174c67 0 111 36 122 103z" />
    <glyph glyph-name="Racute" unicode="&#x154;" horiz-adv-x="651" 
d="M466 904c21 11 43 17 56 -2l20 -32c11 -18 11 -26 -10 -34l-187 -73c-21 -7 -32 -10 -39 1l-10 19c-11 16 -10 24 7 32zM453 710c139 0 210 -90 184 -228c-17 -104 -77 -166 -165 -194c11 -11 18 -26 24 -43l73 -211c7 -19 1 -34 -23 -34h-58c-43 0 -56 5 -63 30l-53 170
c-17 55 -31 70 -100 70h-81l-42 -236c-5 -25 -15 -34 -40 -34h-58c-25 0 -32 9 -28 34l113 642c5 25 15 34 40 34h277zM507 490c13 66 -19 103 -86 103h-174l-36 -206h174c67 0 111 36 122 103z" />
    <glyph glyph-name="Rcaron" unicode="&#x158;" horiz-adv-x="651" 
d="M581 907c26 0 24 -12 9 -25l-118 -97c-29 -26 -37 -27 -60 -27h-12c-30 0 -35 1 -55 27l-84 97c-10 13 -6 25 19 25h42c25 0 31 -1 44 -17l50 -57l68 57c16 16 27 17 52 17h45zM453 710c139 0 210 -90 184 -228c-17 -104 -77 -166 -165 -194c11 -11 18 -26 24 -43
l73 -211c7 -19 1 -34 -23 -34h-58c-43 0 -56 5 -63 30l-53 170c-17 55 -31 70 -100 70h-81l-42 -236c-5 -25 -15 -34 -40 -34h-58c-25 0 -32 9 -28 34l113 642c5 25 15 34 40 34h277zM507 490c13 66 -19 103 -86 103h-174l-36 -206h174c67 0 111 36 122 103z" />
    <glyph glyph-name="Rcommaaccent" unicode="&#x156;" horiz-adv-x="651" 
d="M453 710c139 0 210 -90 184 -228c-17 -104 -77 -166 -165 -194c11 -11 18 -26 24 -43l73 -211c7 -19 1 -34 -23 -34h-58c-43 0 -56 5 -63 30l-53 170c-17 55 -31 70 -100 70h-81l-42 -236c-5 -25 -15 -34 -40 -34h-58c-25 0 -32 9 -28 34l113 642c5 25 15 34 40 34h277z
M507 490c13 66 -19 103 -86 103h-174l-36 -206h174c67 0 111 36 122 103zM263 -228c-11 -21 -20 -29 -41 -29h-37c-18 0 -21 5 -16 22l45 142c7 26 18 32 43 32h52c29 0 35 -11 24 -32z" />
    <glyph glyph-name="S" unicode="S" horiz-adv-x="627" 
d="M81 524c23 127 125 201 306 201c142 0 203 -65 232 -155c8 -23 1 -32 -25 -42l-56 -24c-24 -10 -33 -6 -41 17c-17 51 -50 84 -129 84c-98 0 -150 -28 -161 -91c-12 -71 66 -86 156 -96c116 -13 244 -61 215 -228c-24 -132 -125 -205 -315 -205c-155 0 -231 62 -253 167
c-4 25 3 36 29 44l58 20c25 8 33 3 39 -21c15 -60 63 -93 140 -93c103 0 164 31 177 104c12 68 -58 84 -142 93c-119 13 -260 50 -230 225z" />
    <glyph glyph-name="Sacute" unicode="&#x15a;" horiz-adv-x="627" 
d="M458 913c22 12 44 18 57 -1l19 -32c12 -18 12 -27 -10 -34l-186 -74c-21 -7 -32 -9 -39 2l-11 19c-10 16 -9 24 7 32zM81 524c23 127 125 201 306 201c142 0 203 -65 232 -155c8 -23 1 -32 -25 -42l-56 -24c-24 -10 -33 -6 -41 17c-17 51 -50 84 -129 84
c-98 0 -150 -28 -161 -91c-12 -71 66 -86 156 -96c116 -13 244 -61 215 -228c-24 -132 -125 -205 -315 -205c-155 0 -231 62 -253 167c-4 25 3 36 29 44l58 20c25 8 33 3 39 -21c15 -60 63 -93 140 -93c103 0 164 31 177 104c12 68 -58 84 -142 93c-119 13 -260 50 -230 225
z" />
    <glyph glyph-name="Scaron" unicode="&#x160;" horiz-adv-x="627" 
d="M574 917c25 0 23 -12 9 -25l-118 -98c-30 -26 -37 -26 -61 -26h-12c-29 0 -34 1 -54 26l-85 98c-9 13 -6 25 20 25h41c25 0 31 -1 44 -17l50 -57l68 57c16 15 28 17 53 17h45zM81 524c23 127 125 201 306 201c142 0 203 -65 232 -155c8 -23 1 -32 -25 -42l-56 -24
c-24 -10 -33 -6 -41 17c-17 51 -50 84 -129 84c-98 0 -150 -28 -161 -91c-12 -71 66 -86 156 -96c116 -13 244 -61 215 -228c-24 -132 -125 -205 -315 -205c-155 0 -231 62 -253 167c-4 25 3 36 29 44l58 20c25 8 33 3 39 -21c15 -60 63 -93 140 -93c103 0 164 31 177 104
c12 68 -58 84 -142 93c-119 13 -260 50 -230 225z" />
    <glyph glyph-name="Scedilla" unicode="&#x15e;" horiz-adv-x="627" 
d="M81 524c23 127 125 201 306 201c142 0 203 -65 232 -155c8 -23 1 -32 -25 -42l-56 -24c-24 -10 -33 -6 -41 17c-17 51 -50 84 -129 84c-98 0 -150 -28 -161 -91c-12 -71 66 -86 156 -96c116 -13 244 -61 215 -228c-21 -119 -106 -189 -261 -202l-30 -54c4 1 8 1 12 1
c62 0 87 -40 72 -92c-18 -68 -86 -92 -150 -92c-32 0 -56 8 -70 16c-12 7 -15 13 -12 28l5 30c1 10 6 19 17 12c16 -9 27 -16 57 -16c35 0 55 14 59 35c4 19 -10 30 -41 30c-8 0 -17 0 -25 -1c-17 -1 -20 7 -10 24l46 76c-144 4 -216 66 -237 167c-4 25 3 36 29 44l58 20
c25 8 33 3 39 -21c15 -60 63 -93 140 -93c103 0 164 31 177 104c12 68 -58 84 -142 93c-119 13 -260 50 -230 225z" />
    <glyph glyph-name="Scircumflex" unicode="&#x15c;" horiz-adv-x="627" 
d="M435 919c23 0 30 -1 50 -27l85 -98c9 -13 6 -25 -19 -25h-42c-25 0 -35 2 -46 17l-47 58l-71 -58c-18 -16 -25 -17 -50 -17h-45c-26 0 -25 12 -10 25l118 98c29 25 35 27 64 27h13zM81 524c23 127 125 201 306 201c142 0 203 -65 232 -155c8 -23 1 -32 -25 -42l-56 -24
c-24 -10 -33 -6 -41 17c-17 51 -50 84 -129 84c-98 0 -150 -28 -161 -91c-12 -71 66 -86 156 -96c116 -13 244 -61 215 -228c-24 -132 -125 -205 -315 -205c-155 0 -231 62 -253 167c-4 25 3 36 29 44l58 20c25 8 33 3 39 -21c15 -60 63 -93 140 -93c103 0 164 31 177 104
c12 68 -58 84 -142 93c-119 13 -260 50 -230 225z" />
    <glyph glyph-name="Scommaaccent" unicode="&#x218;" horiz-adv-x="627" 
d="M81 524c23 127 125 201 306 201c142 0 203 -65 232 -155c8 -23 1 -32 -25 -42l-56 -24c-24 -10 -33 -6 -41 17c-17 51 -50 84 -129 84c-98 0 -150 -28 -161 -91c-12 -71 66 -86 156 -96c116 -13 244 -61 215 -228c-24 -132 -125 -205 -315 -205c-155 0 -231 62 -253 167
c-4 25 3 36 29 44l58 20c25 8 33 3 39 -21c15 -60 63 -93 140 -93c103 0 164 31 177 104c12 68 -58 84 -142 93c-119 13 -260 50 -230 225zM244 -230c-11 -21 -20 -28 -41 -28h-37c-18 0 -21 5 -16 21l46 142c7 26 17 33 42 33h52c30 0 36 -11 24 -33z" />
    <glyph glyph-name="T" unicode="T" horiz-adv-x="563" 
d="M588 710c25 0 33 -9 28 -34l-9 -49c-4 -25 -14 -34 -40 -34h-172l-99 -559c-4 -25 -14 -34 -40 -34h-57c-25 0 -32 9 -28 34l99 559h-173c-25 0 -32 9 -28 34l9 49c5 25 14 34 40 34h470z" />
    <glyph glyph-name="Tbar" unicode="&#x166;" horiz-adv-x="582" 
d="M597 710c25 0 33 -9 28 -34l-9 -49c-4 -25 -14 -34 -40 -34h-172l-39 -221h119c16 0 19 -6 16 -22l-8 -46c-3 -17 -9 -22 -24 -22h-119l-44 -248c-4 -25 -14 -34 -40 -34h-57c-25 0 -32 9 -28 34l44 248h-119c-16 0 -19 5 -16 22l8 46c3 16 10 22 24 22h119l39 221h-173
c-25 0 -32 9 -28 34l9 49c5 25 14 34 40 34h470z" />
    <glyph glyph-name="Tcaron" unicode="&#x164;" horiz-adv-x="563" 
d="M537 907c26 0 24 -12 9 -25l-118 -97c-29 -26 -37 -27 -60 -27h-13c-29 0 -34 1 -54 27l-84 97c-10 13 -7 25 19 25h42c25 0 31 -1 44 -17l50 -57l67 57c17 16 28 17 53 17h45zM588 710c25 0 33 -9 28 -34l-9 -49c-4 -25 -14 -34 -40 -34h-172l-99 -559
c-4 -25 -14 -34 -40 -34h-57c-25 0 -32 9 -28 34l99 559h-173c-25 0 -32 9 -28 34l9 49c5 25 14 34 40 34h470z" />
    <glyph glyph-name="uni021A" unicode="&#x21a;" horiz-adv-x="563" 
d="M588 710c25 0 33 -9 28 -34l-9 -49c-4 -25 -14 -34 -40 -34h-172l-99 -559c-4 -25 -14 -34 -40 -34h-57c-25 0 -32 9 -28 34l99 559h-173c-25 0 -32 9 -28 34l9 49c5 25 14 34 40 34h470zM207 -228c-10 -21 -19 -29 -40 -29h-38c-18 0 -21 5 -15 22l45 142
c7 26 17 32 42 32h53c29 0 35 -11 24 -32z" />
    <glyph glyph-name="U" unicode="U" horiz-adv-x="688" 
d="M180 243c-16 -89 26 -141 129 -141s163 52 179 141l76 433c5 25 15 34 40 34h57c26 0 33 -9 29 -34l-79 -444c-28 -158 -136 -247 -320 -247s-263 114 -235 271l75 420c4 25 14 34 40 34h57c25 0 33 -9 28 -34z" />
    <glyph glyph-name="Uacute" unicode="&#xda;" horiz-adv-x="688" 
d="M484 904c22 11 44 17 57 -2l20 -32c11 -18 11 -26 -11 -34l-186 -73c-21 -7 -32 -10 -39 1l-11 19c-10 16 -9 24 7 32zM180 243c-16 -89 26 -141 129 -141s163 52 179 141l76 433c5 25 15 34 40 34h57c26 0 33 -9 29 -34l-79 -444c-28 -158 -136 -247 -320 -247
s-263 114 -235 271l75 420c4 25 14 34 40 34h57c25 0 33 -9 28 -34z" />
    <glyph glyph-name="Ubreve" unicode="&#x16c;" horiz-adv-x="688" 
d="M599 863c-34 -65 -97 -103 -173 -103s-126 38 -136 103c-3 15 1 22 18 28l43 15c18 5 25 4 28 -10c5 -34 27 -52 61 -52s62 18 79 52c9 14 16 16 29 11l42 -16c14 -7 17 -13 9 -28zM180 243c-16 -89 26 -141 129 -141s163 52 179 141l76 433c5 25 15 34 40 34h57
c26 0 33 -9 29 -34l-79 -444c-28 -158 -136 -247 -320 -247s-263 114 -235 271l75 420c4 25 14 34 40 34h57c25 0 33 -9 28 -34z" />
    <glyph glyph-name="Ucircumflex" unicode="&#xdb;" horiz-adv-x="688" 
d="M461 909c23 0 30 -1 50 -27l85 -98c9 -13 7 -25 -19 -25h-41c-26 0 -36 2 -47 18l-47 57l-71 -57c-18 -17 -25 -18 -50 -18h-45c-26 0 -25 12 -10 25l118 98c30 25 35 27 65 27h12zM180 243c-16 -89 26 -141 129 -141s163 52 179 141l76 433c5 25 15 34 40 34h57
c26 0 33 -9 29 -34l-79 -444c-28 -158 -136 -247 -320 -247s-263 114 -235 271l75 420c4 25 14 34 40 34h57c25 0 33 -9 28 -34z" />
    <glyph glyph-name="Udieresis" unicode="&#xdc;" horiz-adv-x="688" 
d="M351 888c40 0 51 -14 44 -52l-2 -10c-7 -39 -22 -52 -63 -52h-6c-40 0 -50 13 -43 52l2 10c7 38 21 52 61 52h7zM551 888c40 0 50 -14 43 -52l-1 -10c-7 -39 -22 -52 -62 -52h-7c-40 0 -50 13 -43 52l2 10c6 38 21 52 61 52h7zM180 243c-16 -89 26 -141 129 -141
s163 52 179 141l76 433c5 25 15 34 40 34h57c26 0 33 -9 29 -34l-79 -444c-28 -158 -136 -247 -320 -247s-263 114 -235 271l75 420c4 25 14 34 40 34h57c25 0 33 -9 28 -34z" />
    <glyph glyph-name="Ugrave" unicode="&#xd9;" horiz-adv-x="688" 
d="M363 900c20 20 39 13 57 2l132 -87c14 -9 12 -17 -4 -33l-17 -18c-10 -11 -21 -9 -38 -2l-163 72c-18 8 -16 17 2 35zM180 243c-16 -89 26 -141 129 -141s163 52 179 141l76 433c5 25 15 34 40 34h57c26 0 33 -9 29 -34l-79 -444c-28 -158 -136 -247 -320 -247
s-263 114 -235 271l75 420c4 25 14 34 40 34h57c25 0 33 -9 28 -34z" />
    <glyph glyph-name="Uhungarumlaut" unicode="&#x170;" horiz-adv-x="688" 
d="M371 893c16 18 32 27 55 20l33 -12c21 -7 20 -19 3 -34l-118 -92c-17 -13 -26 -18 -38 -13l-16 6c-19 6 -17 16 -5 30zM540 893c17 18 33 27 56 20l35 -12c21 -7 22 -20 3 -34l-128 -96c-17 -13 -25 -18 -38 -13l-16 5c-19 6 -18 18 -5 31zM180 243
c-16 -89 26 -141 129 -141s163 52 179 141l76 433c5 25 15 34 40 34h57c26 0 33 -9 29 -34l-79 -444c-28 -158 -136 -247 -320 -247s-263 114 -235 271l75 420c4 25 14 34 40 34h57c25 0 33 -9 28 -34z" />
    <glyph glyph-name="Umacron" unicode="&#x16a;" horiz-adv-x="688" 
d="M560 870c23 0 29 -6 24 -29l-4 -25c-4 -23 -11 -29 -34 -29h-232c-23 0 -28 6 -24 29l4 25c5 23 14 29 35 29h231zM180 243c-16 -89 26 -141 129 -141s163 52 179 141l76 433c5 25 15 34 40 34h57c26 0 33 -9 29 -34l-79 -444c-28 -158 -136 -247 -320 -247
s-263 114 -235 271l75 420c4 25 14 34 40 34h57c25 0 33 -9 28 -34z" />
    <glyph glyph-name="Uogonek" unicode="&#x172;" horiz-adv-x="688" 
d="M661 710c26 0 33 -9 29 -34l-79 -444c-16 -89 -53 -147 -123 -198c-103 -75 -128 -147 -125 -171c1 -14 8 -23 21 -23c9 0 20 3 29 10c9 5 17 4 18 -5l10 -40c3 -10 1 -16 -6 -21c-28 -24 -67 -29 -101 -29c-44 0 -78 25 -79 71c-2 48 29 105 103 165
c-21 -4 -42 -6 -67 -6c-184 0 -263 114 -235 271l75 420c4 25 14 34 40 34h57c25 0 33 -9 28 -34l-76 -433c-16 -89 26 -141 129 -141s163 52 179 141l76 433c5 25 15 34 40 34h57z" />
    <glyph glyph-name="Uring" unicode="&#x16e;" horiz-adv-x="688" 
d="M338 848c10 63 63 107 128 107c63 0 99 -44 88 -107c-10 -62 -62 -105 -125 -105c-65 0 -102 43 -91 105zM496 848c6 30 -11 50 -39 50c-31 0 -56 -20 -61 -50c-5 -29 12 -49 43 -49c29 0 53 20 57 49zM180 243c-16 -89 26 -141 129 -141s163 52 179 141l76 433
c5 25 15 34 40 34h57c26 0 33 -9 29 -34l-79 -444c-28 -158 -136 -247 -320 -247s-263 114 -235 271l75 420c4 25 14 34 40 34h57c25 0 33 -9 28 -34z" />
    <glyph glyph-name="Utilde" unicode="&#x168;" horiz-adv-x="688" 
d="M579 895c15 0 18 -6 16 -19c-15 -81 -46 -111 -104 -111c-64 0 -77 57 -119 57c-16 0 -26 -12 -30 -38c-3 -13 -9 -19 -22 -19h-33c-14 0 -18 6 -15 19c14 83 48 111 102 111c69 0 80 -57 121 -57c16 0 26 12 30 38c3 13 7 19 22 19h32zM180 243
c-16 -89 26 -141 129 -141s163 52 179 141l76 433c5 25 15 34 40 34h57c26 0 33 -9 29 -34l-79 -444c-28 -158 -136 -247 -320 -247s-263 114 -235 271l75 420c4 25 14 34 40 34h57c25 0 33 -9 28 -34z" />
    <glyph glyph-name="V" unicode="V" horiz-adv-x="637" 
d="M676 710c25 0 29 -11 17 -33l-354 -649c-13 -23 -24 -28 -47 -28h-53c-23 0 -34 5 -37 27l-126 650c-4 22 4 33 29 33h50c39 0 50 -6 54 -30l71 -426c7 -47 7 -103 8 -106h6c1 3 19 58 44 105l223 427c12 24 21 30 64 30h51z" />
    <glyph glyph-name="W" unicode="W" horiz-adv-x="898" 
d="M927 710c25 0 26 -10 16 -33l-274 -649c-11 -24 -24 -28 -48 -28h-59c-23 0 -36 5 -37 27l-35 397c-2 32 -1 75 4 113h-7c-8 -38 -22 -78 -36 -112l-176 -397c-11 -24 -24 -28 -48 -28h-56c-23 0 -35 4 -37 27l-49 650c-2 23 3 33 28 33h67c29 0 40 -5 41 -30l18 -373
c1 -35 -5 -116 -7 -134h6c4 21 26 95 43 134l167 370c11 25 25 30 50 30h51c25 0 38 -5 40 -30l33 -370c4 -43 0 -115 -2 -134h6c3 16 26 94 40 133l147 374c9 25 22 30 50 30h64z" />
    <glyph glyph-name="Wacute" unicode="&#x1e82;" horiz-adv-x="898" 
d="M594 904c22 11 44 17 57 -2l20 -32c11 -18 11 -26 -11 -34l-186 -73c-21 -7 -32 -10 -39 1l-10 19c-11 16 -10 24 7 32zM927 710c25 0 26 -10 16 -33l-274 -649c-11 -24 -24 -28 -48 -28h-59c-23 0 -36 5 -37 27l-35 397c-2 32 -1 75 4 113h-7c-8 -38 -22 -78 -36 -112
l-176 -397c-11 -24 -24 -28 -48 -28h-56c-23 0 -35 4 -37 27l-49 650c-2 23 3 33 28 33h67c29 0 40 -5 41 -30l18 -373c1 -35 -5 -116 -7 -134h6c4 21 26 95 43 134l167 370c11 25 25 30 50 30h51c25 0 38 -5 40 -30l33 -370c4 -43 0 -115 -2 -134h6c3 16 26 94 40 133
l147 374c9 25 22 30 50 30h64z" />
    <glyph glyph-name="Wcircumflex" unicode="&#x174;" horiz-adv-x="898" 
d="M571 909c23 0 30 -1 50 -27l85 -98c9 -13 7 -25 -19 -25h-41c-25 0 -36 2 -47 18l-47 57l-71 -57c-18 -17 -25 -18 -50 -18h-45c-26 0 -25 12 -10 25l118 98c30 25 36 27 65 27h12zM927 710c25 0 26 -10 16 -33l-274 -649c-11 -24 -24 -28 -48 -28h-59
c-23 0 -36 5 -37 27l-35 397c-2 32 -1 75 4 113h-7c-8 -38 -22 -78 -36 -112l-176 -397c-11 -24 -24 -28 -48 -28h-56c-23 0 -35 4 -37 27l-49 650c-2 23 3 33 28 33h67c29 0 40 -5 41 -30l18 -373c1 -35 -5 -116 -7 -134h6c4 21 26 95 43 134l167 370c11 25 25 30 50 30h51
c25 0 38 -5 40 -30l33 -370c4 -43 0 -115 -2 -134h6c3 16 26 94 40 133l147 374c9 25 22 30 50 30h64z" />
    <glyph glyph-name="Wdieresis" unicode="&#x1e84;" horiz-adv-x="898" 
d="M461 888c40 0 51 -14 44 -52l-2 -10c-7 -39 -22 -52 -62 -52h-7c-40 0 -50 13 -43 52l2 10c7 38 21 52 61 52h7zM661 888c40 0 50 -14 43 -52l-1 -10c-7 -39 -22 -52 -62 -52h-7c-40 0 -50 13 -43 52l2 10c6 38 21 52 61 52h7zM927 710c25 0 26 -10 16 -33l-274 -649
c-11 -24 -24 -28 -48 -28h-59c-23 0 -36 5 -37 27l-35 397c-2 32 -1 75 4 113h-7c-8 -38 -22 -78 -36 -112l-176 -397c-11 -24 -24 -28 -48 -28h-56c-23 0 -35 4 -37 27l-49 650c-2 23 3 33 28 33h67c29 0 40 -5 41 -30l18 -373c1 -35 -5 -116 -7 -134h6c4 21 26 95 43 134
l167 370c11 25 25 30 50 30h51c25 0 38 -5 40 -30l33 -370c4 -43 0 -115 -2 -134h6c3 16 26 94 40 133l147 374c9 25 22 30 50 30h64z" />
    <glyph glyph-name="Wgrave" unicode="&#x1e80;" horiz-adv-x="898" 
d="M473 900c20 20 39 13 57 2l132 -87c14 -9 12 -17 -3 -33l-18 -18c-10 -11 -21 -9 -38 -2l-163 72c-18 8 -16 17 2 35zM927 710c25 0 26 -10 16 -33l-274 -649c-11 -24 -24 -28 -48 -28h-59c-23 0 -36 5 -37 27l-35 397c-2 32 -1 75 4 113h-7c-8 -38 -22 -78 -36 -112
l-176 -397c-11 -24 -24 -28 -48 -28h-56c-23 0 -35 4 -37 27l-49 650c-2 23 3 33 28 33h67c29 0 40 -5 41 -30l18 -373c1 -35 -5 -116 -7 -134h6c4 21 26 95 43 134l167 370c11 25 25 30 50 30h51c25 0 38 -5 40 -30l33 -370c4 -43 0 -115 -2 -134h6c3 16 26 94 40 133
l147 374c9 25 22 30 50 30h64z" />
    <glyph glyph-name="X" unicode="X" horiz-adv-x="637" 
d="M666 710c23 0 27 -16 11 -32l-270 -316l166 -327c11 -18 2 -35 -23 -35h-67c-40 0 -48 2 -61 30l-112 234l-187 -234c-23 -27 -32 -30 -72 -30h-69c-25 0 -27 16 -11 35l279 327l-157 316c-10 16 -1 32 22 32h66c40 0 46 -4 62 -28l104 -221l181 221c23 24 30 28 67 28
h71z" />
    <glyph glyph-name="Y" unicode="Y" horiz-adv-x="640" 
d="M682 710c24 0 25 -15 11 -34l-314 -396l-43 -246c-5 -25 -15 -34 -40 -34h-58c-25 0 -32 9 -28 34l44 248l-175 394c-7 19 -1 34 24 34h67c40 0 50 -1 61 -30l109 -270l204 270c21 29 32 30 72 30h66z" />
    <glyph glyph-name="Yacute" unicode="&#xdd;" horiz-adv-x="640" 
d="M463 904c22 11 44 17 57 -2l20 -32c11 -18 11 -26 -11 -34l-186 -73c-21 -7 -32 -10 -39 1l-10 19c-11 16 -10 24 7 32zM682 710c24 0 25 -15 11 -34l-314 -396l-43 -246c-5 -25 -15 -34 -40 -34h-58c-25 0 -32 9 -28 34l44 248l-175 394c-7 19 -1 34 24 34h67
c40 0 50 -1 61 -30l109 -270l204 270c21 29 32 30 72 30h66z" />
    <glyph glyph-name="Ycircumflex" unicode="&#x176;" horiz-adv-x="640" 
d="M440 909c23 0 30 -1 50 -27l85 -98c9 -13 7 -25 -19 -25h-41c-25 0 -36 2 -47 18l-47 57l-71 -57c-18 -17 -25 -18 -50 -18h-45c-26 0 -25 12 -10 25l118 98c30 25 35 27 65 27h12zM682 710c24 0 25 -15 11 -34l-314 -396l-43 -246c-5 -25 -15 -34 -40 -34h-58
c-25 0 -32 9 -28 34l44 248l-175 394c-7 19 -1 34 24 34h67c40 0 50 -1 61 -30l109 -270l204 270c21 29 32 30 72 30h66z" />
    <glyph glyph-name="Ydieresis" unicode="&#x178;" horiz-adv-x="640" 
d="M330 888c40 0 51 -14 44 -52l-2 -10c-7 -39 -22 -52 -62 -52h-7c-40 0 -50 13 -43 52l2 10c7 38 21 52 61 52h7zM530 888c40 0 50 -14 43 -52l-1 -10c-7 -39 -22 -52 -62 -52h-7c-40 0 -50 13 -43 52l2 10c6 38 21 52 61 52h7zM682 710c24 0 25 -15 11 -34l-314 -396
l-43 -246c-5 -25 -15 -34 -40 -34h-58c-25 0 -32 9 -28 34l44 248l-175 394c-7 19 -1 34 24 34h67c40 0 50 -1 61 -30l109 -270l204 270c21 29 32 30 72 30h66z" />
    <glyph glyph-name="Ygrave" unicode="&#x1ef2;" horiz-adv-x="640" 
d="M342 900c20 20 39 13 57 2l132 -87c14 -9 12 -17 -3 -33l-18 -18c-10 -11 -21 -9 -38 -2l-163 72c-18 8 -16 17 2 35zM682 710c24 0 25 -15 11 -34l-314 -396l-43 -246c-5 -25 -15 -34 -40 -34h-58c-25 0 -32 9 -28 34l44 248l-175 394c-7 19 -1 34 24 34h67
c40 0 50 -1 61 -30l109 -270l204 270c21 29 32 30 72 30h66z" />
    <glyph glyph-name="Z" unicode="Z" horiz-adv-x="585" 
d="M584 710c26 0 34 -9 28 -34l-8 -48c-3 -15 -8 -26 -17 -36l-432 -475h331c26 0 34 -8 28 -34l-8 -49c-5 -25 -15 -34 -40 -34h-452c-26 0 -33 9 -28 34l8 49c3 14 8 24 18 35l431 475h-320c-25 0 -32 9 -28 34l9 49c5 25 14 34 40 34h440z" />
    <glyph glyph-name="Zacute" unicode="&#x179;" horiz-adv-x="585" 
d="M439 904c21 11 43 17 56 -2l20 -32c11 -18 11 -26 -11 -34l-186 -73c-21 -7 -32 -10 -39 1l-10 19c-11 16 -10 24 7 32zM584 710c26 0 34 -9 28 -34l-8 -48c-3 -15 -8 -26 -17 -36l-432 -475h331c26 0 34 -8 28 -34l-8 -49c-5 -25 -15 -34 -40 -34h-452
c-26 0 -33 9 -28 34l8 49c3 14 8 24 18 35l431 475h-320c-25 0 -32 9 -28 34l9 49c5 25 14 34 40 34h440z" />
    <glyph glyph-name="Zcaron" unicode="&#x17d;" horiz-adv-x="585" 
d="M554 907c26 0 24 -12 9 -25l-118 -97c-29 -26 -37 -27 -60 -27h-13c-29 0 -34 1 -54 27l-84 97c-10 13 -7 25 19 25h42c25 0 31 -1 44 -17l50 -57l67 57c17 16 28 17 53 17h45zM584 710c26 0 34 -9 28 -34l-8 -48c-3 -15 -8 -26 -17 -36l-432 -475h331c26 0 34 -8 28 -34
l-8 -49c-5 -25 -15 -34 -40 -34h-452c-26 0 -33 9 -28 34l8 49c3 14 8 24 18 35l431 475h-320c-25 0 -32 9 -28 34l9 49c5 25 14 34 40 34h440z" />
    <glyph glyph-name="Zdotaccent" unicode="&#x17b;" horiz-adv-x="585" 
d="M404 888c42 0 52 -13 45 -54l-1 -8c-7 -41 -22 -53 -64 -53h-5c-42 0 -52 12 -45 53l2 8c7 41 21 54 63 54h5zM584 710c26 0 34 -9 28 -34l-8 -48c-3 -15 -8 -26 -17 -36l-432 -475h331c26 0 34 -8 28 -34l-8 -49c-5 -25 -15 -34 -40 -34h-452c-26 0 -33 9 -28 34l8 49
c3 14 8 24 18 35l431 475h-320c-25 0 -32 9 -28 34l9 49c5 25 14 34 40 34h440z" />
    <glyph glyph-name="a" unicode="a" horiz-adv-x="538" 
d="M47 337c23 137 106 196 259 196c80 0 144 -15 176 -31c29 -15 33 -23 27 -55l-71 -400c-4 -24 -13 -31 -37 -38c-62 -15 -120 -24 -202 -24c-143 0 -200 90 -177 216zM377 416c-23 7 -47 11 -81 11c-80 0 -123 -29 -137 -105l-23 -130c-11 -66 20 -101 91 -101
c41 0 75 6 105 13l53 299c2 7 0 10 -8 13z" />
    <glyph glyph-name="aacute" unicode="&#xe1;" horiz-adv-x="538" 
d="M384 729c23 11 44 17 57 -2l20 -32c12 -18 11 -26 -11 -34l-186 -73c-21 -7 -32 -10 -39 2l-11 18c-10 16 -9 24 8 32zM47 337c23 137 106 196 259 196c80 0 144 -15 176 -31c29 -15 33 -23 27 -55l-71 -400c-4 -24 -13 -31 -37 -38c-62 -15 -120 -24 -202 -24
c-143 0 -200 90 -177 216zM377 416c-23 7 -47 11 -81 11c-80 0 -123 -29 -137 -105l-23 -130c-11 -66 20 -101 91 -101c41 0 75 6 105 13l53 299c2 7 0 10 -8 13z" />
    <glyph glyph-name="abreve" unicode="&#x103;" horiz-adv-x="538" 
d="M499 686c-34 -64 -94 -102 -169 -102s-130 38 -140 102c-3 16 1 23 19 29l38 13c18 6 25 4 29 -10c5 -34 30 -51 64 -51s62 19 80 53c8 14 14 15 28 11l42 -16c14 -7 17 -13 9 -29zM47 337c23 137 106 196 259 196c80 0 144 -15 176 -31c29 -15 33 -23 27 -55l-71 -400
c-4 -24 -13 -31 -37 -38c-62 -15 -120 -24 -202 -24c-143 0 -200 90 -177 216zM377 416c-23 7 -47 11 -81 11c-80 0 -123 -29 -137 -105l-23 -130c-11 -66 20 -101 91 -101c41 0 75 6 105 13l53 299c2 7 0 10 -8 13z" />
    <glyph glyph-name="acircumflex" unicode="&#xe2;" horiz-adv-x="538" 
d="M361 733c23 0 30 -1 51 -27l83 -98c11 -13 7 -25 -19 -25h-39c-25 0 -35 2 -46 17l-48 58l-69 -58c-19 -16 -25 -17 -50 -17h-48c-26 0 -24 12 -11 25l120 98c28 25 34 27 63 27h13zM47 337c23 137 106 196 259 196c80 0 144 -15 176 -31c29 -15 33 -23 27 -55l-71 -400
c-4 -24 -13 -31 -37 -38c-62 -15 -120 -24 -202 -24c-143 0 -200 90 -177 216zM377 416c-23 7 -47 11 -81 11c-80 0 -123 -29 -137 -105l-23 -130c-11 -66 20 -101 91 -101c41 0 75 6 105 13l53 299c2 7 0 10 -8 13z" />
    <glyph glyph-name="adieresis" unicode="&#xe4;" horiz-adv-x="538" 
d="M251 709c40 0 50 -13 43 -52l-2 -9c-7 -39 -21 -52 -61 -52h-7c-40 0 -51 13 -44 52l2 9c7 39 22 52 62 52h7zM451 709c40 0 50 -13 43 -52l-2 -9c-7 -39 -21 -52 -61 -52h-7c-40 0 -51 13 -44 52l2 9c7 39 22 52 62 52h7zM47 337c23 137 106 196 259 196
c80 0 144 -15 176 -31c29 -15 33 -23 27 -55l-71 -400c-4 -24 -13 -31 -37 -38c-62 -15 -120 -24 -202 -24c-143 0 -200 90 -177 216zM377 416c-23 7 -47 11 -81 11c-80 0 -123 -29 -137 -105l-23 -130c-11 -66 20 -101 91 -101c41 0 75 6 105 13l53 299c2 7 0 10 -8 13z
" />
    <glyph glyph-name="agrave" unicode="&#xe0;" horiz-adv-x="538" 
d="M264 727c20 19 39 13 57 2l131 -89c14 -8 12 -16 -4 -32l-17 -18c-10 -11 -21 -9 -38 -2l-162 73c-18 8 -15 17 2 35zM47 337c23 137 106 196 259 196c80 0 144 -15 176 -31c29 -15 33 -23 27 -55l-71 -400c-4 -24 -13 -31 -37 -38c-62 -15 -120 -24 -202 -24
c-143 0 -200 90 -177 216zM377 416c-23 7 -47 11 -81 11c-80 0 -123 -29 -137 -105l-23 -130c-11 -66 20 -101 91 -101c41 0 75 6 105 13l53 299c2 7 0 10 -8 13z" />
    <glyph glyph-name="amacron" unicode="&#x101;" horiz-adv-x="538" 
d="M460 695c23 0 28 -6 24 -29l-4 -25c-4 -23 -11 -29 -34 -29h-232c-23 0 -27 6 -24 29l4 25c5 23 14 29 35 29h231zM47 337c23 137 106 196 259 196c80 0 144 -15 176 -31c29 -15 33 -23 27 -55l-71 -400c-4 -24 -13 -31 -37 -38c-62 -15 -120 -24 -202 -24
c-143 0 -200 90 -177 216zM377 416c-23 7 -47 11 -81 11c-80 0 -123 -29 -137 -105l-23 -130c-11 -66 20 -101 91 -101c41 0 75 6 105 13l53 299c2 7 0 10 -8 13z" />
    <glyph glyph-name="aogonek" unicode="&#x105;" horiz-adv-x="539" 
d="M47 337c23 137 106 196 259 196c80 0 144 -15 176 -31c29 -15 33 -23 27 -55l-71 -400c-2 -11 -5 -19 -11 -25c-73 -72 -100 -135 -98 -159c2 -14 8 -23 22 -23c8 0 19 3 28 10c9 5 17 4 19 -5l9 -40c3 -10 1 -16 -5 -21c-29 -24 -67 -29 -102 -29c-43 0 -78 25 -79 71
c-1 50 27 105 109 169c-38 -6 -80 -10 -131 -10c-143 0 -200 90 -177 216zM377 416c-23 7 -47 11 -81 11c-80 0 -123 -29 -137 -105l-23 -130c-11 -66 20 -101 91 -101c41 0 75 6 105 13l53 299c2 7 0 10 -8 13z" />
    <glyph glyph-name="aring" unicode="&#xe5;" horiz-adv-x="538" 
d="M233 677c11 63 64 107 129 107c63 0 99 -45 88 -107s-62 -105 -125 -105c-65 0 -102 44 -92 105zM392 677c6 30 -11 50 -40 50c-31 0 -55 -20 -61 -50c-4 -29 12 -49 43 -49c29 0 54 20 58 49zM47 337c23 137 106 196 259 196c80 0 144 -15 176 -31c29 -15 33 -23 27 -55
l-71 -400c-4 -24 -13 -31 -37 -38c-62 -15 -120 -24 -202 -24c-143 0 -200 90 -177 216zM377 416c-23 7 -47 11 -81 11c-80 0 -123 -29 -137 -105l-23 -130c-11 -66 20 -101 91 -101c41 0 75 6 105 13l53 299c2 7 0 10 -8 13z" />
    <glyph glyph-name="aringacute" unicode="&#x1fb;" horiz-adv-x="538" 
d="M381 901c21 8 41 13 53 -1l19 -24c11 -13 10 -20 -10 -25l-174 -55c-20 -5 -30 -7 -37 2l-10 13c-9 12 -8 18 8 25zM234 672c11 63 64 106 129 106c63 0 99 -44 88 -107c-11 -62 -62 -105 -125 -105c-65 0 -102 44 -92 106zM393 672c6 29 -11 49 -40 49
c-31 0 -55 -19 -61 -49c-4 -29 12 -49 43 -49c29 0 54 20 58 49zM47 337c23 137 106 196 259 196c80 0 144 -15 176 -31c29 -15 33 -23 27 -55l-71 -400c-4 -24 -13 -31 -37 -38c-62 -15 -120 -24 -202 -24c-143 0 -200 90 -177 216zM377 416c-23 7 -47 11 -81 11
c-80 0 -123 -29 -137 -105l-23 -130c-11 -66 20 -101 91 -101c41 0 75 6 105 13l53 299c2 7 0 10 -8 13z" />
    <glyph glyph-name="atilde" unicode="&#xe3;" horiz-adv-x="538" 
d="M480 724c14 0 18 -6 15 -19c-14 -82 -45 -112 -103 -112c-64 0 -77 58 -120 58c-15 0 -25 -12 -30 -38c-2 -13 -8 -20 -21 -20h-33c-14 0 -18 7 -16 20c14 82 48 111 102 111c69 0 81 -57 122 -57c16 0 26 12 30 38c3 13 7 19 22 19h32zM47 337c23 137 106 196 259 196
c80 0 144 -15 176 -31c29 -15 33 -23 27 -55l-71 -400c-4 -24 -13 -31 -37 -38c-62 -15 -120 -24 -202 -24c-143 0 -200 90 -177 216zM377 416c-23 7 -47 11 -81 11c-80 0 -123 -29 -137 -105l-23 -130c-11 -66 20 -101 91 -101c41 0 75 6 105 13l53 299c2 7 0 10 -8 13z
" />
    <glyph glyph-name="ae" unicode="&#xe6;" horiz-adv-x="779" 
d="M416 465c39 45 95 68 163 68c132 0 200 -66 179 -179c-17 -97 -101 -146 -231 -146c-36 0 -74 6 -110 12l-6 -35c-12 -65 19 -100 85 -100c53 0 90 21 115 53c17 21 28 26 48 12l31 -21c17 -13 19 -29 1 -51c-42 -58 -110 -93 -213 -93c-56 0 -98 14 -126 39
c-38 -21 -87 -39 -168 -39c-150 0 -198 65 -179 170c18 104 92 153 239 153c32 0 66 -4 83 -5l4 26c8 42 18 101 -70 101c-43 0 -73 -14 -100 -47c-18 -20 -24 -24 -45 -14l-37 17c-21 9 -26 21 -10 44c47 66 115 103 213 103c80 0 112 -28 134 -68zM645 360
c9 48 -18 75 -83 75c-66 0 -115 -36 -125 -102l-5 -25c37 -7 75 -11 111 -11c61 0 94 21 102 63zM310 211c-20 1 -63 4 -95 4c-57 0 -87 -22 -95 -68c-9 -46 11 -66 69 -66c57 0 91 15 114 23c-3 22 -2 48 2 76z" />
    <glyph glyph-name="aeacute" unicode="&#x1fd;" horiz-adv-x="779" 
d="M501 728c22 12 43 18 57 -1l19 -32c12 -18 11 -27 -10 -34l-187 -73c-20 -8 -31 -10 -39 1l-10 19c-11 16 -9 24 8 32zM416 465c39 45 95 68 163 68c132 0 200 -66 179 -179c-17 -97 -101 -146 -231 -146c-36 0 -74 6 -110 12l-6 -35c-12 -65 19 -100 85 -100
c53 0 90 21 115 53c17 21 28 26 48 12l31 -21c17 -13 19 -29 1 -51c-42 -58 -110 -93 -213 -93c-56 0 -98 14 -126 39c-38 -21 -87 -39 -168 -39c-150 0 -198 65 -179 170c18 104 92 153 239 153c32 0 66 -4 83 -5l4 26c8 42 18 101 -70 101c-43 0 -73 -14 -100 -47
c-18 -20 -24 -24 -45 -14l-37 17c-21 9 -26 21 -10 44c47 66 115 103 213 103c80 0 112 -28 134 -68zM645 360c9 48 -18 75 -83 75c-66 0 -115 -36 -125 -102l-5 -25c37 -7 75 -11 111 -11c61 0 94 21 102 63zM310 211c-20 1 -63 4 -95 4c-57 0 -87 -22 -95 -68
c-9 -46 11 -66 69 -66c57 0 91 15 114 23c-3 22 -2 48 2 76z" />
    <glyph glyph-name="b" unicode="b" horiz-adv-x="541" 
d="M219 740c23 0 29 -8 25 -31l-34 -193c32 7 74 17 123 17c142 0 194 -83 171 -209l-25 -136c-23 -137 -108 -203 -260 -203c-81 0 -143 17 -176 32c-29 15 -33 23 -27 55l112 637c4 23 14 31 37 31h54zM389 331c11 69 -20 99 -91 99c-42 0 -81 -10 -106 -18l-52 -298
c-1 -5 -2 -8 5 -11c22 -8 51 -12 83 -12c81 0 125 35 138 109z" />
    <glyph glyph-name="c" unicode="c" horiz-adv-x="512" 
d="M46 335c22 127 101 198 259 198c119 0 177 -57 189 -131c4 -25 -1 -37 -26 -45l-40 -13c-26 -10 -35 -3 -40 21c-9 41 -41 66 -100 66c-73 0 -115 -37 -127 -99l-26 -147c-11 -62 19 -98 92 -98c58 0 97 26 121 69c13 24 24 28 48 20l42 -14c22 -9 28 -20 13 -45
c-47 -84 -121 -132 -241 -132c-153 0 -211 85 -188 212z" />
    <glyph glyph-name="cacute" unicode="&#x107;" horiz-adv-x="512" 
d="M363 728c23 12 44 18 57 -1l19 -32c13 -18 12 -27 -10 -34l-186 -73c-21 -8 -32 -10 -39 1l-11 19c-10 16 -9 24 8 32zM46 335c22 127 101 198 259 198c119 0 177 -57 189 -131c4 -25 -1 -37 -26 -45l-40 -13c-26 -10 -35 -3 -40 21c-9 41 -41 66 -100 66
c-73 0 -115 -37 -127 -99l-26 -147c-11 -62 19 -98 92 -98c58 0 97 26 121 69c13 24 24 28 48 20l42 -14c22 -9 28 -20 13 -45c-47 -84 -121 -132 -241 -132c-153 0 -211 85 -188 212z" />
    <glyph glyph-name="ccaron" unicode="&#x10d;" horiz-adv-x="512" 
d="M159 706c-10 13 -7 25 19 25h39c25 0 32 -1 44 -17l51 -58l67 58c17 15 28 17 53 17h46c26 0 24 -12 10 -25l-119 -98c-29 -26 -36 -27 -59 -27h-12c-29 0 -35 2 -55 27zM305 533c119 0 177 -57 189 -131c4 -25 -1 -37 -26 -45l-40 -13c-26 -10 -35 -3 -40 21
c-9 41 -41 66 -100 66c-73 0 -115 -37 -127 -99l-26 -147c-11 -62 19 -98 92 -98c58 0 97 26 121 69c13 24 24 28 48 20l42 -14c22 -9 28 -20 13 -45c-47 -84 -121 -132 -241 -132c-153 0 -211 85 -188 212l24 138c22 127 101 198 259 198z" />
    <glyph glyph-name="ccedilla" unicode="&#xe7;" horiz-adv-x="512" 
d="M47 335c22 127 101 198 258 198c119 0 178 -57 190 -131c4 -25 -2 -37 -26 -45l-40 -13c-26 -10 -35 -3 -40 21c-9 41 -41 66 -100 66c-73 0 -115 -37 -127 -99l-26 -147c-11 -62 19 -98 92 -98c58 0 97 26 121 69c13 24 24 28 47 20l43 -14c22 -9 28 -20 13 -45
c-42 -75 -104 -120 -201 -129l-29 -53c4 0 8 1 12 1c62 0 87 -40 72 -92c-18 -69 -86 -93 -150 -93c-32 0 -56 9 -70 17c-13 6 -15 13 -13 28l5 30c1 10 7 18 18 12c16 -9 27 -17 57 -17c35 0 55 15 59 36c4 19 -11 30 -41 30c-9 0 -17 0 -25 -1c-17 -1 -20 7 -10 24l46 76
c-131 11 -181 92 -160 211z" />
    <glyph glyph-name="ccircumflex" unicode="&#x109;" horiz-adv-x="512" 
d="M155 583c-26 0 -25 12 -11 25l119 98c29 25 35 26 64 26h12c24 0 30 0 51 -26l84 -98c11 -13 7 -25 -19 -25h-39c-25 0 -35 2 -46 17l-48 58l-69 -58c-19 -16 -26 -17 -51 -17h-47zM494 402c4 -25 -1 -37 -26 -45l-40 -13c-26 -10 -35 -3 -40 21c-9 41 -41 66 -100 66
c-73 0 -115 -37 -127 -99l-26 -147c-11 -62 19 -98 92 -98c58 0 97 26 121 69c13 24 24 28 48 20l42 -14c22 -9 28 -20 13 -45c-47 -84 -121 -132 -241 -132c-153 0 -211 85 -188 212l24 138c22 127 101 198 259 198c119 0 177 -57 189 -131z" />
    <glyph glyph-name="cdotaccent" unicode="&#x10b;" horiz-adv-x="512" 
d="M329 711c41 0 52 -12 45 -54l-2 -7c-7 -42 -22 -54 -63 -54h-6c-41 0 -51 12 -44 54l2 7c7 42 21 54 62 54h6zM46 335c22 127 101 198 259 198c119 0 177 -57 189 -131c4 -25 -1 -37 -26 -45l-40 -13c-26 -10 -35 -3 -40 21c-9 41 -41 66 -100 66
c-73 0 -115 -37 -127 -99l-26 -147c-11 -62 19 -98 92 -98c58 0 97 26 121 69c13 24 24 28 48 20l42 -14c22 -9 28 -20 13 -45c-47 -84 -121 -132 -241 -132c-153 0 -211 85 -188 212z" />
    <glyph glyph-name="d" unicode="d" horiz-adv-x="540" 
d="M47 335c24 135 104 198 243 198c49 0 90 -8 116 -13l34 189c4 23 13 31 36 31h55c23 0 29 -8 25 -31l-112 -637c-6 -33 -15 -42 -49 -55c-43 -15 -102 -32 -193 -32c-149 0 -202 85 -179 213zM388 414c-22 5 -54 13 -94 13c-79 0 -121 -31 -134 -106l-23 -130
c-12 -65 21 -100 94 -100c36 0 68 4 95 11c7 3 7 5 9 11z" />
    <glyph glyph-name="eth" unicode="&#xf0;" horiz-adv-x="554" 
d="M471 748c10 9 14 9 23 1l27 -24c11 -8 8 -13 -1 -22l-40 -36c50 -57 60 -145 39 -270l-37 -209c-23 -126 -115 -203 -266 -203c-152 0 -216 88 -194 213l20 114c22 126 116 193 240 193c74 0 115 -25 135 -56c7 59 1 103 -26 133l-47 -44c-10 -9 -14 -9 -23 -1l-26 20
c-8 7 -8 12 3 23l39 37c-31 14 -74 20 -128 20c-25 0 -30 7 -28 30l8 45c4 23 12 31 36 31c88 0 154 -12 202 -37zM385 302c11 63 -21 98 -96 98s-121 -35 -131 -98l-21 -114c-11 -62 22 -98 97 -98s119 36 131 98z" />
    <glyph glyph-name="dcaron" unicode="&#x10f;" horiz-adv-x="617" 
d="M47 335c24 135 104 198 243 198c49 0 90 -8 116 -13l34 189c4 23 13 31 36 31h55c23 0 29 -8 25 -31l-112 -637c-6 -33 -15 -42 -49 -55c-43 -15 -102 -32 -193 -32c-149 0 -202 85 -179 213zM669 537c-8 -19 -11 -28 -31 -28h-29c-18 0 -23 4 -19 21l46 178
c6 25 11 32 36 32h42c28 0 37 -11 28 -32zM388 414c-22 5 -54 13 -94 13c-79 0 -121 -31 -134 -106l-23 -130c-12 -65 21 -100 94 -100c36 0 68 4 95 11c7 3 7 5 9 11z" />
    <glyph glyph-name="dcroat" unicode="&#x111;" horiz-adv-x="542" 
d="M603 667c16 0 20 -5 16 -21l-5 -29c-3 -17 -8 -22 -24 -22h-53l-92 -523c-6 -33 -15 -42 -49 -55c-43 -15 -102 -32 -193 -32c-149 0 -203 83 -180 212l24 136c24 135 105 200 244 200c49 0 90 -8 116 -13l14 75h-121c-16 0 -19 5 -17 22l5 29c4 16 11 21 25 21h121l7 42
c4 23 13 31 36 31h55c23 0 29 -8 25 -31l-7 -42h53zM389 414c-22 5 -54 13 -94 13c-79 0 -120 -29 -134 -106l-23 -130c-12 -65 15 -100 94 -100c36 0 68 4 95 11c7 3 7 5 9 11z" />
    <glyph glyph-name="e" unicode="e" horiz-adv-x="531" 
d="M45 330c24 130 119 203 269 203c135 0 216 -75 194 -186c-18 -98 -101 -139 -245 -139c-41 0 -83 5 -123 12l-6 -35c-11 -65 23 -100 97 -100c58 0 102 20 129 52c20 22 32 27 53 12l31 -20c20 -13 21 -29 3 -51c-46 -58 -120 -93 -234 -93c-164 0 -213 103 -190 226z
M396 360c9 48 -26 75 -99 75c-74 0 -124 -40 -137 -105l-4 -21c41 -7 83 -12 123 -12c68 0 108 21 117 63z" />
    <glyph glyph-name="eacute" unicode="&#xe9;" horiz-adv-x="531" 
d="M379 729c23 11 44 17 57 -2l20 -32c12 -18 11 -26 -11 -34l-186 -73c-21 -7 -32 -10 -39 2l-11 18c-10 16 -9 24 8 32zM45 330c24 130 119 203 269 203c135 0 216 -75 194 -186c-18 -98 -101 -139 -245 -139c-41 0 -83 5 -123 12l-6 -35c-11 -65 23 -100 97 -100
c58 0 102 20 129 52c20 22 32 27 53 12l31 -20c20 -13 21 -29 3 -51c-46 -58 -120 -93 -234 -93c-164 0 -213 103 -190 226zM396 360c9 48 -26 75 -99 75c-74 0 -124 -40 -137 -105l-4 -21c41 -7 83 -12 123 -12c68 0 108 21 117 63z" />
    <glyph glyph-name="ebreve" unicode="&#x115;" horiz-adv-x="531" 
d="M494 686c-34 -64 -94 -102 -169 -102s-130 38 -140 102c-3 16 1 23 19 29l38 13c18 6 25 4 29 -10c5 -34 30 -51 64 -51s62 19 80 53c8 14 15 15 28 11l43 -16c13 -7 16 -13 8 -29zM45 330c24 130 119 203 269 203c135 0 216 -75 194 -186c-18 -98 -101 -139 -245 -139
c-41 0 -83 5 -123 12l-6 -35c-11 -65 23 -100 97 -100c58 0 102 20 129 52c20 22 32 27 53 12l31 -20c20 -13 21 -29 3 -51c-46 -58 -120 -93 -234 -93c-164 0 -213 103 -190 226zM396 360c9 48 -26 75 -99 75c-74 0 -124 -40 -137 -105l-4 -21c41 -7 83 -12 123 -12
c68 0 108 21 117 63z" />
    <glyph glyph-name="ecaron" unicode="&#x11b;" horiz-adv-x="531" 
d="M175 706c-10 13 -7 25 19 25h40c25 0 31 -1 43 -17l51 -58l67 58c18 15 28 17 53 17h46c26 0 24 -12 11 -25l-119 -98c-30 -26 -37 -27 -60 -27h-12c-29 0 -35 2 -55 27zM314 533c135 0 216 -75 194 -186c-18 -98 -101 -139 -245 -139c-41 0 -83 5 -123 12l-6 -35
c-11 -65 23 -100 97 -100c58 0 102 20 129 52c20 22 32 27 53 12l31 -20c20 -13 21 -29 3 -51c-46 -58 -120 -93 -234 -93c-164 0 -213 103 -190 226l22 119c24 130 119 203 269 203zM396 360c9 48 -26 75 -99 75c-74 0 -124 -40 -137 -105l-4 -21c41 -7 83 -12 123 -12
c68 0 108 21 117 63z" />
    <glyph glyph-name="ecircumflex" unicode="&#xea;" horiz-adv-x="531" 
d="M171 583c-26 0 -24 12 -11 25l120 98c28 25 34 27 63 27h13c23 0 30 -1 51 -27l83 -98c11 -13 7 -25 -18 -25h-40c-25 0 -35 2 -46 17l-47 58l-70 -58c-19 -16 -25 -17 -50 -17h-48zM314 533c135 0 216 -75 194 -186c-18 -98 -101 -139 -245 -139c-41 0 -83 5 -123 12
l-6 -35c-11 -65 23 -100 97 -100c58 0 102 20 129 52c20 22 32 27 53 12l31 -20c20 -13 21 -29 3 -51c-46 -58 -120 -93 -234 -93c-164 0 -213 103 -190 226l22 119c24 130 119 203 269 203zM396 360c9 48 -26 75 -99 75c-74 0 -124 -40 -137 -105l-4 -21
c41 -7 83 -12 123 -12c68 0 108 21 117 63z" />
    <glyph glyph-name="edieresis" unicode="&#xeb;" horiz-adv-x="531" 
d="M246 709c40 0 50 -13 43 -52l-2 -9c-7 -39 -21 -52 -61 -52h-7c-40 0 -51 13 -43 52l1 9c7 39 22 52 62 52h7zM446 709c40 0 50 -13 43 -52l-2 -9c-7 -39 -21 -52 -61 -52h-7c-40 0 -51 13 -44 52l2 9c7 39 22 52 62 52h7zM45 330c24 130 119 203 269 203
c135 0 216 -75 194 -186c-18 -98 -101 -139 -245 -139c-41 0 -83 5 -123 12l-6 -35c-11 -65 23 -100 97 -100c58 0 102 20 129 52c20 22 32 27 53 12l31 -20c20 -13 21 -29 3 -51c-46 -58 -120 -93 -234 -93c-164 0 -213 103 -190 226zM396 360c9 48 -26 75 -99 75
c-74 0 -124 -40 -137 -105l-4 -21c41 -7 83 -12 123 -12c68 0 108 21 117 63z" />
    <glyph glyph-name="edotaccent" unicode="&#x117;" horiz-adv-x="531" 
d="M345 711c42 0 52 -12 45 -54l-2 -7c-7 -42 -21 -54 -63 -54h-6c-41 0 -51 12 -44 54l2 7c7 42 21 54 62 54h6zM45 330c24 130 119 203 269 203c135 0 216 -75 194 -186c-18 -98 -101 -139 -245 -139c-41 0 -83 5 -123 12l-6 -35c-11 -65 23 -100 97 -100
c58 0 102 20 129 52c20 22 32 27 53 12l31 -20c20 -13 21 -29 3 -51c-46 -58 -120 -93 -234 -93c-164 0 -213 103 -190 226zM396 360c9 48 -26 75 -99 75c-74 0 -124 -40 -137 -105l-4 -21c41 -7 83 -12 123 -12c68 0 108 21 117 63z" />
    <glyph glyph-name="egrave" unicode="&#xe8;" horiz-adv-x="531" 
d="M259 727c20 19 40 13 57 2l131 -89c14 -8 12 -16 -4 -32l-17 -18c-10 -11 -21 -9 -38 -2l-162 73c-18 8 -15 17 2 35zM45 330c24 130 119 203 269 203c135 0 216 -75 194 -186c-18 -98 -101 -139 -245 -139c-41 0 -83 5 -123 12l-6 -35c-11 -65 23 -100 97 -100
c58 0 102 20 129 52c20 22 32 27 53 12l31 -20c20 -13 21 -29 3 -51c-46 -58 -120 -93 -234 -93c-164 0 -213 103 -190 226zM396 360c9 48 -26 75 -99 75c-74 0 -124 -40 -137 -105l-4 -21c41 -7 83 -12 123 -12c68 0 108 21 117 63z" />
    <glyph glyph-name="emacron" unicode="&#x113;" horiz-adv-x="531" 
d="M209 612c-23 0 -27 6 -24 29l4 25c5 23 14 29 35 29h231c23 0 28 -6 24 -29l-4 -25c-4 -23 -11 -29 -34 -29h-232zM314 533c135 0 216 -75 194 -186c-18 -98 -101 -139 -245 -139c-41 0 -83 5 -123 12l-6 -35c-11 -65 23 -100 97 -100c58 0 102 20 129 52
c20 22 32 27 53 12l31 -20c20 -13 21 -29 3 -51c-46 -58 -120 -93 -234 -93c-164 0 -213 103 -190 226l22 119c24 130 119 203 269 203zM396 360c9 48 -26 75 -99 75c-74 0 -124 -40 -137 -105l-4 -21c41 -7 83 -12 123 -12c68 0 108 21 117 63z" />
    <glyph glyph-name="eogonek" unicode="&#x119;" horiz-adv-x="531" 
d="M45 330c24 130 119 203 269 203c135 0 216 -75 194 -186c-18 -98 -101 -139 -245 -139c-41 0 -83 5 -123 12l-6 -35c-11 -65 23 -100 97 -100c58 0 102 20 129 52c20 22 32 27 53 12l31 -20c20 -13 21 -29 3 -51c-9 -10 -18 -20 -28 -28c-92 -99 -124 -164 -122 -187
c2 -13 9 -23 22 -23c9 0 19 3 28 10c9 5 17 4 19 -5l9 -40c3 -10 1 -16 -5 -21c-29 -24 -67 -29 -102 -29c-43 0 -76 25 -77 71c-2 47 27 106 100 166c-23 -4 -50 -7 -78 -7c-164 0 -213 103 -190 226zM279 297c68 0 108 21 117 63c9 48 -26 75 -99 75
c-74 0 -124 -40 -137 -105l-4 -21c41 -7 83 -12 123 -12z" />
    <glyph glyph-name="f" unicode="f" horiz-adv-x="367" 
d="M407 740c24 0 30 -8 26 -32l-8 -40c-4 -24 -13 -31 -37 -31c-89 0 -119 -34 -132 -109l-1 -10h114c23 0 29 -7 25 -30l-8 -46c-4 -23 -12 -31 -35 -31h-115l-67 -380c-4 -23 -13 -31 -37 -31h-53c-24 0 -30 8 -26 31l67 380h-60c-23 0 -30 8 -26 31l8 46
c5 23 14 30 37 30h60l1 10c25 138 99 209 251 212h16z" />
    <glyph glyph-name="g" unicode="g" horiz-adv-x="541" 
d="M47 337c24 137 107 196 260 196c80 0 144 -15 176 -31c29 -15 33 -23 27 -55l-83 -469c-23 -131 -96 -213 -253 -213c-109 0 -166 39 -191 98c-11 22 -4 38 21 50l38 19c26 12 37 9 49 -12c15 -33 41 -51 95 -51c70 0 112 37 125 108l9 50c-31 -8 -70 -18 -118 -18
c-142 0 -198 89 -175 216zM380 416c-22 6 -50 11 -83 11c-80 0 -124 -34 -137 -107l-19 -106c-11 -64 14 -99 91 -99c43 0 80 8 106 14l48 275c2 7 1 9 -6 12z" />
    <glyph glyph-name="gbreve" unicode="&#x11f;" horiz-adv-x="541" 
d="M500 686c-34 -65 -94 -102 -169 -102s-130 37 -140 102c-3 16 1 23 19 29l38 13c18 6 25 4 29 -10c5 -34 30 -51 64 -51s62 19 80 53c8 13 15 15 28 11l43 -16c13 -7 16 -13 8 -29zM47 337c24 137 107 196 260 196c80 0 144 -15 176 -31c29 -15 33 -23 27 -55l-83 -469
c-23 -131 -96 -213 -253 -213c-109 0 -166 39 -191 98c-11 22 -4 38 21 50l38 19c26 12 37 9 49 -12c15 -33 41 -51 95 -51c70 0 112 37 125 108l9 50c-31 -8 -70 -18 -118 -18c-142 0 -198 89 -175 216zM380 416c-22 6 -50 11 -83 11c-80 0 -124 -34 -137 -107l-19 -106
c-11 -64 14 -99 91 -99c43 0 80 8 106 14l48 275c2 7 1 9 -6 12z" />
    <glyph glyph-name="gcircumflex" unicode="&#x11d;" horiz-adv-x="541" 
d="M177 583c-26 0 -24 12 -11 25l120 98c28 25 34 26 63 26h13c23 0 30 0 51 -26l83 -98c11 -13 7 -25 -18 -25h-40c-25 0 -35 2 -46 17l-47 58l-70 -58c-19 -16 -25 -17 -50 -17h-48zM483 502c29 -15 33 -23 27 -55l-83 -469c-23 -131 -96 -213 -253 -213
c-109 0 -166 39 -191 98c-11 22 -4 38 21 50l38 19c26 12 37 9 49 -12c15 -33 41 -51 95 -51c70 0 112 37 125 108l9 50c-31 -8 -70 -18 -118 -18c-142 0 -198 89 -175 216l20 112c24 137 107 196 260 196c80 0 144 -15 176 -31zM386 404c2 7 1 9 -6 12c-22 6 -50 11 -83 11
c-80 0 -124 -34 -137 -107l-19 -106c-11 -64 14 -99 91 -99c43 0 80 8 106 14z" />
    <glyph glyph-name="gcommaaccent" unicode="&#x123;" horiz-adv-x="541" 
d="M329 726c11 21 15 24 38 24h30c20 0 27 -6 22 -23l-41 -109c-9 -27 -13 -36 -41 -36h-43c-29 0 -35 12 -27 36zM47 337c24 137 107 196 260 196c80 0 144 -15 176 -31c29 -15 33 -23 27 -55l-83 -469c-23 -131 -96 -213 -253 -213c-109 0 -166 39 -191 98
c-11 22 -4 38 21 50l38 19c26 12 37 9 49 -12c15 -33 41 -51 95 -51c70 0 112 37 125 108l9 50c-31 -8 -70 -18 -118 -18c-142 0 -198 89 -175 216zM380 416c-22 6 -50 11 -83 11c-80 0 -124 -34 -137 -107l-19 -106c-11 -64 14 -99 91 -99c43 0 80 8 106 14l48 275
c2 7 1 9 -6 12z" />
    <glyph glyph-name="gdotaccent" unicode="&#x121;" horiz-adv-x="541" 
d="M351 711c42 0 52 -12 45 -54l-2 -7c-7 -42 -21 -54 -63 -54h-6c-41 0 -51 12 -44 54l2 7c7 42 21 54 62 54h6zM47 337c24 137 107 196 260 196c80 0 144 -15 176 -31c29 -15 33 -23 27 -55l-83 -469c-23 -131 -96 -213 -253 -213c-109 0 -166 39 -191 98
c-11 22 -4 38 21 50l38 19c26 12 37 9 49 -12c15 -33 41 -51 95 -51c70 0 112 37 125 108l9 50c-31 -8 -70 -18 -118 -18c-142 0 -198 89 -175 216zM380 416c-22 6 -50 11 -83 11c-80 0 -124 -34 -137 -107l-19 -106c-11 -64 14 -99 91 -99c43 0 80 8 106 14l48 275
c2 7 1 9 -6 12z" />
    <glyph glyph-name="h" unicode="h" horiz-adv-x="554" 
d="M221 740c23 0 29 -8 24 -31l-33 -190c10 5 62 14 122 14c142 0 193 -82 171 -208l-51 -294c-4 -23 -14 -31 -37 -31h-54c-23 0 -29 8 -25 31l52 298c12 64 -20 98 -91 98c-49 0 -96 -10 -106 -15l-67 -381c-4 -23 -13 -31 -36 -31h-55c-23 0 -29 8 -25 31l119 678
c5 23 14 31 37 31h55z" />
    <glyph glyph-name="hbar" unicode="&#x127;" horiz-adv-x="554" 
d="M212 519c10 5 62 14 122 14c142 0 193 -82 171 -208l-51 -294c-4 -23 -14 -31 -37 -31h-54c-23 0 -29 8 -25 31l52 298c12 64 -20 98 -91 98c-49 0 -96 -10 -106 -15l-67 -381c-4 -23 -13 -31 -36 -31h-55c-23 0 -29 8 -25 31l100 567h-46c-15 0 -19 4 -15 22l4 25
c2 17 10 22 23 22h46l7 42c5 23 14 31 37 31h55c23 0 29 -8 24 -31l-7 -42h135c16 0 19 -5 16 -22l-4 -25c-3 -18 -9 -22 -24 -22h-135z" />
    <glyph glyph-name="hcircumflex" unicode="&#x125;" horiz-adv-x="554" 
d="M52 790c-25 0 -24 12 -10 25l119 98c29 25 35 27 64 27h12c24 0 30 -1 51 -27l84 -98c10 -13 7 -25 -19 -25h-39c-25 0 -36 2 -46 17l-48 58l-69 -58c-19 -16 -26 -17 -51 -17h-48zM334 533c142 0 193 -82 171 -208l-51 -294c-4 -23 -14 -31 -37 -31h-54
c-23 0 -29 8 -25 31l52 298c12 64 -20 98 -91 98c-49 0 -96 -10 -106 -15l-67 -381c-4 -23 -13 -31 -36 -31h-55c-23 0 -29 8 -25 31l119 678c5 23 14 31 37 31h55c23 0 29 -8 24 -31l-33 -190c10 5 62 14 122 14z" />
    <glyph glyph-name="i" unicode="i" horiz-adv-x="231" 
d="M192 712c46 0 58 -14 49 -60l-1 -9c-8 -46 -25 -61 -71 -61h-8c-45 0 -58 15 -49 61l1 9c9 46 26 60 72 60h7zM181 518c23 0 29 -7 25 -30l-80 -457c-4 -23 -13 -31 -36 -31h-55c-23 0 -29 8 -25 31l80 457c4 23 14 30 37 30h54z" />
    <glyph glyph-name="dotlessi" unicode="&#x131;" horiz-adv-x="231" 
d="M181 518c23 0 29 -7 25 -30l-80 -457c-4 -23 -13 -31 -36 -31h-55c-23 0 -29 8 -25 31l80 457c4 23 14 30 37 30h54z" />
    <glyph glyph-name="iacute" unicode="&#xed;" horiz-adv-x="231" 
d="M213 728c21 13 44 18 56 -1l20 -32c12 -18 11 -26 -11 -34l-163 -73c-21 -9 -32 -10 -39 1l-11 19c-10 16 -8 23 8 32zM181 518c23 0 29 -7 25 -30l-80 -457c-4 -23 -13 -31 -36 -31h-55c-23 0 -29 8 -25 31l80 457c4 23 14 30 37 30h54z" />
    <glyph glyph-name="ibreve" unicode="&#x12d;" horiz-adv-x="231" 
d="M317 714c13 -6 16 -12 8 -28c-32 -64 -82 -102 -156 -102c-72 0 -117 38 -126 102c-2 16 2 23 19 28l42 16c18 5 25 3 29 -11c4 -35 18 -50 48 -50c29 0 49 15 65 50c8 14 15 16 28 11zM181 518c23 0 29 -7 25 -30l-80 -457c-4 -23 -13 -31 -36 -31h-55
c-23 0 -29 8 -25 31l80 457c4 23 14 30 37 30h54z" />
    <glyph glyph-name="icircumflex" unicode="&#xee;" horiz-adv-x="231" 
d="M307 608c9 -13 7 -25 -19 -25h-40c-25 0 -33 6 -41 22l-29 45l-52 -50c-16 -17 -25 -17 -49 -17h-45c-25 0 -24 12 -10 25l97 94c26 26 35 26 63 26h11c24 0 33 0 50 -26zM181 518c23 0 29 -7 25 -30l-80 -457c-4 -23 -13 -31 -36 -31h-55c-23 0 -29 8 -25 31l80 457
c4 23 14 30 37 30h54z" />
    <glyph glyph-name="idieresis" unicode="&#xef;" horiz-adv-x="231" 
d="M105 712c40 0 50 -13 43 -52l-2 -9c-7 -39 -21 -52 -61 -52h-7c-40 0 -50 13 -43 52l2 9c6 39 21 52 61 52h7zM277 712c40 0 50 -13 43 -52l-2 -9c-7 -39 -21 -52 -61 -52h-7c-40 0 -51 13 -44 52l2 9c7 39 22 52 62 52h7zM181 518c23 0 29 -7 25 -30l-80 -457
c-4 -23 -13 -31 -36 -31h-55c-23 0 -29 8 -25 31l80 457c4 23 14 30 37 30h54z" />
    <glyph glyph-name="igrave" unicode="&#xec;" horiz-adv-x="231" 
d="M103 725c20 20 38 18 54 5l108 -93c12 -11 12 -17 -4 -33l-14 -15c-10 -11 -21 -10 -39 -1l-134 76c-18 9 -16 16 2 34zM181 518c23 0 29 -7 25 -30l-80 -457c-4 -23 -13 -31 -36 -31h-55c-23 0 -29 8 -25 31l80 457c4 23 14 30 37 30h54z" />
    <glyph glyph-name="ij" unicode="&#x133;" horiz-adv-x="473" 
d="M192 712c46 0 58 -14 49 -60l-1 -9c-8 -46 -25 -61 -71 -61h-8c-45 0 -58 15 -49 61l1 9c9 46 26 60 72 60h7zM433 712c46 0 58 -14 49 -60l-1 -9c-8 -46 -25 -61 -71 -61h-8c-45 0 -58 15 -49 61l1 9c9 46 26 60 72 60h7zM181 518c23 0 29 -7 25 -30l-80 -457
c-4 -23 -13 -31 -36 -31h-55c-23 0 -29 8 -25 31l80 457c4 23 14 30 37 30h54zM422 518c23 0 29 -7 25 -30l-87 -495c-25 -141 -109 -223 -267 -223c-24 0 -31 8 -27 32l8 44c4 24 14 32 38 32c84 0 120 44 133 118l86 492c4 23 14 30 38 30h53z" />
    <glyph glyph-name="imacron" unicode="&#x12b;" horiz-adv-x="231" 
d="M264 689c15 0 17 -5 13 -27l-4 -25c-4 -22 -8 -28 -23 -28h-170c-15 0 -18 6 -14 28l4 25c4 22 10 27 23 27h171zM181 518c23 0 29 -7 25 -30l-80 -457c-4 -23 -13 -31 -36 -31h-55c-23 0 -29 8 -25 31l80 457c4 23 14 30 37 30h54z" />
    <glyph glyph-name="iogonek" unicode="&#x12f;" horiz-adv-x="231" 
d="M161 582c-45 0 -58 15 -49 61l1 9c9 46 26 60 72 60h7c46 0 58 -14 49 -60l-1 -9c-8 -46 -25 -61 -71 -61h-8zM118 -188c2 -9 1 -15 -5 -21c-28 -25 -61 -36 -94 -36c-45 0 -76 16 -79 64c-3 55 38 121 93 181c-21 0 -27 9 -23 31l80 457c4 23 14 30 37 30h54
c23 0 29 -7 25 -30l-80 -457c-2 -11 -5 -19 -11 -24c-50 -64 -67 -114 -67 -143c0 -15 7 -24 22 -24c7 0 14 0 23 9c9 5 16 3 19 -5z" />
    <glyph glyph-name="itilde" unicode="&#x129;" horiz-adv-x="231" 
d="M304 730c12 0 14 -6 12 -19c-15 -86 -51 -110 -97 -110c-47 0 -50 50 -83 50c-12 0 -28 -4 -33 -32c-2 -13 -7 -20 -18 -20h-40c-11 0 -15 7 -12 20c15 86 53 111 97 111c55 0 58 -55 92 -55c12 0 23 8 27 36c3 13 7 19 19 19h36zM181 518c23 0 29 -7 25 -30l-80 -457
c-4 -23 -13 -31 -36 -31h-55c-23 0 -29 8 -25 31l80 457c4 23 14 30 37 30h54z" />
    <glyph glyph-name="j" unicode="j" horiz-adv-x="232" 
d="M192 712c46 0 58 -14 49 -60l-1 -9c-8 -46 -25 -61 -71 -61h-8c-45 0 -58 15 -49 61l1 9c9 46 26 60 72 60h7zM181 518c23 0 29 -7 25 -30l-87 -495c-25 -141 -109 -223 -267 -223c-24 0 -31 8 -27 32l8 44c4 24 14 32 38 32c84 0 120 44 133 118l86 492
c4 23 14 30 38 30h53z" />
    <glyph glyph-name="dotlessj" unicode="&#x237;" horiz-adv-x="233" 
d="M181 518c24 0 30 -7 26 -30l-87 -495c-25 -141 -109 -223 -267 -223c-24 0 -31 8 -27 32l8 44c4 24 14 32 38 32c84 0 120 44 133 118l86 492c4 23 14 30 38 30h52z" />
    <glyph glyph-name="jcircumflex" unicode="&#x135;" horiz-adv-x="231" 
d="M195 728c24 0 30 -1 50 -26l78 -96c9 -13 7 -24 -19 -24h-38c-25 0 -35 1 -45 16l-42 57l-64 -57c-18 -15 -25 -16 -49 -16h-46c-25 0 -24 11 -10 24l111 96c29 24 35 26 63 26h11zM181 518c23 0 29 -7 25 -30l-87 -495c-25 -141 -109 -223 -267 -223c-24 0 -31 8 -27 32
l8 44c4 24 14 32 38 32c84 0 120 44 133 118l86 492c4 23 14 30 38 30h53z" />
    <glyph glyph-name="k" unicode="k" horiz-adv-x="521" 
d="M452 37c9 -27 3 -37 -26 -37h-49c-35 0 -41 4 -49 28l-39 138c-9 35 -28 49 -70 49h-60l-33 -183c-4 -24 -13 -32 -38 -32h-51c-25 0 -31 8 -27 32l119 676c5 24 14 32 39 32h51c25 0 31 -8 26 -32l-68 -390h44h7l167 177c21 23 30 23 64 23h50c30 0 35 -13 12 -36
l-183 -188c28 -15 44 -41 57 -82z" />
    <glyph glyph-name="kcommaaccent" unicode="&#x137;" horiz-adv-x="521" 
d="M452 37c9 -27 3 -37 -26 -37h-49c-35 0 -41 4 -49 28l-39 138c-9 35 -28 49 -70 49h-60l-33 -183c-4 -24 -13 -32 -38 -32h-51c-25 0 -31 8 -27 32l119 676c5 24 14 32 39 32h51c25 0 31 -8 26 -32l-68 -390h44h7l167 177c21 23 30 23 64 23h50c30 0 35 -13 12 -36
l-183 -188c28 -15 44 -41 57 -82zM212 -201c-12 -22 -20 -29 -43 -29h-30c-20 0 -23 6 -19 24l39 120c8 28 19 36 47 36h43c29 0 33 -12 20 -36z" />
    <glyph glyph-name="kgreenlandic" unicode="&#x138;" horiz-adv-x="528" 
d="M412 37c9 -23 1 -37 -33 -37h-48c-35 0 -44 3 -51 25l-69 173l-78 -67l-30 -99c-8 -24 -19 -32 -44 -32h-51c-25 0 -29 8 -21 32l145 455c8 24 19 31 44 31h51c25 0 29 -7 21 -31l-58 -187l232 195c25 22 35 23 69 23h50c32 0 34 -13 6 -36l-236 -200z" />
    <glyph glyph-name="l" unicode="l" horiz-adv-x="236" 
d="M129 31c-5 -23 -14 -31 -37 -31h-54c-24 0 -30 8 -25 31l119 678c4 23 13 31 37 31h54c23 0 29 -8 25 -31z" />
    <glyph glyph-name="lacute" unicode="&#x13a;" horiz-adv-x="236" 
d="M250 916c22 11 39 15 52 -5l22 -36c11 -19 10 -28 -10 -35l-165 -60c-20 -7 -32 -10 -39 2l-13 23c-9 16 -8 24 8 33zM129 31c-5 -23 -14 -31 -37 -31h-54c-24 0 -30 8 -25 31l119 678c4 23 13 31 37 31h54c23 0 29 -8 25 -31z" />
    <glyph glyph-name="lcaron" unicode="&#x13e;" horiz-adv-x="244" 
d="M129 31c-5 -23 -14 -31 -37 -31h-54c-24 0 -30 8 -25 31l119 678c4 23 13 31 37 31h54c23 0 29 -8 25 -31zM361 563c-10 -18 -14 -27 -35 -27h-27c-18 0 -23 10 -17 27l47 145c7 21 11 32 36 32h40c27 0 38 -11 27 -32z" />
    <glyph glyph-name="lcommaaccent" unicode="&#x13c;" horiz-adv-x="236" 
d="M128 31c-4 -23 -14 -31 -37 -31h-54c-23 0 -29 8 -25 31l119 678c4 23 14 31 37 31h54c23 0 29 -8 25 -31zM44 -206c-11 -22 -21 -28 -44 -28h-30c-20 0 -22 5 -17 23l43 131c8 28 19 36 46 36h43c29 0 33 -12 21 -36z" />
    <glyph glyph-name="ldot" unicode="&#x140;" horiz-adv-x="380" 
d="M129 31c-5 -23 -14 -31 -37 -31h-54c-24 0 -30 8 -25 31l119 678c4 23 13 31 37 31h54c23 0 29 -8 25 -31zM337 445c48 0 60 -16 52 -64l-2 -9c-8 -49 -27 -64 -75 -64h-7c-49 0 -62 15 -53 64l2 9c8 48 27 64 75 64h8z" />
    <glyph glyph-name="lslash" unicode="&#x142;" horiz-adv-x="332" 
d="M346 438c6 -13 1 -23 -13 -30l-102 -51l-57 -326c-5 -23 -14 -31 -37 -31h-55c-23 0 -29 8 -24 31l46 263l-47 -24c-20 -9 -28 -6 -33 8l-14 34c-5 14 1 24 14 30l97 49l55 318c5 23 14 31 37 31h55c23 0 29 -8 25 -31l-45 -256l52 27c20 9 26 5 33 -8z" />
    <glyph glyph-name="m" unicode="m" horiz-adv-x="826" 
d="M435 499c37 13 96 34 182 34c136 0 182 -81 160 -207l-52 -295c-4 -23 -13 -31 -36 -31h-55c-23 0 -29 8 -25 31l53 299c12 64 -13 97 -80 97c-40 0 -76 -10 -100 -18c3 -21 2 -47 -3 -75l-53 -303c-4 -23 -14 -31 -37 -31h-54c-23 0 -29 8 -25 31l52 299
c13 71 -16 97 -80 97c-32 0 -57 -4 -83 -12c-7 -3 -8 -7 -10 -12l-65 -372c-4 -23 -13 -31 -36 -31h-55c-23 0 -29 8 -25 31l72 411c6 32 15 44 49 57c42 16 100 34 187 34c53 0 93 -12 119 -34z" />
    <glyph glyph-name="n" unicode="n" 
d="M129 499c43 16 106 34 202 34c143 0 194 -83 172 -210l-51 -292c-5 -23 -14 -31 -37 -31h-55c-23 0 -29 8 -24 31l52 298c12 66 -18 98 -91 98c-39 0 -72 -6 -99 -13c-5 -2 -7 -6 -9 -10l-65 -373c-4 -23 -13 -31 -36 -31h-55c-23 0 -29 8 -25 31l72 411
c6 32 15 44 49 57z" />
    <glyph glyph-name="nacute" unicode="&#x144;" 
d="M378 729c22 11 44 17 57 -2l19 -32c12 -18 11 -26 -10 -34l-187 -73c-20 -7 -31 -10 -38 2l-11 18c-10 16 -9 24 8 32zM129 499c43 16 106 34 202 34c143 0 194 -83 172 -210l-51 -292c-5 -23 -14 -31 -37 -31h-55c-23 0 -29 8 -24 31l52 298c12 66 -18 98 -91 98
c-39 0 -72 -6 -99 -13c-5 -2 -7 -6 -9 -10l-65 -373c-4 -23 -13 -31 -36 -31h-55c-23 0 -29 8 -25 31l72 411c6 32 15 44 49 57z" />
    <glyph glyph-name="napostrophe" unicode="&#x149;" 
d="M112 560c-12 -17 -16 -21 -36 -21h-33c-17 0 -22 6 -15 21l75 153c10 19 12 27 36 27h56c27 0 32 -14 20 -32zM129 499c43 16 106 34 202 34c143 0 194 -83 172 -210l-51 -292c-5 -23 -14 -31 -37 -31h-55c-23 0 -29 8 -24 31l52 298c12 66 -18 98 -91 98
c-39 0 -72 -6 -99 -13c-5 -2 -7 -6 -9 -10l-65 -373c-4 -23 -13 -31 -36 -31h-55c-23 0 -29 8 -25 31l72 411c6 32 15 44 49 57z" />
    <glyph glyph-name="ncaron" unicode="&#x148;" 
d="M174 706c-11 13 -7 25 18 25h40c25 0 32 -1 44 -17l50 -58l68 58c17 15 27 17 53 17h46c26 0 24 -12 10 -25l-119 -98c-29 -26 -36 -27 -59 -27h-12c-29 0 -35 2 -55 27zM331 533c143 0 194 -83 172 -210l-51 -292c-5 -23 -14 -31 -37 -31h-55c-23 0 -29 8 -24 31l52 298
c12 66 -18 98 -91 98c-39 0 -72 -6 -99 -13c-5 -2 -7 -6 -9 -10l-65 -373c-4 -23 -13 -31 -36 -31h-55c-23 0 -29 8 -25 31l72 411c6 32 15 44 49 57c43 16 106 34 202 34z" />
    <glyph glyph-name="ncommaaccent" unicode="&#x146;" 
d="M129 499c43 16 106 34 202 34c143 0 194 -83 172 -210l-51 -292c-5 -23 -14 -31 -37 -31h-55c-23 0 -29 8 -24 31l52 298c12 66 -18 98 -91 98c-39 0 -72 -6 -99 -13c-5 -2 -7 -6 -9 -10l-65 -373c-4 -23 -13 -31 -36 -31h-55c-23 0 -29 8 -25 31l72 411
c6 32 15 44 49 57zM221 -191c-11 -22 -21 -28 -44 -28h-30c-20 0 -22 5 -17 23l39 121c9 28 19 36 46 36h44c29 0 33 -12 20 -36z" />
    <glyph glyph-name="eng" unicode="&#x14b;" 
d="M129 499c43 16 106 34 202 34c143 0 194 -83 172 -210l-60 -340c-23 -134 -111 -213 -263 -213c-22 0 -29 7 -24 30l7 43c4 23 13 30 35 30c81 0 117 43 130 114l60 342c12 66 -18 98 -91 98c-39 0 -72 -6 -99 -13c-5 -2 -7 -6 -9 -10l-65 -373c-4 -23 -13 -31 -36 -31
h-55c-23 0 -29 8 -25 31l72 411c6 32 15 44 49 57z" />
    <glyph glyph-name="ntilde" unicode="&#xf1;" 
d="M473 724c15 0 19 -6 16 -19c-14 -82 -45 -112 -103 -112c-64 0 -78 58 -120 58c-15 0 -25 -12 -30 -38c-3 -13 -9 -20 -22 -20h-32c-14 0 -19 7 -16 20c14 82 48 111 102 111c68 0 80 -57 122 -57c16 0 25 12 30 38c2 13 7 19 22 19h31zM129 499c43 16 106 34 202 34
c143 0 194 -83 172 -210l-51 -292c-5 -23 -14 -31 -37 -31h-55c-23 0 -29 8 -24 31l52 298c12 66 -18 98 -91 98c-39 0 -72 -6 -99 -13c-5 -2 -7 -6 -9 -10l-65 -373c-4 -23 -13 -31 -36 -31h-55c-23 0 -29 8 -25 31l72 411c6 32 15 44 49 57z" />
    <glyph glyph-name="o" unicode="o" horiz-adv-x="543" 
d="M47 336c22 124 116 197 264 197c150 0 217 -82 196 -206l-26 -148c-22 -124 -113 -194 -263 -194c-148 0 -218 79 -197 203zM392 333c11 61 -24 95 -98 95c-73 0 -120 -34 -131 -95l-26 -148c-11 -60 24 -95 97 -95c74 0 121 35 132 95z" />
    <glyph glyph-name="oacute" unicode="&#xf3;" horiz-adv-x="543" 
d="M380 728c23 12 44 18 57 -1l20 -32c12 -18 11 -27 -11 -34l-186 -73c-21 -8 -32 -10 -39 1l-11 19c-10 16 -9 24 8 32zM47 336c22 124 116 197 264 197c150 0 217 -82 196 -206l-26 -148c-22 -124 -113 -194 -263 -194c-148 0 -218 79 -197 203zM392 333
c11 61 -24 95 -98 95c-73 0 -120 -34 -131 -95l-26 -148c-11 -60 24 -95 97 -95c74 0 121 35 132 95z" />
    <glyph glyph-name="obreve" unicode="&#x14f;" horiz-adv-x="543" 
d="M495 686c-34 -65 -94 -102 -169 -102s-130 37 -140 102c-3 16 1 23 19 29l38 13c18 6 25 4 29 -10c5 -34 30 -51 64 -51s62 19 80 53c8 13 15 15 28 11l43 -16c13 -7 16 -13 8 -29zM47 336c22 124 116 197 264 197c150 0 217 -82 196 -206l-26 -148
c-22 -124 -113 -194 -263 -194c-148 0 -218 79 -197 203zM392 333c11 61 -24 95 -98 95c-73 0 -120 -34 -131 -95l-26 -148c-11 -60 24 -95 97 -95c74 0 121 35 132 95z" />
    <glyph glyph-name="ocircumflex" unicode="&#xf4;" horiz-adv-x="543" 
d="M172 583c-26 0 -24 12 -11 25l120 98c28 25 34 26 63 26h13c23 0 30 0 51 -26l83 -98c11 -13 7 -25 -18 -25h-40c-25 0 -35 2 -46 17l-47 58l-70 -58c-19 -16 -25 -17 -50 -17h-48zM311 533c150 0 217 -82 196 -206l-26 -148c-22 -124 -113 -194 -263 -194
c-148 0 -218 79 -197 203l26 148c22 124 116 197 264 197zM392 333c11 61 -24 95 -98 95c-73 0 -120 -34 -131 -95l-26 -148c-11 -60 24 -95 97 -95c74 0 121 35 132 95z" />
    <glyph glyph-name="odieresis" unicode="&#xf6;" horiz-adv-x="543" 
d="M247 709c40 0 50 -13 43 -52l-2 -9c-7 -39 -21 -52 -61 -52h-7c-40 0 -51 13 -43 52l1 9c7 39 22 52 62 52h7zM447 709c40 0 50 -13 43 -52l-2 -9c-7 -39 -21 -52 -61 -52h-7c-40 0 -51 13 -44 52l2 9c7 39 22 52 62 52h7zM47 336c22 124 116 197 264 197
c150 0 217 -82 196 -206l-26 -148c-22 -124 -113 -194 -263 -194c-148 0 -218 79 -197 203zM392 333c11 61 -24 95 -98 95c-73 0 -120 -34 -131 -95l-26 -148c-11 -60 24 -95 97 -95c74 0 121 35 132 95z" />
    <glyph glyph-name="ograve" unicode="&#xf2;" horiz-adv-x="543" 
d="M260 727c20 19 40 13 57 1l131 -88c14 -9 12 -16 -4 -33l-17 -17c-10 -12 -21 -9 -38 -2l-162 73c-18 8 -15 16 2 34zM47 336c22 124 116 197 264 197c150 0 217 -82 196 -206l-26 -148c-22 -124 -113 -194 -263 -194c-148 0 -218 79 -197 203zM392 333
c11 61 -24 95 -98 95c-73 0 -120 -34 -131 -95l-26 -148c-11 -60 24 -95 97 -95c74 0 121 35 132 95z" />
    <glyph glyph-name="ohungarumlaut" unicode="&#x151;" horiz-adv-x="543" 
d="M184 585c-18 6 -16 16 -4 31l86 94c16 19 32 27 55 20l33 -11c21 -8 20 -19 3 -35l-118 -92c-18 -13 -26 -18 -38 -12zM526 718c21 -7 22 -20 4 -34l-129 -95c-17 -14 -26 -19 -38 -13l-16 5c-20 6 -18 17 -5 31l94 98c16 18 32 27 55 20zM311 533
c150 0 217 -82 196 -206l-26 -148c-22 -124 -113 -194 -263 -194c-148 0 -218 79 -197 203l26 148c22 124 116 197 264 197zM392 333c11 61 -24 95 -98 95c-73 0 -120 -34 -131 -95l-26 -148c-11 -60 24 -95 97 -95c74 0 121 35 132 95z" />
    <glyph glyph-name="omacron" unicode="&#x14d;" horiz-adv-x="543" 
d="M210 612c-23 0 -27 6 -24 29l4 25c5 23 14 29 35 29h231c23 0 28 -6 24 -29l-4 -25c-4 -23 -11 -29 -34 -29h-232zM311 533c150 0 217 -82 196 -206l-26 -148c-22 -124 -113 -194 -263 -194c-148 0 -218 79 -197 203l26 148c22 124 116 197 264 197zM392 333
c11 61 -24 95 -98 95c-73 0 -120 -34 -131 -95l-26 -148c-11 -60 24 -95 97 -95c74 0 121 35 132 95z" />
    <glyph glyph-name="oslash" unicode="&#xf8;" horiz-adv-x="543" 
d="M529 552c8 0 9 -4 4 -11l-57 -69c31 -35 41 -86 31 -145l-26 -148c-22 -124 -113 -194 -263 -194c-47 0 -86 8 -116 23l-28 -33c-8 -9 -9 -10 -23 -10h-45c-7 0 -8 5 -3 11l52 64c-32 36 -45 86 -34 148l26 148c22 124 115 197 264 197c50 0 91 -9 122 -26l29 35
c7 9 10 10 21 10h46zM358 415c-16 9 -38 13 -64 13c-73 0 -120 -34 -131 -95l-26 -148c-3 -15 -1 -29 3 -39zM176 101c15 -7 34 -11 58 -11c74 0 121 35 132 95l25 144c2 11 1 23 -3 33z" />
    <glyph glyph-name="oslashacute" unicode="&#x1ff;" horiz-adv-x="543" 
d="M384 728c22 12 43 18 56 -1l20 -32c12 -18 11 -27 -11 -34l-186 -73c-21 -8 -32 -10 -39 1l-10 19c-11 16 -10 24 7 32zM529 552c8 0 9 -4 4 -11l-57 -69c31 -35 41 -86 31 -145l-26 -148c-22 -124 -113 -194 -263 -194c-47 0 -86 8 -116 23l-28 -33
c-8 -9 -9 -10 -23 -10h-45c-7 0 -8 5 -3 11l52 64c-32 36 -45 86 -34 148l26 148c22 124 115 197 264 197c50 0 91 -9 122 -26l29 35c7 9 10 10 21 10h46zM358 415c-16 9 -38 13 -64 13c-73 0 -120 -34 -131 -95l-26 -148c-3 -15 -1 -29 3 -39zM176 101c15 -7 34 -11 58 -11
c74 0 121 35 132 95l25 144c2 11 1 23 -3 33z" />
    <glyph glyph-name="otilde" unicode="&#xf5;" horiz-adv-x="543" 
d="M476 724c15 0 18 -6 15 -19c-14 -82 -45 -112 -103 -112c-64 0 -77 57 -120 57c-15 0 -25 -11 -30 -38c-2 -13 -8 -19 -21 -19h-33c-14 0 -18 6 -16 19c14 83 48 112 102 112c69 0 81 -57 122 -57c16 0 26 11 30 38c3 13 7 19 22 19h32zM47 336c22 124 116 197 264 197
c150 0 217 -82 196 -206l-26 -148c-22 -124 -113 -194 -263 -194c-148 0 -218 79 -197 203zM392 333c11 61 -24 95 -98 95c-73 0 -120 -34 -131 -95l-26 -148c-11 -60 24 -95 97 -95c74 0 121 35 132 95z" />
    <glyph glyph-name="oe" unicode="&#x153;" horiz-adv-x="809" 
d="M446 462c41 45 94 71 165 71c132 0 198 -63 177 -176c-19 -97 -98 -149 -229 -149c-36 0 -73 5 -109 12l-6 -35c-11 -64 18 -100 84 -100c53 0 90 20 115 52c17 22 28 27 48 12l31 -21c17 -13 18 -28 1 -50c-42 -59 -110 -93 -213 -93c-63 0 -113 21 -139 59
c-44 -41 -97 -59 -168 -59c-140 0 -202 83 -180 207l26 149c22 124 109 192 250 192c74 0 125 -27 147 -71zM673 361c10 48 -13 74 -79 74s-112 -36 -124 -102l-4 -24c37 -7 74 -12 109 -12c62 0 90 22 98 64zM363 321c12 70 -17 107 -82 107c-66 0 -106 -34 -117 -95
l-26 -148c-11 -60 18 -95 83 -95s108 39 120 106z" />
    <glyph glyph-name="p" unicode="p" horiz-adv-x="541" 
d="M131 504c43 15 105 29 199 29c144 0 197 -81 174 -210l-25 -136c-23 -135 -106 -202 -257 -202c-41 0 -77 11 -102 18l-34 -192c-4 -23 -14 -31 -37 -31h-54c-23 0 -29 8 -25 31l112 636c6 32 15 44 49 57zM389 328c11 65 -22 99 -94 99c-38 0 -67 -4 -93 -11
c-9 -3 -10 -6 -12 -13l-52 -297c22 -6 55 -15 93 -15c79 0 121 35 135 107z" />
    <glyph glyph-name="thorn" unicode="&#xfe;" horiz-adv-x="544" 
d="M130 708c4 23 13 31 36 31h55c23 0 29 -8 25 -31l-33 -189c29 6 70 13 119 13c144 0 197 -79 174 -207l-24 -136c-23 -135 -107 -204 -258 -204c-41 0 -77 11 -102 18l-34 -192c-4 -23 -13 -31 -36 -31h-55c-23 0 -29 8 -25 31zM390 326c12 65 -21 100 -93 100
c-42 0 -78 -9 -103 -15l-53 -305c21 -6 54 -15 92 -15c80 0 122 35 135 106z" />
    <glyph glyph-name="q" unicode="q" horiz-adv-x="541" 
d="M307 533c81 0 144 -15 176 -31c29 -15 33 -23 27 -55l-112 -636c-4 -23 -14 -31 -37 -31h-54c-23 0 -29 8 -25 31l34 193c-31 -8 -75 -19 -123 -19c-142 0 -194 82 -171 208l24 137c24 137 108 203 261 203zM137 189c-11 -63 20 -98 91 -98c42 0 80 9 106 15l52 297
c2 7 0 10 -8 13c-23 7 -47 11 -81 11c-80 0 -124 -34 -137 -108z" />
    <glyph glyph-name="r" unicode="r" horiz-adv-x="353" 
d="M321 533h33c23 0 30 -7 26 -31l-8 -44c-4 -23 -13 -31 -36 -31h-36c-39 0 -70 -4 -98 -12c-9 -2 -10 -7 -12 -12l-65 -372c-4 -23 -14 -31 -37 -31h-54c-23 0 -29 8 -25 31l73 415c6 32 15 44 48 57c40 14 102 28 191 30z" />
    <glyph glyph-name="racute" unicode="&#x155;" horiz-adv-x="352" 
d="M316 728c23 12 44 18 57 -1l19 -32c13 -18 12 -27 -10 -34l-186 -73c-21 -8 -32 -10 -39 1l-11 19c-10 16 -9 24 8 32zM320 533h33c23 0 30 -7 26 -31l-8 -44c-4 -23 -13 -31 -36 -31h-36c-39 0 -70 -4 -98 -12c-9 -2 -10 -7 -12 -12l-65 -372c-4 -23 -13 -31 -36 -31
h-55c-23 0 -29 8 -25 31l73 415c6 32 15 44 49 57c39 14 101 28 190 30z" />
    <glyph glyph-name="rcaron" unicode="&#x159;" horiz-adv-x="352" 
d="M431 731c26 0 24 -12 10 -25l-119 -98c-29 -26 -36 -27 -59 -27h-12c-29 0 -35 2 -55 27l-84 98c-10 13 -7 25 19 25h40c24 0 31 -1 43 -17l51 -58l67 58c17 15 28 17 53 17h46zM353 533c23 0 30 -7 26 -31l-8 -44c-4 -23 -13 -31 -36 -31h-36c-39 0 -70 -4 -98 -12
c-9 -2 -10 -7 -12 -12l-65 -372c-4 -23 -13 -31 -36 -31h-55c-23 0 -29 8 -25 31l73 415c6 32 15 44 49 57c39 14 101 28 190 30h33z" />
    <glyph glyph-name="rcommaaccent" unicode="&#x157;" horiz-adv-x="352" 
d="M320 533h32c23 0 30 -7 26 -31l-8 -44c-4 -23 -13 -31 -36 -31h-36c-39 0 -70 -4 -98 -12c-8 -2 -10 -7 -11 -12l-66 -372c-4 -23 -13 -31 -36 -31h-55c-23 0 -29 8 -25 31l73 415c6 32 15 44 49 57c40 14 101 28 191 30zM50 -197c-10 -22 -20 -28 -43 -28h-30
c-20 0 -23 5 -18 23l39 126c8 29 19 36 46 36h44c29 0 33 -12 21 -36z" />
    <glyph glyph-name="s" unicode="s" horiz-adv-x="502" 
d="M51 379c17 96 95 154 233 154c116 0 171 -42 193 -107c7 -23 1 -35 -22 -45l-44 -17c-24 -9 -30 -6 -40 15c-12 28 -38 50 -102 50c-65 0 -97 -18 -104 -54c-8 -47 30 -55 106 -62c112 -12 196 -48 174 -169c-17 -99 -101 -159 -243 -159c-118 0 -186 43 -203 121
c-4 21 5 34 28 42l48 14c22 7 28 3 37 -19c14 -43 50 -55 104 -55c70 0 109 20 116 59c8 47 -29 56 -109 64c-96 10 -195 38 -172 168z" />
    <glyph glyph-name="sacute" unicode="&#x15b;" horiz-adv-x="502" 
d="M361 729c22 11 43 17 56 -2l20 -32c12 -18 11 -26 -10 -34l-187 -73c-21 -7 -32 -10 -39 2l-10 18c-11 16 -10 24 8 32zM51 379c17 96 95 154 233 154c116 0 171 -42 193 -107c7 -23 1 -35 -22 -45l-44 -17c-24 -9 -30 -6 -40 15c-12 28 -38 50 -102 50
c-65 0 -97 -18 -104 -54c-8 -47 30 -55 106 -62c112 -12 196 -48 174 -169c-17 -99 -101 -159 -243 -159c-118 0 -186 43 -203 121c-4 21 5 34 28 42l48 14c22 7 28 3 37 -19c14 -43 50 -55 104 -55c70 0 109 20 116 59c8 47 -29 56 -109 64c-96 10 -195 38 -172 168z" />
    <glyph glyph-name="scaron" unicode="&#x161;" horiz-adv-x="502" 
d="M476 731c26 0 24 -12 10 -25l-119 -98c-30 -26 -36 -27 -60 -27h-11c-30 0 -35 2 -56 27l-84 98c-10 13 -7 25 19 25h40c25 0 32 -1 44 -17l50 -58l68 58c17 15 27 17 52 17h47zM284 533c116 0 171 -42 193 -107c7 -23 1 -35 -22 -45l-44 -17c-24 -9 -30 -6 -40 15
c-12 28 -38 50 -102 50c-65 0 -97 -18 -104 -54c-8 -47 30 -55 106 -62c112 -12 196 -48 174 -169c-17 -99 -101 -159 -243 -159c-118 0 -186 43 -203 121c-4 21 5 34 28 42l48 14c22 7 28 3 37 -19c14 -43 50 -55 104 -55c70 0 109 20 116 59c8 47 -29 56 -109 64
c-96 10 -195 38 -172 168c17 96 95 154 233 154z" />
    <glyph glyph-name="scedilla" unicode="&#x15f;" horiz-adv-x="502" 
d="M51 379c17 96 95 154 233 154c116 0 171 -42 193 -107c7 -23 1 -35 -22 -45l-44 -17c-24 -9 -30 -6 -40 15c-12 28 -38 50 -102 50c-65 0 -97 -18 -104 -54c-8 -47 30 -55 106 -62c112 -12 196 -48 174 -169c-15 -86 -80 -142 -192 -155l-30 -55c3 1 7 1 11 1
c62 0 87 -40 73 -91c-19 -69 -86 -93 -150 -93c-33 0 -57 8 -71 17c-12 6 -15 12 -12 27l5 31c1 9 6 18 17 12c16 -9 27 -17 58 -17c35 0 54 14 58 35c4 20 -10 30 -41 30c-8 0 -17 0 -25 -1c-17 0 -20 7 -10 24l46 77c-105 4 -167 46 -183 120c-4 21 5 34 28 42l48 14
c22 7 28 3 37 -19c14 -43 50 -55 104 -55c70 0 109 20 116 59c8 47 -29 56 -109 64c-96 10 -195 38 -172 168z" />
    <glyph glyph-name="scircumflex" unicode="&#x15d;" horiz-adv-x="502" 
d="M152 583c-26 0 -24 12 -10 25l119 98c29 25 35 27 64 27h12c23 0 30 -1 51 -27l84 -98c10 -13 7 -25 -19 -25h-40c-25 0 -35 2 -45 17l-48 58l-69 -58c-19 -16 -26 -17 -51 -17h-48zM477 426c7 -23 1 -35 -22 -45l-44 -17c-24 -9 -30 -6 -40 15c-12 28 -38 50 -102 50
c-65 0 -97 -18 -104 -54c-8 -47 30 -55 106 -62c112 -12 196 -48 174 -169c-17 -99 -101 -159 -243 -159c-118 0 -186 43 -203 121c-4 21 5 34 28 42l48 14c22 7 28 3 37 -19c14 -43 50 -55 104 -55c70 0 109 20 116 59c8 47 -29 56 -109 64c-96 10 -195 38 -172 168
c17 96 95 154 233 154c116 0 171 -42 193 -107z" />
    <glyph glyph-name="scommaaccent" unicode="&#x219;" horiz-adv-x="502" 
d="M51 379c17 96 95 154 233 154c116 0 171 -42 193 -107c7 -23 1 -35 -22 -45l-44 -17c-24 -9 -30 -6 -40 15c-12 28 -38 50 -102 50c-65 0 -97 -18 -104 -54c-8 -47 30 -55 106 -62c112 -12 196 -48 174 -169c-17 -99 -101 -159 -243 -159c-118 0 -186 43 -203 121
c-4 21 5 34 28 42l48 14c22 7 28 3 37 -19c14 -43 50 -55 104 -55c70 0 109 20 116 59c8 47 -29 56 -109 64c-96 10 -195 38 -172 168zM204 -204c-12 -22 -20 -29 -43 -29h-30c-20 0 -23 6 -18 24l38 119c8 28 19 36 47 36h43c29 0 33 -12 20 -36z" />
    <glyph glyph-name="germandbls" unicode="&#xdf;" horiz-adv-x="551" 
d="M99 533c23 129 111 217 251 217c145 0 203 -90 181 -215c-12 -65 -40 -112 -99 -144v-3c55 -23 87 -74 69 -182c-24 -133 -117 -206 -252 -206h-52c-25 0 -32 9 -28 34l9 49c5 25 14 34 40 34h39c64 0 106 36 119 104c10 63 -18 103 -80 103h-41c-25 0 -32 8 -28 34l8 45
c5 26 15 34 41 34h29c56 0 94 40 103 96c12 65 -16 100 -79 100c-62 0 -104 -41 -116 -104l-87 -495c-4 -25 -14 -34 -40 -34h-47c-26 0 -33 9 -29 34z" />
    <glyph glyph-name="longs" unicode="&#x17f;" horiz-adv-x="292" 
d="M138 529c25 138 111 211 267 211c24 0 30 -8 25 -32l-7 -44c-5 -24 -14 -32 -38 -32c-84 0 -119 -38 -132 -113l-86 -488c-5 -23 -14 -31 -38 -31h-53c-24 0 -30 8 -25 31l67 380h-57c-23 0 -30 8 -26 31l8 46c4 23 13 30 36 30h57z" />
    <glyph glyph-name="t" unicode="t" horiz-adv-x="385" 
d="M251 638c23 0 29 -7 25 -30l-16 -90h115c23 0 29 -7 24 -30l-7 -46c-4 -23 -13 -31 -36 -31h-114l-36 -201c-17 -98 9 -115 93 -115c24 0 30 -7 26 -31l-8 -46c-5 -24 -13 -31 -37 -32c-166 -5 -222 47 -190 220l36 205h-69c-23 0 -30 8 -26 31l8 46c4 23 14 30 37 30h68
l16 90c4 23 13 30 36 30h55z" />
    <glyph glyph-name="tbar" unicode="&#x167;" horiz-adv-x="387" 
d="M252 639c23 0 30 -7 26 -31l-16 -89h114c23 0 29 -7 26 -31l-9 -46c-4 -23 -12 -30 -35 -30h-115l-18 -105h89c16 0 19 -5 16 -21l-6 -38c-4 -17 -9 -21 -24 -21h-90l-3 -19c-16 -96 9 -112 93 -112c24 0 31 -8 27 -31l-9 -47c-4 -23 -13 -30 -36 -31
c-167 -5 -221 47 -191 220l3 20h-60c-15 0 -19 4 -15 21l5 38c4 16 11 21 25 21h60l18 105h-68c-23 0 -30 7 -26 30l9 46c3 24 12 31 35 31h69l16 89c4 24 13 31 36 31h54z" />
    <glyph glyph-name="tcaron" unicode="&#x165;" horiz-adv-x="385" 
d="M408 585c-11 -20 -18 -28 -39 -28h-28c-17 0 -19 4 -15 21l36 130c6 25 17 32 42 32h48c27 0 33 -10 21 -32zM251 638c23 0 29 -7 25 -30l-16 -90h115c23 0 29 -7 24 -30l-7 -46c-4 -23 -13 -31 -36 -31h-114l-36 -201c-17 -98 9 -115 93 -115c24 0 30 -7 26 -31l-8 -46
c-5 -24 -13 -31 -37 -32c-166 -5 -222 47 -190 220l36 205h-69c-23 0 -30 8 -26 31l8 46c4 23 14 30 37 30h68l16 90c4 23 13 30 36 30h55z" />
    <glyph glyph-name="uni021B" unicode="&#x21b;" horiz-adv-x="385" 
d="M251 638c23 0 29 -7 25 -30l-16 -90h115c23 0 29 -7 24 -30l-7 -46c-4 -23 -13 -31 -36 -31h-114l-36 -201c-17 -98 9 -115 93 -115c24 0 30 -7 26 -31l-8 -46c-5 -24 -13 -31 -37 -32c-166 -5 -222 47 -190 220l36 205h-69c-23 0 -30 8 -26 31l8 46c4 23 14 30 37 30h68
l16 90c4 23 13 30 36 30h55zM156 -228c-11 -21 -20 -29 -41 -29h-37c-18 0 -21 5 -16 22l46 142c7 26 17 32 42 32h52c30 0 36 -11 24 -32z" />
    <glyph glyph-name="u" unicode="u" 
d="M505 518c23 0 29 -7 25 -30l-72 -412c-6 -31 -15 -43 -49 -56c-43 -16 -107 -35 -202 -35c-143 0 -194 83 -172 209l51 294c4 23 14 30 37 30h54c23 0 29 -7 25 -30l-52 -298c-12 -67 17 -99 91 -99c39 0 67 4 94 12c10 3 13 9 14 17l65 368c4 23 13 30 36 30h55z" />
    <glyph glyph-name="uacute" unicode="&#xfa;" 
d="M384 728c23 12 44 18 57 -1l20 -32c12 -18 11 -27 -11 -34l-186 -73c-21 -8 -32 -10 -39 1l-11 19c-10 16 -9 24 8 32zM505 518c23 0 29 -7 25 -30l-72 -412c-6 -31 -15 -43 -49 -56c-43 -16 -107 -35 -202 -35c-143 0 -194 83 -172 209l51 294c4 23 14 30 37 30h54
c23 0 29 -7 25 -30l-52 -298c-12 -67 17 -99 91 -99c39 0 67 4 94 12c10 3 13 9 14 17l65 368c4 23 13 30 36 30h55z" />
    <glyph glyph-name="ubreve" unicode="&#x16d;" 
d="M499 686c-34 -65 -94 -102 -169 -102s-130 37 -140 102c-3 16 1 23 19 29l38 13c18 6 25 4 29 -10c5 -34 30 -51 64 -51s62 19 80 53c8 13 15 15 28 11l43 -16c13 -7 16 -13 8 -29zM505 518c23 0 29 -7 25 -30l-72 -412c-6 -31 -15 -43 -49 -56
c-43 -16 -107 -35 -202 -35c-143 0 -194 83 -172 209l51 294c4 23 14 30 37 30h54c23 0 29 -7 25 -30l-52 -298c-12 -67 17 -99 91 -99c39 0 67 4 94 12c10 3 13 9 14 17l65 368c4 23 13 30 36 30h55z" />
    <glyph glyph-name="ucircumflex" unicode="&#xfb;" 
d="M361 732c23 0 30 0 51 -26l83 -98c11 -13 7 -25 -18 -25h-40c-25 0 -35 2 -46 17l-47 58l-70 -58c-19 -16 -25 -17 -50 -17h-48c-26 0 -24 12 -11 25l120 98c28 25 34 26 63 26h13zM505 518c23 0 29 -7 25 -30l-72 -412c-6 -31 -15 -43 -49 -56
c-43 -16 -107 -35 -202 -35c-143 0 -194 83 -172 209l51 294c4 23 14 30 37 30h54c23 0 29 -7 25 -30l-52 -298c-12 -67 17 -99 91 -99c39 0 67 4 94 12c10 3 13 9 14 17l65 368c4 23 13 30 36 30h55z" />
    <glyph glyph-name="udieresis" unicode="&#xfc;" 
d="M251 709c40 0 50 -13 43 -52l-2 -9c-7 -39 -21 -52 -61 -52h-7c-40 0 -51 13 -43 52l1 9c7 39 22 52 62 52h7zM451 709c40 0 50 -13 43 -52l-2 -9c-7 -39 -21 -52 -61 -52h-7c-40 0 -51 13 -44 52l2 9c7 39 22 52 62 52h7zM505 518c23 0 29 -7 25 -30l-72 -412
c-6 -31 -15 -43 -49 -56c-43 -16 -107 -35 -202 -35c-143 0 -194 83 -172 209l51 294c4 23 14 30 37 30h54c23 0 29 -7 25 -30l-52 -298c-12 -67 17 -99 91 -99c39 0 67 4 94 12c10 3 13 9 14 17l65 368c4 23 13 30 36 30h55z" />
    <glyph glyph-name="ugrave" unicode="&#xf9;" 
d="M264 727c20 19 40 13 57 1l131 -88c14 -9 12 -16 -4 -33l-17 -17c-10 -12 -21 -9 -38 -2l-162 73c-18 8 -15 16 2 34zM505 518c23 0 29 -7 25 -30l-72 -412c-6 -31 -15 -43 -49 -56c-43 -16 -107 -35 -202 -35c-143 0 -194 83 -172 209l51 294c4 23 14 30 37 30h54
c23 0 29 -7 25 -30l-52 -298c-12 -67 17 -99 91 -99c39 0 67 4 94 12c10 3 13 9 14 17l65 368c4 23 13 30 36 30h55z" />
    <glyph glyph-name="uhungarumlaut" unicode="&#x171;" 
d="M270 710c16 19 32 27 55 20l33 -11c21 -8 20 -19 3 -35l-118 -92c-18 -13 -26 -18 -38 -12l-17 5c-18 6 -16 16 -4 31zM440 710c16 18 32 27 55 20l35 -12c21 -7 22 -20 4 -34l-129 -95c-17 -14 -26 -19 -38 -13l-16 5c-20 6 -18 17 -5 31zM505 518c23 0 29 -7 25 -30
l-72 -412c-6 -31 -15 -43 -49 -56c-43 -16 -107 -35 -202 -35c-143 0 -194 83 -172 209l51 294c4 23 14 30 37 30h54c23 0 29 -7 25 -30l-52 -298c-12 -67 17 -99 91 -99c39 0 67 4 94 12c10 3 13 9 14 17l65 368c4 23 13 30 36 30h55z" />
    <glyph glyph-name="umacron" unicode="&#x16b;" 
d="M460 695c23 0 28 -6 24 -29l-4 -25c-4 -23 -11 -29 -34 -29h-232c-23 0 -27 6 -24 29l4 25c5 23 14 29 35 29h231zM505 518c23 0 29 -7 25 -30l-72 -412c-6 -31 -15 -43 -49 -56c-43 -16 -107 -35 -202 -35c-143 0 -194 83 -172 209l51 294c4 23 14 30 37 30h54
c23 0 29 -7 25 -30l-52 -298c-12 -67 17 -99 91 -99c39 0 67 4 94 12c10 3 13 9 14 17l65 368c4 23 13 30 36 30h55z" />
    <glyph glyph-name="uogonek" unicode="&#x173;" 
d="M505 518c23 0 29 -7 25 -30l-72 -412c-3 -19 -9 -30 -18 -39c-77 -79 -110 -153 -108 -177c2 -13 10 -20 22 -20c9 0 20 3 29 10c8 5 16 3 18 -6l8 -32c3 -10 1 -16 -5 -21c-29 -24 -66 -36 -101 -36c-43 0 -78 14 -79 60c-1 48 39 122 108 183c-34 -8 -75 -13 -125 -13
c-143 0 -195 85 -172 211l51 292c4 23 14 30 37 30h54c23 0 29 -7 25 -30l-52 -298c-12 -67 18 -99 91 -99c39 0 67 4 94 12c10 3 13 9 14 17l65 368c4 23 13 30 36 30h55z" />
    <glyph glyph-name="uring" unicode="&#x16f;" 
d="M230 649c11 62 64 106 129 106c63 0 99 -44 88 -107c-11 -62 -62 -105 -125 -105c-65 0 -102 44 -92 106zM389 648c6 30 -11 50 -40 50c-31 0 -55 -20 -61 -50c-4 -28 12 -48 43 -48c29 0 54 20 58 48zM505 518c23 0 29 -7 25 -30l-72 -412c-6 -31 -15 -43 -49 -56
c-43 -16 -107 -35 -202 -35c-143 0 -194 83 -172 209l51 294c4 23 14 30 37 30h54c23 0 29 -7 25 -30l-52 -298c-12 -67 17 -99 91 -99c39 0 67 4 94 12c10 3 13 9 14 17l65 368c4 23 13 30 36 30h55z" />
    <glyph glyph-name="utilde" unicode="&#x169;" 
d="M480 724c15 0 18 -6 15 -19c-14 -82 -45 -112 -103 -112c-64 0 -77 57 -120 57c-15 0 -25 -11 -30 -38c-2 -13 -8 -19 -21 -19h-33c-14 0 -18 6 -16 19c14 83 48 112 102 112c69 0 81 -57 122 -57c16 0 26 11 30 38c3 13 7 19 22 19h32zM505 518c23 0 29 -7 25 -30
l-72 -412c-6 -31 -15 -43 -49 -56c-43 -16 -107 -35 -202 -35c-143 0 -194 83 -172 209l51 294c4 23 14 30 37 30h54c23 0 29 -7 25 -30l-52 -298c-12 -67 17 -99 91 -99c39 0 67 4 94 12c10 3 13 9 14 17l65 368c4 23 13 30 36 30h55z" />
    <glyph glyph-name="v" unicode="v" horiz-adv-x="513" 
d="M513 518c29 0 35 -7 18 -35l-264 -456c-13 -22 -24 -28 -47 -28h-33c-23 0 -33 6 -38 28l-104 455c-6 29 3 36 33 36h37c36 0 46 -6 49 -31l51 -240c9 -47 8 -103 9 -107h5c2 4 20 58 46 106l134 241c15 25 24 31 62 31h42z" />
    <glyph glyph-name="w" unicode="w" horiz-adv-x="732" 
d="M724 518c30 0 32 -7 19 -36l-210 -455c-9 -22 -24 -28 -47 -28h-38c-24 0 -36 6 -38 28l-28 256c-5 48 0 99 -1 103h-3c-2 -4 -17 -55 -38 -103l-118 -256c-10 -22 -24 -28 -47 -28h-33c-23 0 -35 6 -37 28l-53 455c-4 29 2 36 32 36h36c37 0 50 -5 50 -31l17 -224
c2 -44 -5 -117 -4 -122h4c2 5 21 76 43 123l105 219c13 27 20 32 57 32h21c37 0 43 -5 45 -31l28 -220c6 -51 0 -118 1 -123h4c3 5 16 66 39 123l95 223c11 26 24 31 61 31h38z" />
    <glyph glyph-name="wacute" unicode="&#x1e83;" horiz-adv-x="732" 
d="M477 728c23 12 44 18 57 -1l19 -32c13 -18 12 -27 -10 -34l-186 -73c-21 -8 -32 -10 -39 1l-11 19c-10 16 -9 24 8 32zM724 518c30 0 32 -7 19 -36l-210 -455c-9 -22 -24 -28 -47 -28h-38c-24 0 -36 6 -38 28l-28 256c-5 48 0 99 -1 103h-3c-2 -4 -17 -55 -38 -103
l-118 -256c-10 -22 -24 -28 -47 -28h-33c-23 0 -35 6 -37 28l-53 455c-4 29 2 36 32 36h36c37 0 50 -5 50 -31l17 -224c2 -44 -5 -117 -4 -122h4c2 5 21 76 43 123l105 219c13 27 20 32 57 32h21c37 0 43 -5 45 -31l28 -220c6 -51 0 -118 1 -123h4c3 5 16 66 39 123l95 223
c11 26 24 31 61 31h38z" />
    <glyph glyph-name="wcircumflex" unicode="&#x175;" horiz-adv-x="732" 
d="M269 583c-26 0 -25 12 -11 25l120 98c28 25 34 26 63 26h12c24 0 30 0 51 -26l84 -98c11 -13 7 -25 -19 -25h-39c-25 0 -35 2 -46 17l-48 58l-69 -58c-19 -16 -26 -17 -50 -17h-48zM724 518c30 0 32 -7 19 -36l-210 -455c-9 -22 -24 -28 -47 -28h-38c-24 0 -36 6 -38 28
l-28 256c-5 48 0 99 -1 103h-3c-2 -4 -17 -55 -38 -103l-118 -256c-10 -22 -24 -28 -47 -28h-33c-23 0 -35 6 -37 28l-53 455c-4 29 2 36 32 36h36c37 0 50 -5 50 -31l17 -224c2 -44 -5 -117 -4 -122h4c2 5 21 76 43 123l105 219c13 27 20 32 57 32h21c37 0 43 -5 45 -31
l28 -220c6 -51 0 -118 1 -123h4c3 5 16 66 39 123l95 223c11 26 24 31 61 31h38z" />
    <glyph glyph-name="wdieresis" unicode="&#x1e85;" horiz-adv-x="732" 
d="M344 709c40 0 50 -13 43 -52l-2 -9c-7 -39 -21 -52 -62 -52h-6c-40 0 -51 13 -44 52l2 9c7 39 22 52 62 52h7zM544 709c40 0 49 -13 43 -52l-2 -9c-7 -39 -21 -52 -61 -52h-7c-40 0 -51 13 -44 52l2 9c7 39 22 52 62 52h7zM724 518c30 0 32 -7 19 -36l-210 -455
c-9 -22 -24 -28 -47 -28h-38c-24 0 -36 6 -38 28l-28 256c-5 48 0 99 -1 103h-3c-2 -4 -17 -55 -38 -103l-118 -256c-10 -22 -24 -28 -47 -28h-33c-23 0 -35 6 -37 28l-53 455c-4 29 2 36 32 36h36c37 0 50 -5 50 -31l17 -224c2 -44 -5 -117 -4 -122h4c2 5 21 76 43 123
l105 219c13 27 20 32 57 32h21c37 0 43 -5 45 -31l28 -220c6 -51 0 -118 1 -123h4c3 5 16 66 39 123l95 223c11 26 24 31 61 31h38z" />
    <glyph glyph-name="wgrave" unicode="&#x1e81;" horiz-adv-x="732" 
d="M357 727c20 19 39 13 57 1l131 -88c14 -9 12 -16 -4 -33l-17 -17c-10 -12 -21 -9 -39 -2l-161 73c-18 8 -15 16 2 34zM724 518c30 0 32 -7 19 -36l-210 -455c-9 -22 -24 -28 -47 -28h-38c-24 0 -36 6 -38 28l-28 256c-5 48 0 99 -1 103h-3c-2 -4 -17 -55 -38 -103
l-118 -256c-10 -22 -24 -28 -47 -28h-33c-23 0 -35 6 -37 28l-53 455c-4 29 2 36 32 36h36c37 0 50 -5 50 -31l17 -224c2 -44 -5 -117 -4 -122h4c2 5 21 76 43 123l105 219c13 27 20 32 57 32h21c37 0 43 -5 45 -31l28 -220c6 -51 0 -118 1 -123h4c3 5 16 66 39 123l95 223
c11 26 24 31 61 31h38z" />
    <glyph glyph-name="x" unicode="x" horiz-adv-x="506" 
d="M492 518c33 0 35 -12 15 -36l-189 -215l121 -231c12 -24 5 -36 -30 -36h-41c-34 0 -40 4 -51 26l-80 157l-130 -157c-19 -23 -29 -26 -62 -26h-53c-37 0 -38 12 -16 36l200 230l-116 216c-10 21 -5 36 31 36h39c34 0 42 -4 52 -26l74 -141l122 141c19 23 26 26 58 26h56z
" />
    <glyph glyph-name="y" unicode="y" horiz-adv-x="554" 
d="M504 518c23 0 29 -7 25 -30l-89 -505c-23 -131 -101 -218 -258 -218c-108 0 -162 39 -187 98c-11 22 -4 38 20 50l39 19c26 12 37 9 48 -12c15 -33 42 -51 96 -51c70 0 112 37 125 108l8 47c-32 -7 -71 -14 -121 -14c-143 0 -193 84 -171 210l46 268c5 23 14 30 37 30h55
c23 0 29 -7 24 -30l-48 -273c-11 -67 18 -99 92 -99c42 0 78 7 105 14l63 358c4 23 13 30 36 30h55z" />
    <glyph glyph-name="yacute" unicode="&#xfd;" horiz-adv-x="554" 
d="M384 728c22 12 43 18 56 -1l20 -32c12 -18 11 -27 -11 -34l-186 -73c-21 -8 -32 -10 -39 1l-10 19c-11 16 -10 24 7 32zM504 518c23 0 29 -7 25 -30l-89 -505c-23 -131 -101 -218 -258 -218c-108 0 -162 39 -187 98c-11 22 -4 38 20 50l39 19c26 12 37 9 48 -12
c15 -33 42 -51 96 -51c70 0 112 37 125 108l8 47c-32 -7 -71 -14 -121 -14c-143 0 -193 84 -171 210l46 268c5 23 14 30 37 30h55c23 0 29 -7 24 -30l-48 -273c-11 -67 18 -99 92 -99c42 0 78 7 105 14l63 358c4 23 13 30 36 30h55z" />
    <glyph glyph-name="ycircumflex" unicode="&#x177;" horiz-adv-x="554" 
d="M175 583c-26 0 -24 12 -10 25l119 98c29 25 34 26 64 26h12c23 0 30 0 51 -26l84 -98c10 -13 7 -25 -19 -25h-40c-25 0 -35 2 -46 17l-47 58l-70 -58c-18 -16 -25 -17 -50 -17h-48zM504 518c23 0 29 -7 25 -30l-89 -505c-23 -131 -101 -218 -258 -218
c-108 0 -162 39 -187 98c-11 22 -4 38 20 50l39 19c26 12 37 9 48 -12c15 -33 42 -51 96 -51c70 0 112 37 125 108l8 47c-32 -7 -71 -14 -121 -14c-143 0 -193 84 -171 210l46 268c5 23 14 30 37 30h55c23 0 29 -7 24 -30l-48 -273c-11 -67 18 -99 92 -99c42 0 78 7 105 14
l63 358c4 23 13 30 36 30h55z" />
    <glyph glyph-name="ydieresis" unicode="&#xff;" horiz-adv-x="554" 
d="M250 709c40 0 50 -13 43 -52l-2 -9c-7 -39 -21 -52 -61 -52h-7c-40 0 -50 13 -43 52l2 9c6 39 21 52 61 52h7zM450 709c40 0 50 -13 43 -52l-2 -9c-7 -39 -21 -52 -61 -52h-6c-41 0 -52 13 -45 52l2 9c7 39 22 52 63 52h6zM504 518c23 0 29 -7 25 -30l-89 -505
c-23 -131 -101 -218 -258 -218c-108 0 -162 39 -187 98c-11 22 -4 38 20 50l39 19c26 12 37 9 48 -12c15 -33 42 -51 96 -51c70 0 112 37 125 108l8 47c-32 -7 -71 -14 -121 -14c-143 0 -193 84 -171 210l46 268c5 23 14 30 37 30h55c23 0 29 -7 24 -30l-48 -273
c-11 -67 18 -99 92 -99c42 0 78 7 105 14l63 358c4 23 13 30 36 30h55z" />
    <glyph glyph-name="ygrave" unicode="&#x1ef3;" horiz-adv-x="554" 
d="M263 727c20 19 40 13 57 1l132 -88c13 -9 11 -16 -5 -33l-16 -17c-11 -12 -22 -9 -39 -2l-162 73c-18 8 -15 16 2 34zM504 518c23 0 29 -7 25 -30l-89 -505c-23 -131 -101 -218 -258 -218c-108 0 -162 39 -187 98c-11 22 -4 38 20 50l39 19c26 12 37 9 48 -12
c15 -33 42 -51 96 -51c70 0 112 37 125 108l8 47c-32 -7 -71 -14 -121 -14c-143 0 -193 84 -171 210l46 268c5 23 14 30 37 30h55c23 0 29 -7 24 -30l-48 -273c-11 -67 18 -99 92 -99c42 0 78 7 105 14l63 358c4 23 13 30 36 30h55z" />
    <glyph glyph-name="z" unicode="z" horiz-adv-x="468" 
d="M375 105c23 0 29 -8 25 -31l-7 -43c-5 -23 -14 -31 -37 -31h-350c-23 0 -29 8 -24 31l7 43c3 16 5 21 16 31l299 308h-220c-23 0 -29 8 -25 31l7 44c5 23 14 30 37 30h340c23 0 29 -7 25 -30l-7 -44c-3 -15 -7 -22 -18 -33l-301 -306h233z" />
    <glyph glyph-name="zacute" unicode="&#x17a;" horiz-adv-x="468" 
d="M343 728c23 12 44 18 57 -1l20 -32c12 -18 11 -27 -11 -34l-186 -73c-21 -8 -32 -10 -39 1l-10 19c-11 16 -10 24 7 32zM375 105c23 0 29 -8 25 -31l-7 -43c-5 -23 -14 -31 -37 -31h-350c-23 0 -29 8 -24 31l7 43c3 16 5 21 16 31l299 308h-220c-23 0 -29 8 -25 31l7 44
c5 23 14 30 37 30h340c23 0 29 -7 25 -30l-7 -44c-3 -15 -7 -22 -18 -33l-301 -306h233z" />
    <glyph glyph-name="zcaron" unicode="&#x17e;" horiz-adv-x="468" 
d="M139 706c-10 13 -7 25 19 25h40c25 0 31 -1 44 -17l50 -58l67 58c18 15 28 17 53 17h46c26 0 24 -12 11 -25l-119 -98c-30 -26 -37 -27 -60 -27h-12c-29 0 -35 2 -55 27zM443 518c23 0 29 -7 25 -30l-7 -44c-3 -15 -7 -22 -18 -33l-301 -306h233c23 0 29 -8 25 -31
l-7 -43c-5 -23 -14 -31 -37 -31h-350c-23 0 -29 8 -24 31l7 43c3 16 5 21 16 31l299 308h-220c-23 0 -29 8 -25 31l7 44c5 23 14 30 37 30h340z" />
    <glyph glyph-name="zdotaccent" unicode="&#x17c;" horiz-adv-x="468" 
d="M309 711c42 0 52 -12 45 -54l-2 -7c-6 -42 -21 -54 -63 -54h-6c-41 0 -51 12 -44 54l2 7c7 42 21 54 62 54h6zM375 105c23 0 29 -8 25 -31l-7 -43c-5 -23 -14 -31 -37 -31h-350c-23 0 -29 8 -24 31l7 43c3 16 5 21 16 31l299 308h-220c-23 0 -29 8 -25 31l7 44
c5 23 14 30 37 30h340c23 0 29 -7 25 -30l-7 -44c-3 -15 -7 -22 -18 -33l-301 -306h233z" />
    <glyph glyph-name="ordfeminine" unicode="&#xaa;" horiz-adv-x="357" 
d="M110 616c34 37 82 54 132 54c97 0 119 -52 106 -124l-22 -128c-5 -29 -14 -38 -40 -48c-22 -9 -57 -15 -102 -15c-102 0 -122 45 -112 97c11 60 45 90 147 90c17 0 30 -1 40 -2l2 14c5 29 -3 42 -34 42c-24 0 -39 -12 -55 -25c-9 -6 -17 -10 -31 -5l-22 13
c-21 11 -23 20 -9 37zM247 477c-12 1 -26 2 -44 2c-32 0 -43 -10 -46 -29c-4 -20 6 -27 35 -27c24 0 37 2 41 3c5 3 6 4 7 10z" />
    <glyph glyph-name="ordmasculine" unicode="&#xba;" horiz-adv-x="363" 
d="M89 554c13 75 67 116 155 116c91 0 129 -52 115 -128l-13 -70c-13 -76 -66 -116 -157 -116c-88 0 -128 51 -114 127zM268 552c4 22 -8 37 -37 37c-28 0 -46 -15 -51 -37l-13 -78c-4 -23 9 -37 37 -37c29 0 46 14 51 37z" />
    <glyph glyph-name="uni0410" unicode="&#x410;" horiz-adv-x="656" 
d="M599 33c5 -22 -3 -33 -28 -33h-47c-43 0 -54 6 -57 30l-24 129h-276l-70 -129c-12 -24 -24 -30 -67 -30h-50c-25 0 -30 11 -17 33l365 650c12 23 23 28 46 28h53c23 0 34 -5 38 -27zM387 473c-10 62 -2 121 -2 122h-6c0 -1 -12 -60 -44 -121l-114 -212h205z" />
    <glyph glyph-name="uni0411" unicode="&#x411;" horiz-adv-x="635" 
d="M595 710c25 0 33 -9 28 -34l-9 -49c-4 -25 -14 -34 -40 -34h-327l-28 -159h184c134 0 211 -88 187 -223s-119 -211 -253 -211h-286c-24 0 -32 8 -28 32l113 644c5 25 15 34 40 34h419zM460 217c11 61 -20 100 -84 100h-178l-35 -200h177c65 0 110 40 120 100z" />
    <glyph glyph-name="uni0412" unicode="&#x412;" horiz-adv-x="650" 
d="M454 710c128 0 192 -80 171 -193c-13 -72 -43 -114 -101 -145l-1 -4c61 -24 86 -90 71 -179c-23 -126 -128 -189 -259 -189h-284c-25 0 -32 9 -28 34l113 642c5 25 15 34 40 34h278zM495 505c10 59 -17 88 -76 88h-172l-31 -176h171c60 0 97 28 108 88zM464 209
c11 61 -16 94 -79 94h-189l-33 -186h189c63 0 102 31 112 92z" />
    <glyph glyph-name="uni0413" unicode="&#x413;" horiz-adv-x="523" 
d="M544 710c26 0 33 -9 28 -34l-8 -49c-5 -25 -15 -34 -40 -34h-277l-98 -559c-5 -25 -15 -34 -40 -34h-58c-25 0 -32 9 -28 34l113 642c5 25 15 34 40 34h368z" />
    <glyph glyph-name="uni0414" unicode="&#x414;" horiz-adv-x="741" 
d="M673 710c25 0 33 -9 28 -34l-99 -559h53c25 0 33 -9 28 -34l-36 -202c-4 -25 -14 -34 -40 -34h-54c-26 0 -33 9 -28 34l20 119h-456l-21 -119c-5 -25 -15 -34 -40 -34h-55c-26 0 -32 9 -28 34l35 202c5 25 15 34 41 34h23c48 29 108 94 154 352l36 207c5 25 14 34 40 34
h399zM341 593l-22 -123c-36 -201 -81 -295 -129 -353h287l84 476h-220z" />
    <glyph glyph-name="uni0415" unicode="&#x415;" horiz-adv-x="579" 
d="M574 710c26 0 34 -9 29 -34l-9 -49c-4 -25 -14 -34 -40 -34h-307l-30 -175h259c25 0 32 -9 28 -34l-9 -49c-5 -25 -15 -34 -41 -34h-259l-32 -184h318c25 0 33 -9 28 -34l-9 -49c-4 -25 -14 -34 -40 -34h-409c-25 0 -32 9 -28 34l113 642c5 25 15 34 40 34h398z" />
    <glyph glyph-name="uni0401" unicode="&#x401;" horiz-adv-x="579" 
d="M318 881c40 0 50 -13 43 -52l-2 -10c-7 -39 -21 -52 -61 -52h-7c-40 0 -51 13 -43 52l1 10c7 39 22 52 62 52h7zM518 881c40 0 50 -13 43 -52l-2 -10c-7 -39 -21 -52 -61 -52h-7c-40 0 -51 13 -44 52l2 10c7 39 22 52 62 52h7zM574 710c26 0 34 -9 29 -34l-9 -49
c-4 -25 -14 -34 -40 -34h-307l-30 -175h259c25 0 32 -9 28 -34l-9 -49c-5 -25 -15 -34 -41 -34h-259l-32 -184h318c25 0 33 -9 28 -34l-9 -49c-4 -25 -14 -34 -40 -34h-409c-25 0 -32 9 -28 34l113 642c5 25 15 34 40 34h398z" />
    <glyph glyph-name="uni0416" unicode="&#x416;" horiz-adv-x="940" 
d="M966 710c24 0 27 -16 11 -33l-250 -298c30 -22 49 -56 65 -101l83 -244c7 -19 2 -34 -23 -34h-55c-43 0 -53 5 -61 30l-64 203c-17 54 -42 70 -112 70h-26l-48 -269c-4 -25 -14 -34 -40 -34h-57c-26 0 -33 9 -28 34l47 269h-26c-69 0 -93 -16 -130 -70l-138 -203
c-17 -25 -31 -30 -73 -30h-58c-25 0 -25 15 -11 34l170 244c32 46 62 79 102 101l-147 298c-8 18 -2 33 22 33h60c40 0 48 -3 60 -28l125 -266c13 1 27 1 38 1h26l46 259c5 25 14 34 40 34h57c26 0 33 -9 28 -34l-46 -259h26c13 0 23 0 34 -1l217 266c20 25 32 28 72 28h64z
" />
    <glyph glyph-name="uni0417" unicode="&#x417;" horiz-adv-x="632" 
d="M607 510c-13 -66 -47 -111 -105 -140c75 -43 86 -105 72 -177c-23 -130 -115 -208 -295 -208c-165 0 -255 60 -273 168c-5 24 3 35 29 44l57 19c25 8 35 3 40 -22c11 -61 53 -92 163 -92c92 0 137 39 148 102c11 62 -15 100 -80 100h-140c-25 0 -32 8 -28 34l8 45
c5 26 14 34 40 34h125c62 0 101 36 112 94c11 64 -23 97 -104 97c-101 0 -149 -30 -182 -92c-13 -25 -24 -28 -47 -21l-50 19c-23 9 -27 20 -14 44c57 108 148 167 312 167c159 0 235 -86 212 -215z" />
    <glyph glyph-name="uni0418" unicode="&#x418;" horiz-adv-x="702" 
d="M669 710c25 0 33 -9 28 -34l-113 -642c-4 -25 -15 -34 -40 -34h-57c-26 0 -33 9 -28 34l52 293c18 108 30 141 64 229h-4c-43 -76 -68 -110 -134 -190l-290 -349c-10 -13 -20 -17 -37 -17h-59c-25 0 -32 9 -28 34l113 642c5 25 15 34 40 34h58c25 0 33 -9 28 -34
l-51 -290c-19 -107 -32 -143 -65 -232h4c44 77 73 118 139 198l285 342c9 10 18 16 36 16h59z" />
    <glyph glyph-name="uni0419" unicode="&#x419;" horiz-adv-x="702" 
d="M434 760c-75 0 -125 38 -136 103c-2 15 2 22 18 28l43 15c18 5 25 4 28 -10c6 -34 28 -52 61 -52c34 0 63 18 80 52c8 14 15 16 28 11l42 -16c15 -7 17 -13 10 -28c-35 -65 -98 -103 -174 -103zM669 710c25 0 33 -9 28 -34l-113 -642c-4 -25 -15 -34 -40 -34h-57
c-26 0 -33 9 -28 34l52 293c18 108 30 141 64 229h-4c-43 -76 -68 -110 -134 -190l-290 -349c-10 -13 -20 -17 -37 -17h-59c-25 0 -32 9 -28 34l113 642c5 25 15 34 40 34h58c25 0 33 -9 28 -34l-51 -290c-19 -107 -32 -143 -65 -232h4c44 77 73 118 139 198l285 342
c9 10 18 16 36 16h59z" />
    <glyph glyph-name="uni041A" unicode="&#x41a;" horiz-adv-x="627" 
d="M563 34c6 -19 1 -34 -24 -34h-57c-43 0 -54 5 -62 30l-65 203c-18 54 -38 70 -107 70h-52l-47 -269c-5 -25 -15 -34 -40 -34h-58c-25 0 -32 9 -28 34l113 642c5 25 15 34 40 34h58c25 0 33 -9 28 -34l-46 -259h40h14l247 265c22 24 33 28 73 28h64c23 0 26 -16 11 -33
l-278 -288c49 -21 73 -56 92 -111z" />
    <glyph glyph-name="uni041B" unicode="&#x41b;" horiz-adv-x="676" 
d="M643 710c26 0 34 -9 29 -34l-113 -642c-5 -25 -15 -34 -41 -34h-57c-25 0 -32 9 -28 34l99 559h-212l-23 -130c-63 -355 -167 -425 -272 -472c-26 -11 -37 -7 -43 16l-17 50c-7 23 0 35 25 46c57 26 133 67 184 360l37 213c5 25 15 34 40 34h392z" />
    <glyph glyph-name="uni041C" unicode="&#x41c;" horiz-adv-x="813" 
d="M780 710c26 0 33 -9 28 -34l-113 -642c-4 -25 -14 -34 -40 -34h-51c-26 0 -33 9 -28 34l54 305c10 57 29 122 59 199h-7c-39 -75 -72 -125 -115 -183l-128 -173c-14 -18 -23 -24 -44 -24h-26c-20 0 -27 4 -34 24l-69 174c-24 58 -35 102 -46 182h-7
c2 -78 -2 -137 -13 -200l-54 -304c-4 -25 -14 -34 -40 -34h-55c-25 0 -32 9 -28 34l113 642c5 25 15 34 40 34h43c28 0 36 -5 44 -26l142 -372l274 371c15 22 23 27 50 27h51z" />
    <glyph glyph-name="uni041D" unicode="&#x41d;" horiz-adv-x="688" 
d="M655 710c26 0 34 -9 29 -34l-114 -642c-4 -25 -14 -34 -40 -34h-57c-25 0 -32 9 -28 34l47 267h-297l-46 -267c-5 -25 -15 -34 -40 -34h-58c-25 0 -32 9 -28 34l113 642c5 25 15 34 40 34h58c25 0 33 -9 28 -34l-45 -258h296l45 258c5 25 15 34 40 34h57z" />
    <glyph glyph-name="uni041E" unicode="&#x41e;" horiz-adv-x="670" 
d="M80 472c28 160 143 253 327 253s269 -109 241 -270l-38 -219c-28 -161 -143 -251 -326 -251c-184 0 -270 107 -243 268zM526 465c15 93 -33 143 -136 143c-102 0 -169 -50 -185 -143l-39 -220c-17 -93 33 -143 135 -143c103 0 169 50 185 143z" />
    <glyph glyph-name="uni041F" unicode="&#x41f;" horiz-adv-x="683" 
d="M650 710c26 0 33 -9 28 -34l-113 -642c-4 -25 -14 -34 -40 -34h-57c-26 0 -33 9 -28 34l98 559h-291l-98 -559c-5 -25 -15 -34 -40 -34h-58c-25 0 -32 9 -28 34l113 642c5 25 15 34 40 34h474z" />
    <glyph glyph-name="uni0420" unicode="&#x420;" horiz-adv-x="633" 
d="M442 710c144 0 218 -98 192 -243c-25 -144 -129 -220 -274 -220h-174l-37 -213c-5 -25 -15 -34 -40 -34h-58c-25 0 -32 9 -28 34l113 642c5 25 15 34 40 34h266zM369 364c73 0 124 42 137 114s-24 115 -97 115h-162l-40 -229h162z" />
    <glyph glyph-name="uni0421" unicode="&#x421;" horiz-adv-x="636" 
d="M79 471c29 161 145 254 329 254c147 0 218 -62 236 -170c4 -24 -1 -35 -27 -43l-50 -17c-26 -9 -35 -4 -40 21c-12 61 -53 92 -137 92c-103 0 -170 -50 -185 -142l-39 -221c-17 -93 32 -143 135 -143c84 0 136 32 169 93c14 25 25 31 48 21l54 -21c22 -8 26 -19 13 -44
c-57 -107 -154 -166 -302 -166c-184 0 -270 106 -242 267z" />
    <glyph glyph-name="uni0422" unicode="&#x422;" horiz-adv-x="563" 
d="M588 710c25 0 33 -9 28 -34l-9 -49c-4 -25 -14 -34 -40 -34h-172l-99 -559c-4 -25 -14 -34 -40 -34h-57c-25 0 -32 9 -28 34l99 559h-173c-25 0 -32 9 -28 34l9 49c5 25 14 34 40 34h470z" />
    <glyph glyph-name="uni0423" unicode="&#x423;" horiz-adv-x="612" 
d="M653 710c25 0 23 -15 11 -34l-412 -646c-15 -25 -25 -30 -61 -30h-69c-25 0 -25 14 -12 34l118 174l-160 468c-6 19 -1 34 24 34h58c40 0 50 0 59 -30l108 -335l211 335c17 30 22 30 62 30h63z" />
    <glyph glyph-name="uni0424" unicode="&#x424;" horiz-adv-x="840" 
d="M529 735c26 0 32 -9 28 -34l-9 -51h53c176 0 253 -100 224 -258l-14 -77c-27 -158 -137 -250 -313 -250h-53l-9 -51c-5 -25 -14 -34 -40 -34h-57c-26 0 -33 9 -28 34l9 51h-53c-176 0 -253 102 -224 260l14 77c28 158 137 248 313 248h53l9 51c4 25 14 34 40 34h57z
M350 537c-95 0 -152 -47 -167 -136l-16 -87c-15 -89 25 -136 120 -136h52l63 359h-52zM700 401c16 89 -24 136 -120 136h-52l-63 -359h52c95 0 152 47 168 136z" />
    <glyph glyph-name="uni0425" unicode="&#x425;" horiz-adv-x="637" 
d="M666 710c23 0 27 -16 11 -32l-270 -316l166 -327c11 -18 2 -35 -23 -35h-67c-40 0 -48 2 -61 30l-112 234l-187 -234c-23 -27 -32 -30 -72 -30h-69c-25 0 -27 16 -11 35l279 327l-157 316c-10 16 -1 32 22 32h66c40 0 46 -4 62 -28l104 -221l181 221c23 24 30 28 67 28
h71z" />
    <glyph glyph-name="uni0427" unicode="&#x427;" horiz-adv-x="639" 
d="M607 710c25 0 33 -9 28 -34l-113 -642c-5 -25 -15 -34 -40 -34h-58c-25 0 -32 9 -28 34l42 238c-18 -4 -75 -14 -152 -14c-187 0 -243 98 -216 254l29 164c4 25 14 34 40 34h57c26 0 33 -9 28 -34l-30 -172c-16 -95 20 -129 119 -129c75 0 129 12 147 16l49 285
c5 25 15 34 40 34h58z" />
    <glyph glyph-name="uni0426" unicode="&#x426;" horiz-adv-x="713" 
d="M625 117c25 0 33 -9 28 -34l-36 -202c-4 -25 -14 -34 -40 -34h-52c-25 0 -32 9 -28 34l21 119h-467c-25 0 -32 9 -28 34l113 642c5 25 15 34 40 34h58c25 0 33 -9 28 -34l-99 -559h287l98 559c5 25 15 34 40 34h57c26 0 34 -9 29 -34l-99 -559h50z" />
    <glyph glyph-name="uni0428" unicode="&#x428;" horiz-adv-x="929" 
d="M896 710c26 0 33 -9 28 -34l-113 -642c-4 -25 -14 -34 -40 -34h-720c-25 0 -32 9 -28 34l113 642c5 25 15 34 40 34h58c25 0 33 -9 28 -34l-99 -559h206l99 559c5 25 14 34 40 34h57c25 0 33 -9 28 -34l-99 -559h206l99 559c5 25 14 34 40 34h57z" />
    <glyph glyph-name="uni0429" unicode="&#x429;" horiz-adv-x="964" 
d="M876 117c26 0 33 -9 28 -34l-35 -202c-5 -25 -15 -34 -41 -34h-52c-25 0 -32 9 -28 34l21 119h-718c-25 0 -32 9 -28 34l113 642c5 25 15 34 40 34h58c25 0 33 -9 28 -34l-99 -559h206l99 559c5 25 14 34 40 34h57c25 0 33 -9 28 -34l-99 -559h206l99 559
c5 25 14 34 40 34h57c26 0 33 -9 28 -34l-98 -559h50z" />
    <glyph glyph-name="uni042F" unicode="&#x42f;" horiz-adv-x="651" 
d="M79 500c25 139 123 210 262 210h277c25 0 33 -9 28 -34l-113 -642c-4 -25 -15 -34 -40 -34h-57c-26 0 -33 9 -28 34l42 236h-78c-69 0 -97 -14 -131 -70l-106 -170c-16 -26 -31 -30 -74 -30h-57c-25 0 -25 15 -12 34l140 211c12 18 27 39 41 50c-75 29 -112 103 -94 205z
M333 593c-68 0 -112 -37 -124 -103s20 -103 87 -103h174l36 206h-173z" />
    <glyph glyph-name="uni042C" unicode="&#x42c;" horiz-adv-x="630" 
d="M591 224c-25 -144 -128 -224 -273 -224h-267c-25 0 -32 9 -28 34l113 642c5 25 15 34 40 34h58c25 0 33 -9 28 -34l-38 -213h170c145 0 223 -94 197 -239zM462 232c13 72 -23 114 -96 114h-162l-41 -229h162c73 0 125 43 137 115z" />
    <glyph glyph-name="uni042A" unicode="&#x42a;" horiz-adv-x="737" 
d="M498 463c145 0 226 -98 200 -242c-26 -145 -127 -221 -271 -221h-269c-25 0 -32 9 -28 34l99 559h-133c-26 0 -33 9 -28 34l8 49c5 25 15 34 40 34h224c26 0 34 -9 29 -34l-38 -213h167zM432 117c73 0 124 43 137 115s-24 114 -96 114h-162l-41 -229h162z" />
    <glyph glyph-name="uni042B" unicode="&#x42b;" horiz-adv-x="907" 
d="M591 224c-25 -144 -128 -224 -273 -224h-267c-25 0 -32 9 -28 34l113 642c5 25 15 34 40 34h58c25 0 33 -9 28 -34l-38 -213h170c145 0 223 -94 197 -239zM778 676c5 25 14 34 40 34h57c25 0 33 -9 28 -34l-113 -642c-4 -25 -15 -34 -40 -34h-57c-26 0 -33 9 -28 34z
M462 232c13 72 -23 114 -96 114h-162l-41 -229h162c73 0 125 43 137 115z" />
    <glyph glyph-name="uni042D" unicode="&#x42d;" horiz-adv-x="641" 
d="M80 558c57 108 154 167 301 167c184 0 266 -110 238 -271l-38 -219c-29 -161 -141 -250 -324 -250c-148 0 -230 60 -249 168c-4 24 4 35 29 44l58 19c25 9 34 3 39 -21c12 -62 54 -93 138 -93c103 0 169 50 185 142l9 57h-243c-25 0 -32 9 -27 34l9 49c4 25 14 34 40 34
h243l8 48c16 92 -32 142 -135 142c-83 0 -136 -30 -169 -92c-14 -25 -24 -28 -47 -21l-51 19c-23 9 -27 20 -14 44z" />
    <glyph glyph-name="uni042E" unicode="&#x42e;" horiz-adv-x="940" 
d="M363 471c25 161 143 254 324 254c180 0 259 -108 231 -268l-38 -220c-28 -161 -143 -252 -323 -252s-260 105 -232 266l8 50h-138l-46 -267c-5 -25 -15 -34 -40 -34h-58c-25 0 -32 9 -28 34l113 642c5 25 15 34 40 34h58c25 0 33 -9 28 -34l-45 -258h138zM795 465
c15 93 -29 143 -128 143c-100 0 -163 -50 -179 -143l-39 -220c-16 -93 29 -143 129 -143c98 0 161 49 177 143z" />
    <glyph glyph-name="uni0430" unicode="&#x430;" horiz-adv-x="538" 
d="M47 337c23 137 106 196 259 196c80 0 144 -15 176 -31c29 -15 33 -23 27 -55l-71 -400c-4 -24 -13 -31 -37 -38c-62 -15 -120 -24 -202 -24c-143 0 -200 90 -177 216zM377 416c-23 7 -47 11 -81 11c-80 0 -123 -29 -137 -105l-23 -130c-11 -66 20 -101 91 -101
c41 0 75 6 105 13l53 299c2 7 0 10 -8 13z" />
    <glyph glyph-name="uni0431" unicode="&#x431;" horiz-adv-x="554" 
d="M435 730c30 0 58 5 73 11c25 12 35 5 39 -20l7 -39c3 -24 -3 -33 -27 -44c-29 -14 -59 -16 -109 -16h-34c-132 0 -175 -42 -196 -163l-2 -16c22 24 73 62 157 62c128 0 195 -77 171 -208l-21 -114c-24 -126 -108 -198 -261 -198c-151 0 -220 84 -198 210l41 239
c37 206 122 296 328 296h32zM398 301c10 64 -20 99 -96 99c-75 0 -121 -39 -130 -89l-22 -122c-12 -63 20 -99 95 -99c76 0 121 36 133 99z" />
    <glyph glyph-name="uni0432" unicode="&#x432;" horiz-adv-x="541" 
d="M135 507c40 15 87 26 171 26c140 0 207 -63 190 -159c-8 -46 -35 -79 -89 -100c53 -19 85 -65 75 -127c-16 -114 -108 -162 -251 -162c-93 0 -148 9 -185 21c-31 10 -39 32 -35 57l66 372c6 32 22 59 58 72zM377 367c7 40 -25 65 -86 65c-38 0 -67 -4 -91 -11
c-8 -3 -11 -8 -12 -15l-17 -96h112c50 0 86 15 94 57zM363 155c7 42 -25 66 -93 66h-115l-20 -115c-1 -5 -2 -8 6 -11c26 -5 53 -9 90 -9c80 0 123 22 132 69z" />
    <glyph glyph-name="uni0433" unicode="&#x433;" horiz-adv-x="504" 
d="M68 424c44 65 115 109 231 109c140 0 196 -70 181 -157c-24 -135 -131 -152 -231 -161c-69 -7 -130 -21 -138 -72c-8 -42 26 -59 100 -59c61 0 106 19 128 58c15 23 25 26 45 19l38 -14c22 -7 27 -22 14 -43c-44 -78 -115 -119 -241 -119c-142 0 -210 62 -192 160
c22 119 111 153 233 165c68 6 125 16 134 67c6 36 -17 55 -89 55c-64 0 -99 -24 -122 -55c-17 -21 -24 -24 -45 -15l-38 18c-20 9 -24 21 -8 44z" />
    <glyph glyph-name="uni0434" unicode="&#x434;" horiz-adv-x="553" 
d="M176 712c4 23 12 31 36 31c94 0 168 -10 219 -38c87 -46 115 -144 86 -313l-37 -209c-23 -126 -112 -198 -263 -198c-152 0 -219 83 -196 209l20 114c22 126 115 197 239 197c70 0 119 -27 136 -61c15 100 -13 137 -58 164c-39 24 -100 30 -161 30c-25 0 -31 6 -28 29z
M384 302c11 63 -22 98 -96 98c-76 0 -121 -34 -131 -98l-21 -114c-11 -62 21 -98 96 -98s120 36 132 98z" />
    <glyph glyph-name="uni0435" unicode="&#x435;" horiz-adv-x="531" 
d="M45 330c24 130 119 203 269 203c135 0 216 -75 194 -186c-18 -98 -101 -139 -245 -139c-41 0 -83 5 -123 12l-6 -35c-11 -65 23 -100 97 -100c58 0 102 20 129 52c20 22 32 27 53 12l31 -20c20 -13 21 -29 3 -51c-46 -58 -120 -93 -234 -93c-164 0 -213 103 -190 226z
M396 360c9 48 -26 75 -99 75c-74 0 -124 -40 -137 -105l-4 -21c41 -7 83 -12 123 -12c68 0 108 21 117 63z" />
    <glyph glyph-name="uni0451" unicode="&#x451;" horiz-adv-x="531" 
d="M246 709c40 0 50 -13 43 -52l-2 -9c-7 -39 -21 -52 -61 -52h-7c-40 0 -51 13 -43 52l1 9c7 39 22 52 62 52h7zM446 709c40 0 50 -13 43 -52l-2 -9c-7 -39 -21 -52 -61 -52h-7c-40 0 -51 13 -44 52l2 9c7 39 22 52 62 52h7zM45 330c24 130 119 203 269 203
c135 0 216 -75 194 -186c-18 -98 -101 -139 -245 -139c-41 0 -83 5 -123 12l-6 -35c-11 -65 23 -100 97 -100c58 0 102 20 129 52c20 22 32 27 53 12l31 -20c20 -13 21 -29 3 -51c-46 -58 -120 -93 -234 -93c-164 0 -213 103 -190 226zM396 360c9 48 -26 75 -99 75
c-74 0 -124 -40 -137 -105l-4 -21c41 -7 83 -12 123 -12c68 0 108 21 117 63z" />
    <glyph glyph-name="uni0436" unicode="&#x436;" horiz-adv-x="749" 
d="M438 518c25 0 31 -7 27 -31l-30 -169h31h10l145 177c17 22 26 23 61 23h54c31 0 34 -12 13 -36l-174 -199c23 -15 36 -37 48 -71l57 -175c8 -27 3 -37 -27 -37h-50c-35 0 -42 4 -49 28l-38 133c-10 35 -29 49 -70 49h-30l-31 -178c-4 -24 -14 -32 -39 -32h-51
c-24 0 -30 8 -26 32l31 178h-27c-42 0 -67 -14 -88 -49l-85 -133c-16 -24 -24 -28 -59 -28h-51c-30 0 -31 10 -13 37l118 175c24 34 45 60 72 76l-103 194c-13 25 -3 36 27 36h46c34 0 46 -1 56 -23l85 -177h12h29l29 169c5 24 14 31 39 31h51z" />
    <glyph glyph-name="uni0437" unicode="&#x437;" horiz-adv-x="507" 
d="M54 412c31 61 102 121 233 121c130 0 200 -59 186 -158c-7 -45 -35 -89 -83 -108v-2c49 -24 63 -71 54 -122c-15 -90 -77 -158 -240 -158c-135 0 -193 64 -210 132c-5 25 4 38 30 45l46 13c26 8 36 4 41 -20c6 -28 30 -68 106 -68c75 0 103 28 109 68c7 36 -11 59 -54 59
h-96c-23 0 -29 8 -25 31l6 33c4 24 13 31 36 31h88c39 0 67 21 74 55c7 41 -25 67 -80 67c-70 0 -101 -29 -117 -57c-14 -24 -25 -29 -49 -21l-42 14c-21 8 -26 20 -13 45z" />
    <glyph glyph-name="uni0438" unicode="&#x438;" 
d="M505 518c23 0 29 -7 25 -30l-72 -412c-6 -31 -15 -43 -49 -56c-43 -16 -107 -35 -202 -35c-143 0 -194 83 -172 209l51 294c4 23 14 30 37 30h54c23 0 29 -7 25 -30l-52 -298c-12 -67 17 -99 91 -99c39 0 67 4 94 12c10 3 13 9 14 17l65 368c4 23 13 30 36 30h55z" />
    <glyph glyph-name="uni0439" unicode="&#x439;" 
d="M497 675c-35 -68 -97 -107 -176 -107c-78 0 -135 39 -146 107c-3 16 2 23 20 30l40 14c19 6 26 3 30 -11c5 -35 31 -53 66 -53c36 0 65 19 84 55c8 14 15 16 29 11l44 -16c15 -8 17 -14 9 -30zM505 518c23 0 29 -7 25 -30l-72 -412c-6 -31 -15 -43 -49 -56
c-43 -16 -107 -35 -202 -35c-143 0 -194 83 -172 209l51 294c4 23 14 30 37 30h54c23 0 29 -7 25 -30l-52 -298c-12 -67 17 -99 91 -99c39 0 67 4 94 12c10 3 13 9 14 17l65 368c4 23 13 30 36 30h55z" />
    <glyph glyph-name="uni043A" unicode="&#x43a;" horiz-adv-x="522" 
d="M453 37c8 -27 3 -37 -27 -37h-47c-35 0 -41 4 -49 28l-38 133c-10 35 -29 51 -71 51h-63l-32 -180c-4 -24 -13 -32 -38 -32h-51c-25 0 -31 8 -27 32l80 455c4 24 14 31 39 31h51c24 0 30 -7 26 -31l-29 -169h45h8l168 177c21 23 30 23 65 23h49c31 0 31 -18 8 -41
l-184 -188c31 -13 47 -36 60 -77z" />
    <glyph glyph-name="uni043B" unicode="&#x43b;" horiz-adv-x="547" 
d="M497 518c23 0 29 -7 25 -30l-80 -457c-4 -23 -13 -31 -36 -31h-55c-23 0 -29 8 -25 31l67 380h-142l-31 -127c-60 -248 -120 -259 -201 -295c-19 -8 -30 -2 -35 16l-18 52c-5 17 -2 24 16 33c25 12 82 15 127 203l46 195c5 23 14 30 37 30h305z" />
    <glyph glyph-name="uni043C" unicode="&#x43c;" horiz-adv-x="641" 
d="M589 518c28 0 32 -8 28 -33l-80 -454c-5 -24 -14 -31 -37 -31h-47c-25 0 -30 6 -25 31l32 181c7 39 26 95 47 148h-4c-26 -50 -44 -77 -70 -111l-92 -122c-14 -18 -21 -23 -42 -23h-28c-19 0 -26 4 -34 24l-49 120c-14 36 -21 60 -30 113h-4c1 -55 1 -112 -6 -152
l-32 -178c-4 -24 -13 -31 -36 -31h-45c-25 0 -31 6 -25 31l79 454c5 25 13 33 41 33h37c25 0 33 -5 40 -25l99 -260l189 259c13 20 22 26 47 26h47z" />
    <glyph glyph-name="uni043D" unicode="&#x43d;" horiz-adv-x="557" 
d="M507 518c23 0 29 -7 25 -30l-80 -457c-4 -23 -13 -31 -37 -31h-54c-23 0 -29 8 -25 31l32 179h-210l-32 -179c-4 -23 -13 -31 -36 -31h-55c-23 0 -29 8 -25 31l80 457c4 23 14 30 37 30h54c23 0 29 -7 25 -30l-29 -170h210l29 170c4 23 14 30 37 30h54z" />
    <glyph glyph-name="uni043E" unicode="&#x43e;" horiz-adv-x="543" 
d="M47 336c22 124 116 197 264 197c150 0 217 -82 196 -206l-26 -148c-22 -124 -113 -194 -263 -194c-148 0 -218 79 -197 203zM392 333c11 61 -24 95 -98 95c-73 0 -120 -34 -131 -95l-26 -148c-11 -60 24 -95 97 -95c74 0 121 35 132 95z" />
    <glyph glyph-name="uni043F" unicode="&#x43f;" 
d="M129 499c43 16 106 34 202 34c143 0 194 -83 172 -210l-51 -292c-5 -23 -14 -31 -37 -31h-55c-23 0 -29 8 -24 31l52 298c12 66 -18 98 -91 98c-39 0 -72 -6 -99 -13c-5 -2 -7 -6 -9 -10l-65 -373c-4 -23 -13 -31 -36 -31h-55c-23 0 -29 8 -25 31l72 411
c6 32 15 44 49 57z" />
    <glyph glyph-name="uni0440" unicode="&#x440;" horiz-adv-x="541" 
d="M131 504c43 15 105 29 199 29c144 0 197 -81 174 -210l-25 -136c-23 -135 -106 -202 -257 -202c-41 0 -77 11 -102 18l-34 -192c-4 -23 -14 -31 -37 -31h-54c-23 0 -29 8 -25 31l112 636c6 32 15 44 49 57zM389 328c11 65 -22 99 -94 99c-38 0 -67 -4 -93 -11
c-9 -3 -10 -6 -12 -13l-52 -297c22 -6 55 -15 93 -15c79 0 121 35 135 107z" />
    <glyph glyph-name="uni0441" unicode="&#x441;" horiz-adv-x="512" 
d="M46 335c22 127 101 198 259 198c119 0 177 -57 189 -131c4 -25 -1 -37 -26 -45l-40 -13c-26 -10 -35 -3 -40 21c-9 41 -41 66 -100 66c-73 0 -115 -37 -127 -99l-26 -147c-11 -62 19 -98 92 -98c58 0 97 26 121 69c13 24 24 28 48 20l42 -14c22 -9 28 -20 13 -45
c-47 -84 -121 -132 -241 -132c-153 0 -211 85 -188 212z" />
    <glyph glyph-name="uni0442" unicode="&#x442;" horiz-adv-x="826" 
d="M435 499c37 13 96 34 182 34c136 0 182 -81 160 -207l-52 -295c-4 -23 -13 -31 -36 -31h-55c-23 0 -29 8 -25 31l53 299c12 64 -13 97 -80 97c-40 0 -76 -10 -100 -18c3 -21 2 -47 -3 -75l-53 -303c-4 -23 -14 -31 -37 -31h-54c-23 0 -29 8 -25 31l52 299
c13 71 -16 97 -80 97c-32 0 -57 -4 -83 -12c-7 -3 -8 -7 -10 -12l-65 -372c-4 -23 -13 -31 -36 -31h-55c-23 0 -29 8 -25 31l72 411c6 32 15 44 49 57c42 16 100 34 187 34c53 0 93 -12 119 -34z" />
    <glyph glyph-name="uni0443" unicode="&#x443;" horiz-adv-x="554" 
d="M504 518c23 0 29 -7 25 -30l-89 -505c-23 -131 -101 -218 -258 -218c-108 0 -162 39 -187 98c-11 22 -4 38 20 50l39 19c26 12 37 9 48 -12c15 -33 42 -51 96 -51c70 0 112 37 125 108l8 47c-32 -7 -71 -14 -121 -14c-143 0 -193 84 -171 210l46 268c5 23 14 30 37 30h55
c23 0 29 -7 24 -30l-48 -273c-11 -67 18 -99 92 -99c42 0 78 7 105 14l63 358c4 23 13 30 36 30h55z" />
    <glyph glyph-name="uni0444" unicode="&#x444;" horiz-adv-x="740" 
d="M468 530c17 2 34 3 53 3c140 0 206 -81 179 -229l-19 -108c-26 -149 -116 -211 -256 -211c-18 0 -36 1 -52 4l-31 -178c-5 -23 -14 -31 -37 -31h-55c-23 0 -29 8 -24 31l31 178c-17 -3 -35 -4 -53 -4c-141 0 -207 80 -180 228l19 107c26 148 116 213 256 213
c20 0 36 -1 53 -3l31 178c5 23 13 31 36 31h55c23 0 30 -8 26 -31zM139 209c-15 -86 23 -118 91 -118c17 0 33 1 49 3l58 331c-15 1 -31 2 -47 2c-68 0 -119 -34 -134 -119zM585 310c15 86 -23 117 -91 117c-17 0 -32 -1 -48 -2l-58 -331c15 -2 30 -3 47 -3
c67 0 118 32 133 117z" />
    <glyph glyph-name="uni0445" unicode="&#x445;" horiz-adv-x="506" 
d="M492 518c33 0 35 -12 15 -36l-189 -215l121 -231c12 -24 5 -36 -30 -36h-41c-34 0 -40 4 -51 26l-80 157l-130 -157c-19 -23 -29 -26 -62 -26h-53c-37 0 -38 12 -16 36l200 230l-116 216c-10 21 -5 36 31 36h39c34 0 42 -4 52 -26l74 -141l122 141c19 23 26 26 58 26h56z
" />
    <glyph glyph-name="uni0447" unicode="&#x447;" horiz-adv-x="514" 
d="M58 488c4 23 14 30 37 30h54c23 0 29 -7 25 -30l-20 -114c-12 -68 14 -95 89 -95c54 0 93 13 95 14l35 195c4 23 13 30 37 30h54c23 0 29 -7 25 -30l-80 -457c-4 -23 -14 -31 -37 -31h-54c-23 0 -29 8 -25 31l27 153c-3 -1 -35 -11 -108 -11c-141 0 -194 82 -172 209z
" />
    <glyph glyph-name="uni0446" unicode="&#x446;" horiz-adv-x="594" 
d="M177 518c23 0 29 -7 25 -30l-52 -299c-12 -66 18 -98 91 -98c42 0 75 8 105 15l68 382c4 23 13 30 36 30h55c23 0 29 -7 25 -30l-67 -377c74 5 87 -31 73 -108l-19 -111c-4 -23 -12 -31 -35 -31h-50c-24 0 -31 8 -27 31l18 96c4 20 -6 31 -32 24
c-45 -13 -99 -27 -184 -27c-143 0 -195 84 -172 211l51 292c4 23 14 30 37 30h54z" />
    <glyph glyph-name="uni0448" unicode="&#x448;" horiz-adv-x="825" 
d="M778 518c22 0 29 -7 24 -30l-72 -412c-6 -31 -15 -44 -48 -57c-42 -16 -100 -34 -188 -34c-52 0 -92 11 -118 33c-39 -14 -97 -33 -181 -33c-136 0 -183 84 -160 211l51 292c4 23 14 30 37 30h54c23 0 29 -7 25 -30l-52 -300c-12 -64 15 -97 79 -97c39 0 75 10 100 18
c-4 21 -3 47 2 75l54 304c4 23 13 30 36 30h55c23 0 29 -7 25 -30l-53 -301c-12 -64 16 -96 81 -96c31 0 54 3 80 11c8 3 11 9 13 17l64 369c5 23 14 30 37 30h55z" />
    <glyph glyph-name="uni0449" unicode="&#x449;" horiz-adv-x="867" 
d="M86 488c4 23 14 30 37 30h54c23 0 29 -7 25 -30l-52 -300c-12 -64 15 -97 79 -97c39 0 75 10 100 18c-4 21 -3 47 2 75l54 304c4 23 13 30 36 30h55c23 0 29 -7 25 -30l-53 -301c-12 -64 16 -96 81 -96c38 0 67 8 91 16l66 381c5 23 14 30 37 30h55c22 0 29 -7 24 -30
l-66 -377c74 6 87 -31 73 -108l-19 -111c-4 -23 -12 -31 -35 -31h-51c-23 0 -30 8 -26 31l18 96c4 20 -6 31 -32 24c-30 -8 -98 -27 -170 -27c-52 0 -92 11 -118 33c-39 -14 -97 -33 -181 -33c-136 0 -183 84 -160 211z" />
    <glyph glyph-name="uni044F" unicode="&#x44f;" horiz-adv-x="526" 
d="M476 518c23 0 29 -7 24 -31l-78 -456c-4 -23 -13 -31 -36 -31h-56c-23 0 -29 8 -24 31l24 139h-100l-109 -143c-18 -25 -29 -27 -62 -27h-49c-37 0 -36 11 -16 37l120 150c-57 24 -81 86 -68 164c20 109 98 167 208 167h222zM250 414c-44 0 -77 -30 -85 -71
c-8 -42 15 -71 59 -71h124l25 142h-123z" />
    <glyph glyph-name="uni044C" unicode="&#x44c;" horiz-adv-x="510" 
d="M181 361c34 8 69 15 106 15c135 0 201 -74 179 -200s-106 -191 -235 -191c-94 0 -150 14 -187 30c-30 13 -36 24 -30 57l75 416c4 23 13 30 37 30h52c23 0 29 -7 25 -30zM144 101c24 -8 51 -12 88 -12c66 0 108 32 119 94c12 64 -19 93 -90 93c-36 0 -67 -6 -97 -13
l-26 -150c-2 -6 0 -10 6 -12z" />
    <glyph glyph-name="uni044A" unicode="&#x44a;" horiz-adv-x="602" 
d="M273 361c33 8 68 15 105 15c135 0 201 -75 179 -202c-22 -126 -106 -189 -235 -189c-93 0 -150 14 -187 30c-30 13 -36 24 -30 57l61 341h-105c-23 0 -30 7 -26 30l8 45c4 23 13 30 36 30h191c23 0 29 -7 24 -30zM235 101c24 -8 51 -12 88 -12c66 0 108 31 119 92
c12 65 -19 95 -90 95c-35 0 -67 -6 -97 -13l-26 -150c-1 -6 0 -10 6 -12z" />
    <glyph glyph-name="uni044B" unicode="&#x44b;" horiz-adv-x="712" 
d="M181 361c34 8 69 15 106 15c135 0 201 -74 179 -200s-106 -191 -235 -191c-94 0 -150 14 -187 30c-30 13 -36 24 -30 57l75 416c4 23 13 30 37 30h52c23 0 29 -7 25 -30zM662 518c24 0 30 -7 25 -30l-79 -457c-5 -23 -14 -31 -37 -31h-55c-23 0 -29 8 -24 31l79 457
c5 23 14 30 37 30h54zM144 101c24 -8 51 -12 88 -12c66 0 108 32 119 94c12 64 -19 93 -90 93c-36 0 -67 -6 -97 -13l-26 -150c-2 -6 0 -10 6 -12z" />
    <glyph glyph-name="uni044D" unicode="&#x44d;" horiz-adv-x="508" 
d="M50 405c38 76 112 128 230 128c156 0 214 -87 191 -213l-24 -137c-22 -127 -100 -198 -251 -198c-120 0 -181 49 -198 134c-6 25 4 36 29 44l47 14c26 8 35 3 40 -20c9 -44 36 -69 93 -69c72 0 113 35 124 98l4 25l-149 1c-23 0 -29 7 -25 30l8 41c3 23 12 30 35 30h149
l4 20c12 69 -17 98 -89 98c-58 0 -91 -21 -115 -64c-13 -23 -26 -30 -48 -21l-42 15c-21 8 -26 19 -13 44z" />
    <glyph glyph-name="uni044E" unicode="&#x44e;" horiz-adv-x="755" 
d="M272 342c23 124 111 191 256 191c147 0 212 -83 191 -207l-26 -149c-23 -124 -108 -192 -255 -192c-145 0 -213 79 -193 202l4 22h-91l-32 -178c-4 -23 -13 -31 -36 -31h-55c-23 0 -29 8 -25 31l80 457c4 23 14 30 37 30h54c23 0 29 -7 25 -30l-29 -171h91zM603 334
c11 61 -21 94 -91 94s-113 -34 -124 -95l-27 -149c-11 -60 21 -94 91 -94s114 35 125 95z" />
    <glyph glyph-name="Delta" unicode="&#x2206;" horiz-adv-x="645" 
d="M426 710c23 0 34 -5 38 -27l109 -545c6 -32 9 -40 5 -64l-7 -40c-4 -25 -14 -34 -40 -34h-519c-25 0 -32 9 -28 34l7 40c4 24 11 32 29 64l301 545c11 22 23 27 46 27h59zM392 440c-14 83 -8 151 -10 162h-8c-6 -11 -25 -81 -68 -162l-176 -337h319z" />
    <glyph glyph-name="Omega" unicode="&#x2126;" horiz-adv-x="779" 
d="M67 376c36 204 200 349 396 349c199 0 312 -144 276 -358c-18 -110 -76 -187 -161 -245h88c26 0 33 -9 28 -34l-9 -54c-4 -25 -15 -34 -40 -34h-245c-16 0 -24 10 -22 26l9 45c3 15 11 23 26 29c105 47 185 153 204 256c25 138 -23 250 -175 250
c-143 0 -233 -111 -258 -249c-19 -107 18 -211 112 -258c12 -6 18 -14 15 -30l-8 -43c-3 -17 -13 -26 -30 -26h-244c-26 0 -33 9 -28 34l9 54c5 25 14 34 40 34h86c-61 64 -88 146 -69 254z" />
    <glyph glyph-name="mu" unicode="&#xb5;" horiz-adv-x="558" 
d="M509 518c23 0 29 -7 25 -30l-72 -412c-6 -32 -16 -43 -48 -56c-53 -22 -106 -35 -169 -35c-49 0 -91 13 -118 47l-39 -221c-4 -23 -14 -31 -37 -31h-54c-23 0 -29 8 -25 31l119 677c4 23 13 30 36 30h55c23 0 29 -7 25 -30l-52 -299c-12 -66 17 -98 91 -98
c39 0 68 5 95 13c8 2 11 8 13 15l64 369c4 23 14 30 37 30h54z" />
    <glyph glyph-name="pi" unicode="&#x3c0;" horiz-adv-x="639" 
d="M622 518c23 0 29 -7 25 -30l-8 -45c-3 -23 -12 -31 -35 -31h-31l-46 -262c-7 -38 -7 -54 2 -86c6 -22 1 -36 -25 -45l-48 -18c-25 -10 -34 -7 -40 16c-15 49 -14 85 -5 138l46 257h-195l-67 -381c-4 -23 -14 -31 -37 -31h-54c-23 0 -29 8 -25 31l67 381
c-24 -1 -36 -5 -66 -18c-21 -9 -33 -8 -38 13l-10 44c-6 20 -1 30 22 40c51 22 90 27 149 27h419z" />
    <glyph glyph-name="zero" unicode="0" horiz-adv-x="634" 
d="M87 491c26 148 135 234 303 234s249 -103 223 -250l-45 -257c-27 -148 -135 -233 -302 -233c-169 0 -250 101 -224 250zM489 484c14 79 -29 124 -117 124s-147 -45 -161 -124l-45 -257c-14 -79 29 -125 117 -125s147 46 161 125z" />
    <glyph glyph-name="one" unicode="1" horiz-adv-x="431" 
d="M392 710c26 0 34 -9 29 -34l-113 -642c-5 -25 -15 -34 -41 -34h-57c-25 0 -32 9 -28 34l93 524l-148 -75c-28 -15 -41 -9 -49 13l-17 45c-8 22 0 33 24 46l209 109c21 11 29 14 51 14h47z" />
    <glyph glyph-name="two" unicode="2" horiz-adv-x="597" 
d="M97 560c58 100 145 165 288 165c154 0 226 -103 205 -233c-25 -149 -112 -197 -326 -277c-45 -16 -107 -34 -116 -80l-3 -18h334c25 0 33 -9 28 -34l-9 -49c-4 -25 -14 -34 -40 -34h-430c-26 0 -33 9 -29 34l13 75c25 136 132 182 237 221c98 36 195 67 211 166
c12 70 -26 112 -97 112s-117 -30 -154 -89c-15 -25 -25 -30 -47 -22l-51 20c-22 9 -27 20 -14 43z" />
    <glyph glyph-name="three" unicode="3" horiz-adv-x="611" 
d="M583 515c-12 -66 -44 -114 -104 -144c69 -38 84 -104 70 -177c-22 -128 -115 -209 -289 -209c-151 0 -226 60 -245 168c-4 24 4 35 29 44l58 19c24 9 34 3 39 -21c11 -62 39 -93 136 -93c87 0 132 39 144 102c11 66 -18 100 -87 100h-104c-26 0 -32 8 -28 34l8 45
c5 26 14 34 40 34h85c64 0 112 36 122 94c11 63 -23 97 -95 97c-90 0 -125 -30 -158 -91c-14 -25 -24 -28 -47 -21l-51 19c-22 9 -26 20 -14 44c57 107 144 166 294 166c149 0 219 -84 197 -210z" />
    <glyph glyph-name="four" unicode="4" horiz-adv-x="631" 
d="M568 276c26 0 33 -9 28 -34l-7 -43c-5 -26 -15 -34 -40 -34h-69l-23 -131c-5 -25 -15 -34 -40 -34h-49c-26 0 -33 9 -28 34l23 131h-330c-26 0 -33 8 -28 34l6 36c4 23 6 28 19 41l405 412c19 19 29 24 52 24h55c26 0 33 -8 28 -34l-71 -402h69zM430 544l-265 -268h217z
" />
    <glyph glyph-name="five" unicode="5" horiz-adv-x="596" 
d="M567 710c25 0 33 -9 28 -34l-9 -49c-4 -25 -14 -34 -40 -34h-290l-40 -147h119c164 0 231 -106 208 -233c-22 -127 -120 -228 -292 -228c-149 0 -223 58 -242 163c-4 24 3 35 29 44l58 19c24 9 34 4 39 -21c12 -58 50 -88 136 -88c71 0 126 42 140 118
c12 71 -30 110 -100 110h-210c-29 0 -35 12 -28 40l81 291c10 37 25 49 63 49h350z" />
    <glyph glyph-name="six" unicode="6" horiz-adv-x="633" 
d="M198 423c27 7 81 19 158 19c176 0 242 -87 217 -237c-26 -148 -139 -220 -307 -220c-176 0 -250 109 -223 270l39 218c28 163 138 252 314 252c137 0 210 -57 231 -158c5 -24 -4 -34 -29 -44l-57 -19c-25 -10 -34 -4 -40 21c-13 54 -51 83 -126 83
c-94 0 -153 -49 -169 -143zM167 245c-17 -93 25 -143 119 -143c93 0 150 39 164 112c13 73 -20 111 -123 111c-84 0 -134 -16 -150 -23z" />
    <glyph glyph-name="seven" unicode="7" horiz-adv-x="538" 
d="M558 710c25 0 33 -9 28 -34l-6 -35c-4 -20 -7 -28 -19 -48l-352 -563c-16 -26 -26 -30 -68 -30h-56c-24 0 -24 13 -11 34l353 559h-321c-26 0 -33 9 -29 34l9 49c5 25 15 34 40 34h432z" />
    <glyph glyph-name="eight" unicode="8" horiz-adv-x="626" 
d="M106 531c23 127 128 194 282 194c163 0 235 -76 213 -198c-16 -92 -82 -131 -127 -155c63 -31 108 -81 90 -186c-21 -122 -111 -201 -306 -201c-196 0 -258 76 -238 193c18 101 102 152 154 176c-51 33 -84 89 -68 177zM480 523c11 62 -31 93 -111 93
c-78 0 -128 -31 -139 -93c-11 -66 36 -86 102 -104l39 -10c35 14 96 42 109 114zM435 192c14 86 -69 96 -163 119c-34 -11 -108 -40 -122 -120c-10 -61 22 -97 127 -97c106 0 147 37 158 98z" />
    <glyph glyph-name="nine" unicode="9" horiz-adv-x="635" 
d="M455 287c-27 -7 -81 -19 -158 -19c-176 0 -242 87 -217 237c26 148 139 220 307 220c176 0 250 -109 222 -270l-38 -218c-29 -163 -138 -252 -314 -252c-137 0 -210 57 -231 158c-5 24 4 34 29 44l57 19c25 10 34 4 40 -21c13 -54 51 -83 126 -83c94 0 153 49 169 143z
M486 465c17 93 -25 143 -119 143c-93 0 -150 -39 -164 -112c-13 -73 20 -111 123 -111c84 0 134 16 150 23z" />
    <glyph glyph-name="zero.denom" horiz-adv-x="375" 
d="M30 269c14 85 77 134 174 134s143 -60 128 -145l-23 -130c-15 -86 -77 -136 -173 -136c-98 0 -145 61 -129 147zM235 262c6 30 -11 48 -45 48c-35 0 -58 -18 -64 -48l-22 -129c-6 -30 11 -49 46 -49c34 0 57 19 63 49z" />
    <glyph glyph-name="one.denom" horiz-adv-x="278" 
d="M209 395c25 0 35 -8 31 -34l-58 -327c-4 -25 -15 -34 -40 -34h-29c-26 0 -33 9 -28 34l42 239l-60 -30c-23 -12 -37 -7 -45 12l-11 23c-8 23 2 35 24 47l117 61c13 7 25 9 41 9h16z" />
    <glyph glyph-name="two.denom" horiz-adv-x="359" 
d="M38 306c27 47 76 97 166 97c92 0 130 -61 119 -129c-11 -71 -48 -108 -133 -133l-58 -16c-22 -6 -38 -15 -40 -27l-2 -9h165c22 0 28 -9 24 -30l-5 -30c-4 -20 -12 -29 -35 -29h-227c-22 0 -30 7 -27 30l6 30c13 70 37 106 108 132l58 22c38 13 59 21 66 56
c4 23 -9 41 -37 41c-35 0 -52 -23 -61 -38c-15 -24 -23 -30 -47 -21l-26 10c-22 8 -28 20 -14 44z" />
    <glyph glyph-name="three.denom" horiz-adv-x="367" 
d="M33 306c34 64 85 97 170 97c87 0 130 -47 119 -116c-6 -39 -21 -61 -56 -80c37 -26 43 -65 36 -105c-13 -71 -68 -110 -168 -110c-86 0 -128 33 -139 96c-4 25 3 36 24 43l30 10c24 7 34 4 40 -21c4 -26 18 -41 60 -41c35 0 55 15 59 38c5 24 -7 39 -33 39h-38
c-25 0 -29 4 -25 30l6 25c5 29 8 32 37 32h30c23 0 40 11 45 36c4 25 -10 38 -38 38c-38 0 -61 -12 -75 -39c-16 -28 -25 -31 -53 -20l-18 7c-19 8 -25 17 -13 41z" />
    <glyph glyph-name="four.denom" horiz-adv-x="381" 
d="M302 164c25 0 28 -5 24 -26l-5 -28c-4 -23 -8 -27 -34 -27h-18l-10 -55c-4 -22 -10 -28 -32 -28h-38c-22 0 -26 6 -22 28l10 55h-170c-23 0 -27 6 -23 30l3 24c4 15 6 20 16 31l206 210c15 15 23 17 44 17h42c26 0 28 -4 24 -30l-36 -201h19zM211 274l-109 -110h89z" />
    <glyph glyph-name="five.denom" horiz-adv-x="360" 
d="M310 395c17 0 22 -5 18 -23l-6 -36c-3 -19 -8 -23 -27 -23h-153l-15 -54h53c98 0 133 -58 120 -132s-66 -135 -166 -135c-87 0 -130 36 -140 98c-4 25 3 35 22 42l29 10c27 8 33 5 39 -16c6 -30 20 -49 57 -49s61 20 66 52c6 30 -8 50 -45 50h-116c-21 0 -26 9 -21 28
l45 162c6 22 14 26 36 26h204z" />
    <glyph glyph-name="six.denom" horiz-adv-x="375" 
d="M121 238c20 6 47 13 78 13c95 0 128 -53 114 -131c-15 -85 -77 -128 -177 -128c-103 0 -145 60 -128 154l21 116c17 95 78 141 184 141c74 0 113 -36 126 -73c5 -14 -1 -22 -18 -29l-42 -19c-24 -11 -27 -4 -33 6c-8 13 -18 26 -49 26c-43 0 -65 -16 -72 -56zM103 136
c-6 -37 8 -55 48 -55c39 0 61 14 65 41c5 28 -9 40 -48 40c-25 0 -49 -7 -62 -12z" />
    <glyph glyph-name="seven.denom" horiz-adv-x="323" 
d="M298 395c21 0 25 -6 21 -25l-4 -24c-2 -15 -6 -22 -13 -33l-182 -292c-11 -19 -14 -21 -45 -21h-37c-26 0 -29 8 -12 35l169 270h-151c-21 0 -24 7 -21 26l7 39c4 22 11 25 30 25h238z" />
    <glyph glyph-name="eight.denom" horiz-adv-x="385" 
d="M40 291c12 71 76 112 169 112c94 0 144 -46 133 -110c-9 -48 -40 -70 -68 -83c36 -19 56 -48 47 -98c-13 -75 -71 -120 -184 -120s-153 49 -142 112c10 54 51 77 84 92c-30 19 -47 51 -39 95zM243 287c4 22 -6 40 -47 40c-37 0 -56 -16 -60 -39c-4 -26 17 -37 59 -47
c18 7 43 20 48 46zM218 112c5 28 -18 38 -61 49c-22 -10 -54 -22 -58 -50c-5 -23 7 -42 54 -42c44 0 60 19 65 43z" />
    <glyph glyph-name="nine.denom" horiz-adv-x="375" 
d="M217 157c-20 -5 -47 -13 -77 -13c-96 0 -128 57 -114 134c15 85 80 125 177 125c102 0 145 -57 128 -152l-21 -115c-17 -95 -79 -144 -184 -144c-74 0 -116 34 -128 71c-6 14 3 24 19 32l39 18c25 12 28 3 34 -6c7 -13 21 -26 51 -26c43 0 66 16 72 57zM235 259
c7 38 -7 55 -48 55c-39 0 -60 -14 -65 -41s9 -39 48 -39c26 0 49 7 62 12z" />
    <glyph glyph-name="zero.num" horiz-adv-x="375" 
d="M87 589c14 86 77 135 174 135s143 -60 128 -146l-23 -129c-15 -87 -77 -137 -173 -137c-98 0 -145 61 -129 148zM292 583c6 30 -11 47 -45 47c-35 0 -58 -17 -64 -47l-22 -130c-6 -30 11 -48 46 -48c34 0 57 18 63 48z" />
    <glyph glyph-name="one.num" horiz-adv-x="279" 
d="M266 716c25 0 35 -9 31 -34l-58 -328c-4 -25 -15 -34 -40 -34h-29c-26 0 -33 9 -28 34l42 239l-60 -30c-23 -12 -37 -7 -45 12l-11 24c-8 23 2 35 24 46l117 61c13 8 25 10 41 10h16z" />
    <glyph glyph-name="two.num" horiz-adv-x="360" 
d="M95 626c27 48 76 98 165 98c93 0 131 -61 120 -130c-11 -71 -49 -107 -133 -133l-58 -16c-23 -6 -38 -14 -40 -27l-2 -9h165c22 0 28 -9 24 -29l-5 -31c-4 -20 -12 -29 -35 -29h-228c-21 0 -29 7 -26 30l6 30c12 71 37 107 107 132l59 22c37 13 59 21 65 57
c5 22 -8 40 -36 40c-35 0 -52 -23 -61 -37c-16 -24 -23 -31 -47 -22l-26 10c-22 9 -28 20 -14 44z" />
    <glyph glyph-name="three.num" horiz-adv-x="367" 
d="M90 626c33 64 84 98 169 98c87 0 131 -48 120 -117c-6 -38 -22 -61 -57 -80c38 -26 43 -64 36 -105c-12 -70 -68 -110 -168 -110c-85 0 -128 34 -139 97c-4 25 3 36 24 42l30 10c24 8 34 4 40 -21c5 -26 18 -40 60 -40c36 0 55 14 59 38c5 24 -7 38 -33 38h-38
c-25 0 -29 5 -25 30l6 25c5 29 8 33 37 33h30c23 0 40 10 45 35c4 25 -10 38 -38 38c-38 0 -60 -11 -75 -38c-16 -28 -25 -32 -53 -21l-18 7c-19 9 -25 17 -12 41z" />
    <glyph glyph-name="four.num" horiz-adv-x="381" 
d="M359 486c25 0 28 -6 25 -27l-5 -28c-5 -23 -9 -27 -35 -27h-18l-10 -55c-4 -22 -10 -28 -32 -28h-38c-22 0 -26 6 -21 28l9 55h-170c-23 0 -27 6 -23 30l4 24c3 16 5 20 15 31l207 210c14 15 22 17 43 17h42c26 0 28 -4 24 -30l-36 -200h19zM268 596l-109 -110h89z" />
    <glyph glyph-name="five.num" horiz-adv-x="360" 
d="M366 716c17 0 22 -6 18 -24l-6 -36c-3 -19 -8 -23 -27 -23h-153l-15 -54h53c98 0 133 -58 120 -132s-66 -135 -166 -135c-87 0 -130 37 -140 99c-4 24 3 34 22 41l29 10c27 9 33 5 39 -15c6 -31 20 -50 57 -50s61 20 66 52c6 30 -8 51 -45 51h-116c-21 0 -26 9 -21 28
l45 161c6 22 14 27 36 27h204z" />
    <glyph glyph-name="six.num" horiz-adv-x="374" 
d="M177 559c20 5 47 12 78 12c95 0 128 -53 114 -131c-15 -84 -77 -128 -177 -128c-103 0 -145 60 -128 155l21 115c17 95 78 142 184 142c74 0 113 -37 126 -74c5 -14 -1 -21 -18 -29l-42 -19c-24 -11 -27 -3 -33 6c-8 13 -18 27 -49 27c-43 0 -65 -16 -72 -57zM159 456
c-6 -37 8 -55 48 -55c39 0 61 14 65 41c5 28 -9 40 -48 40c-25 0 -49 -7 -62 -12z" />
    <glyph glyph-name="seven.num" horiz-adv-x="324" 
d="M355 716c21 0 25 -5 21 -25l-4 -24c-2 -15 -6 -22 -13 -33l-182 -292c-11 -19 -14 -21 -45 -21h-37c-26 0 -29 8 -12 35l169 271h-151c-21 0 -24 6 -21 25l7 39c4 22 11 25 30 25h238z" />
    <glyph glyph-name="eight.num" horiz-adv-x="385" 
d="M97 611c12 72 76 113 169 113c94 0 144 -47 133 -111c-9 -47 -40 -70 -68 -83c36 -18 56 -48 47 -97c-13 -76 -71 -121 -184 -121s-153 50 -142 112c10 55 51 77 84 92c-30 19 -47 51 -39 95zM300 608c4 22 -6 39 -47 39c-37 0 -56 -15 -60 -39c-4 -26 17 -36 59 -47
c18 7 43 20 48 47zM275 433c5 27 -18 38 -61 48c-22 -9 -54 -22 -58 -50c-5 -23 7 -41 54 -41c44 0 60 18 65 43z" />
    <glyph glyph-name="nine.num" horiz-adv-x="376" 
d="M274 477c-20 -5 -47 -12 -77 -12c-96 0 -128 56 -114 134c15 84 80 125 177 125c102 0 145 -58 128 -152l-21 -116c-17 -95 -79 -144 -184 -144c-74 0 -116 34 -128 71c-6 14 3 24 19 32l39 18c25 12 28 4 34 -6c7 -13 21 -26 51 -26c43 0 66 16 72 57zM292 580
c7 37 -7 55 -48 55c-39 0 -60 -14 -65 -41c-5 -28 9 -40 48 -40c26 0 49 7 62 12z" />
    <glyph glyph-name="fraction" unicode="&#x2044;" horiz-adv-x="195" 
d="M285 682c18 24 25 28 62 28h44c23 0 28 -15 16 -33l-476 -647c-19 -26 -26 -30 -66 -30h-40c-25 0 -30 16 -17 34z" />
    <glyph glyph-name="onehalf" unicode="&#xbd;" horiz-adv-x="889" 
d="M281 716c26 0 36 -9 32 -34l-58 -328c-5 -25 -15 -34 -40 -34h-30c-25 0 -32 9 -28 34l43 239l-60 -30c-24 -12 -37 -7 -46 12l-10 24c-9 23 2 35 24 46l116 61c14 8 25 10 42 10h15zM725 710c23 0 28 -15 16 -33l-476 -647c-19 -26 -26 -30 -66 -30h-40
c-25 0 -30 16 -17 34l477 648c18 24 25 28 62 28h44zM560 306c27 47 76 97 166 97c93 0 131 -61 120 -129c-12 -71 -49 -108 -133 -133l-58 -16c-23 -6 -38 -15 -41 -27l-2 -9h165c23 0 29 -9 24 -30l-5 -30c-3 -20 -12 -29 -34 -29h-228c-22 0 -30 7 -26 30l5 30
c13 70 37 106 108 132l59 22c37 13 59 21 65 56c4 23 -8 41 -37 41c-35 0 -52 -23 -61 -38c-15 -24 -23 -30 -47 -21l-26 10c-21 8 -27 20 -14 44z" />
    <glyph glyph-name="uni2153" unicode="&#x2153;" horiz-adv-x="908" 
d="M281 716c26 0 36 -9 32 -34l-58 -328c-5 -25 -15 -34 -40 -34h-30c-25 0 -32 9 -28 34l43 239l-60 -30c-24 -12 -37 -7 -46 12l-10 24c-9 23 2 35 24 46l116 61c14 8 25 10 42 10h15zM731 710c23 0 29 -15 16 -33l-475 -647c-20 -26 -27 -30 -67 -30h-40
c-25 0 -30 16 -17 34l477 648c18 24 26 28 62 28h44zM569 306c33 64 84 97 169 97c87 0 131 -47 120 -116c-6 -39 -22 -61 -57 -80c38 -26 43 -65 36 -105c-12 -71 -68 -110 -168 -110c-86 0 -128 33 -139 96c-4 25 3 36 24 43l30 10c24 7 34 4 40 -21c5 -26 18 -41 60 -41
c36 0 55 15 59 38c5 24 -7 39 -33 39h-38c-25 0 -29 4 -25 30l6 25c5 29 8 32 37 32h30c23 0 40 11 45 36c4 25 -10 38 -38 38c-38 0 -61 -12 -75 -39c-16 -28 -25 -31 -53 -20l-18 7c-19 8 -25 17 -12 41z" />
    <glyph glyph-name="uni2154" unicode="&#x2154;" horiz-adv-x="958" 
d="M99 626c27 48 76 98 166 98c92 0 130 -61 119 -130c-11 -71 -48 -107 -133 -133l-58 -16c-22 -6 -38 -14 -40 -27l-2 -9h165c22 0 28 -9 24 -29l-5 -31c-4 -20 -12 -29 -35 -29h-227c-22 0 -30 7 -27 30l6 30c13 71 37 107 108 132l58 22c38 13 59 21 66 57
c4 22 -9 40 -37 40c-35 0 -52 -23 -61 -37c-15 -24 -23 -31 -47 -22l-26 10c-22 9 -28 20 -14 44zM796 710c23 0 29 -15 16 -33l-475 -647c-20 -26 -27 -30 -67 -30h-40c-25 0 -30 16 -17 34l477 648c18 24 26 28 62 28h44zM624 306c34 64 85 97 170 97
c87 0 130 -47 119 -116c-6 -39 -21 -61 -56 -80c37 -26 43 -65 36 -105c-13 -71 -68 -110 -168 -110c-86 0 -128 33 -139 96c-4 25 3 36 24 43l30 10c24 7 34 4 40 -21c4 -26 18 -41 60 -41c35 0 55 15 59 38c5 24 -7 39 -33 39h-38c-25 0 -29 4 -25 30l5 25
c6 29 9 32 38 32h30c23 0 40 11 45 36c4 25 -10 38 -38 38c-38 0 -61 -12 -75 -39c-16 -28 -25 -31 -53 -20l-18 7c-19 8 -25 17 -13 41z" />
    <glyph glyph-name="onequarter" unicode="&#xbc;" horiz-adv-x="856" 
d="M281 716c26 0 36 -9 32 -34l-58 -328c-5 -25 -15 -34 -40 -34h-30c-25 0 -32 9 -28 34l43 239l-60 -30c-24 -12 -37 -7 -46 12l-10 24c-9 23 2 35 24 46l116 61c14 8 25 10 42 10h15zM733 710c24 0 29 -15 17 -33l-476 -647c-20 -26 -27 -30 -67 -30h-39
c-25 0 -30 16 -17 34l476 648c18 24 26 28 63 28h43zM769 164c26 0 29 -5 25 -26l-5 -28c-4 -23 -9 -27 -34 -27h-19l-9 -55c-5 -22 -11 -28 -33 -28h-38c-22 0 -25 6 -21 28l9 55h-169c-23 0 -28 6 -23 30l3 24c4 15 5 20 16 31l206 210c15 15 23 17 43 17h42
c26 0 29 -4 24 -30l-35 -201h18zM678 274l-109 -110h90z" />
    <glyph glyph-name="threequarters" unicode="&#xbe;" horiz-adv-x="891" 
d="M95 627c34 64 85 97 170 97c87 0 130 -47 119 -116c-6 -38 -21 -61 -56 -80c37 -26 43 -64 36 -105c-13 -71 -69 -110 -168 -110c-86 0 -128 33 -139 96c-4 26 3 36 24 43l30 10c24 7 34 4 40 -21c4 -26 18 -40 60 -40c35 0 54 14 59 37c4 24 -7 39 -33 39h-38
c-26 0 -29 4 -25 30l5 25c6 29 9 32 38 32h29c24 0 41 11 46 36c4 25 -10 38 -38 38c-38 0 -61 -11 -75 -38c-16 -29 -25 -32 -53 -21l-18 7c-20 8 -26 17 -13 41zM772 710c23 0 29 -15 16 -33l-475 -647c-20 -26 -27 -30 -67 -30h-40c-24 0 -30 16 -17 34l477 648
c18 24 26 28 62 28h44zM808 164c26 0 29 -6 25 -27l-5 -28c-4 -23 -9 -27 -34 -27h-19l-9 -55c-4 -22 -11 -28 -33 -28h-38c-22 0 -25 6 -21 28l9 55h-169c-23 0 -28 6 -23 30l3 24c4 16 5 20 16 31l206 210c15 15 23 17 43 17h42c26 0 29 -4 24 -30l-35 -200h18zM717 274
l-109 -110h90z" />
    <glyph glyph-name="oneeighth" unicode="&#x215b;" horiz-adv-x="926" 
d="M281 716c26 0 36 -9 32 -34l-58 -328c-5 -25 -15 -34 -40 -34h-30c-25 0 -32 9 -28 34l43 239l-60 -30c-24 -12 -37 -7 -46 12l-10 24c-9 23 2 35 24 46l116 61c14 8 25 10 42 10h15zM737 710c23 0 29 -15 16 -33l-475 -647c-20 -26 -27 -30 -67 -30h-40
c-25 0 -30 16 -17 34l477 648c18 24 26 28 62 28h44zM575 291c12 71 76 112 168 112c95 0 145 -46 134 -110c-9 -48 -40 -70 -68 -83c36 -19 56 -48 47 -98c-13 -75 -71 -120 -184 -120s-153 49 -142 112c10 54 51 77 84 92c-30 19 -47 51 -39 95zM778 287
c4 22 -6 40 -47 40c-37 0 -56 -16 -60 -39c-4 -26 17 -37 59 -47c17 7 43 20 48 46zM753 112c5 28 -18 38 -61 49c-22 -10 -54 -22 -58 -50c-5 -23 7 -42 54 -42c44 0 60 19 65 43z" />
    <glyph glyph-name="threeeighths" unicode="&#x215c;" horiz-adv-x="947" 
d="M93 627c34 64 85 97 170 97c87 0 130 -47 119 -116c-6 -38 -21 -61 -56 -80c37 -26 43 -64 36 -105c-13 -71 -69 -110 -169 -110c-85 0 -128 33 -138 96c-4 26 2 36 24 43l29 10c24 7 35 4 40 -21c5 -26 18 -40 61 -40c35 0 54 14 58 37c5 24 -6 39 -32 39h-38
c-26 0 -29 4 -25 30l5 25c5 29 9 32 38 32h29c24 0 41 11 46 36c4 25 -11 38 -38 38c-38 0 -61 -11 -76 -38c-16 -29 -24 -32 -52 -21l-18 7c-20 8 -26 17 -13 41zM777 709c23 0 28 -15 16 -32l-476 -648c-19 -26 -26 -30 -66 -30h-40c-25 0 -30 16 -17 34l477 648
c18 25 25 28 62 28h44zM601 291c12 71 76 112 169 112c95 0 144 -46 134 -110c-9 -48 -40 -70 -68 -83c35 -19 56 -48 47 -98c-13 -75 -71 -120 -184 -120s-153 49 -142 112c9 54 51 77 84 92c-30 19 -48 51 -40 95zM804 287c4 22 -5 40 -47 40c-36 0 -56 -16 -59 -39
c-4 -26 17 -37 59 -47c17 7 43 20 47 46zM780 112c5 28 -18 38 -61 49c-22 -10 -54 -22 -59 -50c-4 -23 8 -42 54 -42c44 0 61 19 66 43z" />
    <glyph glyph-name="fiveeighths" unicode="&#x215d;" horiz-adv-x="956" 
d="M368 715c17 0 22 -5 19 -23l-6 -37c-3 -18 -9 -23 -28 -23h-153l-15 -54h53c98 0 134 -58 121 -131c-14 -75 -66 -136 -166 -136c-87 0 -130 37 -140 99c-4 24 2 34 21 41l30 10c26 9 32 5 38 -15c6 -30 21 -49 58 -49c36 0 61 19 66 52c5 29 -8 50 -45 50h-116
c-22 0 -26 9 -21 28l45 162c5 21 13 26 36 26h203zM771 710c23 0 28 -15 16 -33l-475 -647c-20 -26 -27 -30 -67 -30h-40c-25 0 -30 16 -17 34l477 648c18 24 25 28 62 28h44zM610 291c12 71 76 112 169 112c95 0 144 -46 133 -110c-8 -48 -39 -70 -68 -83
c36 -19 57 -48 48 -98c-13 -75 -71 -120 -184 -120c-114 0 -154 49 -143 112c10 54 51 77 85 92c-31 19 -48 51 -40 95zM813 287c4 22 -6 40 -47 40c-36 0 -56 -16 -59 -39c-4 -26 17 -37 58 -47c18 7 43 20 48 46zM788 112c5 28 -18 38 -61 49c-21 -10 -53 -22 -58 -50
c-4 -23 7 -42 54 -42c44 0 61 19 65 43z" />
    <glyph glyph-name="seveneighths" unicode="&#x215e;" horiz-adv-x="909" 
d="M365 716c21 0 25 -6 21 -26l-4 -24c-2 -14 -6 -22 -13 -33l-182 -292c-11 -19 -14 -21 -45 -21h-37c-26 0 -29 8 -12 35l169 271h-151c-21 0 -24 7 -21 25l7 39c4 22 11 26 30 26h238zM707 710c24 0 29 -15 17 -33l-476 -647c-20 -26 -27 -30 -67 -30h-39
c-25 0 -30 16 -17 34l476 648c18 24 26 28 63 28h43zM561 291c12 71 76 112 169 112c95 0 144 -46 134 -110c-9 -48 -40 -70 -68 -83c35 -19 56 -48 47 -98c-13 -75 -71 -120 -184 -120s-153 49 -142 112c9 54 51 77 84 92c-30 19 -48 51 -40 95zM764 287c4 22 -5 40 -47 40
c-36 0 -56 -16 -59 -39c-4 -26 17 -37 59 -47c17 7 43 20 47 46zM740 112c5 28 -18 38 -61 49c-22 -10 -54 -22 -59 -50c-4 -23 8 -42 54 -42c44 0 61 19 66 43z" />
    <glyph glyph-name="zeroinferior" unicode="&#x2080;" horiz-adv-x="375" 
d="M9 150c14 85 77 134 174 134s143 -60 128 -145l-23 -130c-15 -86 -77 -136 -173 -136c-98 0 -145 61 -129 147zM214 143c6 30 -11 48 -45 48c-35 0 -58 -18 -64 -48l-22 -129c-6 -30 11 -49 46 -49c34 0 57 19 63 49z" />
    <glyph glyph-name="oneinferior" unicode="&#x2081;" horiz-adv-x="279" 
d="M188 276c25 0 35 -8 31 -34l-58 -327c-4 -25 -15 -34 -40 -34h-29c-26 0 -33 9 -28 34l42 239l-60 -30c-23 -12 -37 -7 -45 12l-11 23c-8 23 2 35 24 47l117 61c13 7 25 9 41 9h16z" />
    <glyph glyph-name="twoinferior" unicode="&#x2082;" horiz-adv-x="360" 
d="M17 187c27 47 76 97 166 97c92 0 130 -61 119 -129c-11 -71 -48 -108 -133 -133l-58 -16c-22 -6 -38 -15 -40 -27l-2 -9h165c22 0 28 -9 24 -30l-5 -30c-4 -20 -12 -29 -35 -29h-227c-22 0 -30 7 -27 30l6 30c13 70 37 106 108 132l58 22c38 13 59 21 66 56
c4 23 -9 41 -37 41c-35 0 -52 -23 -61 -38c-15 -24 -23 -30 -47 -21l-26 10c-22 8 -28 20 -14 44z" />
    <glyph glyph-name="threeinferior" unicode="&#x2083;" horiz-adv-x="367" 
d="M12 187c34 64 85 97 170 97c87 0 130 -47 119 -116c-6 -39 -21 -61 -56 -80c37 -26 43 -65 36 -105c-13 -71 -68 -110 -168 -110c-86 0 -128 33 -139 96c-4 25 3 36 24 43l30 10c24 7 34 4 40 -21c4 -26 18 -41 60 -41c35 0 55 15 59 38c5 24 -7 39 -33 39h-38
c-25 0 -29 4 -25 30l6 25c5 29 8 32 37 32h30c23 0 40 11 45 36c4 25 -10 38 -38 38c-38 0 -61 -12 -75 -39c-16 -28 -25 -31 -53 -20l-18 7c-19 8 -25 17 -13 41z" />
    <glyph glyph-name="fourinferior" unicode="&#x2084;" horiz-adv-x="381" 
d="M281 45c25 0 28 -5 24 -26l-5 -28c-4 -23 -8 -27 -34 -27h-18l-10 -55c-4 -22 -10 -28 -32 -28h-38c-22 0 -26 6 -22 28l10 55h-170c-23 0 -27 6 -23 30l3 24c4 15 6 20 16 31l206 210c15 15 23 17 44 17h42c26 0 28 -4 24 -30l-36 -201h19zM190 155l-109 -110h89z" />
    <glyph glyph-name="fiveinferior" unicode="&#x2085;" horiz-adv-x="360" 
d="M289 276c17 0 22 -5 18 -23l-6 -36c-3 -19 -8 -23 -27 -23h-153l-15 -54h53c98 0 133 -58 120 -132s-66 -135 -166 -135c-87 0 -130 36 -140 98c-4 25 3 35 22 42l29 10c27 8 33 5 39 -16c6 -30 20 -49 57 -49s61 20 66 52c6 30 -8 50 -45 50h-116c-21 0 -26 9 -21 28
l45 162c6 22 14 26 36 26h204z" />
    <glyph glyph-name="sixinferior" unicode="&#x2086;" horiz-adv-x="375" 
d="M100 119c20 6 47 13 78 13c95 0 128 -53 114 -131c-15 -85 -77 -128 -177 -128c-103 0 -145 60 -128 154l21 116c17 95 78 141 184 141c74 0 113 -36 126 -73c5 -14 -1 -22 -18 -29l-42 -19c-24 -11 -27 -4 -33 6c-8 13 -18 26 -49 26c-43 0 -65 -16 -72 -56zM82 17
c-6 -37 8 -55 48 -55c39 0 61 14 65 41c5 28 -9 40 -48 40c-25 0 -49 -7 -62 -12z" />
    <glyph glyph-name="seveninferior" unicode="&#x2087;" horiz-adv-x="323" 
d="M277 276c21 0 25 -6 22 -25l-5 -24c-2 -15 -6 -22 -13 -33l-182 -292c-11 -19 -14 -21 -45 -21h-37c-26 0 -29 8 -12 35l169 270h-151c-20 0 -24 7 -21 26l7 39c4 22 12 25 30 25h238z" />
    <glyph glyph-name="eightinferior" unicode="&#x2088;" horiz-adv-x="385" 
d="M19 172c12 71 76 112 169 112c94 0 144 -46 133 -110c-9 -48 -40 -70 -68 -83c36 -19 56 -48 47 -98c-13 -75 -71 -120 -184 -120s-153 49 -142 112c10 54 51 77 84 92c-30 19 -47 51 -39 95zM222 168c4 22 -6 40 -47 40c-37 0 -56 -16 -60 -39c-4 -26 17 -37 59 -47
c18 7 43 20 48 46zM197 -7c5 28 -18 38 -61 49c-22 -10 -54 -22 -58 -50c-5 -23 7 -42 54 -42c44 0 60 19 65 43z" />
    <glyph glyph-name="nineinferior" unicode="&#x2089;" horiz-adv-x="375" 
d="M196 39c-20 -6 -47 -13 -77 -13c-96 0 -128 56 -114 134c15 85 80 125 177 125c102 0 145 -57 128 -152l-21 -115c-17 -95 -79 -144 -184 -144c-74 0 -116 33 -128 71c-6 14 3 24 19 32l39 18c25 12 28 3 34 -7c7 -13 21 -25 51 -25c43 0 66 16 72 56zM214 141
c7 37 -7 55 -48 55c-39 0 -60 -14 -65 -41s9 -40 48 -40c26 0 49 7 62 13z" />
    <glyph glyph-name="zerosuperior" unicode="&#x2070;" horiz-adv-x="375" 
d="M103 684c15 86 78 135 175 135s143 -60 128 -146l-23 -129c-16 -87 -77 -136 -173 -136c-98 0 -145 60 -129 147zM309 678c6 30 -11 48 -45 48c-36 0 -58 -18 -64 -48l-23 -130c-5 -30 12 -48 47 -48c34 0 57 18 63 48z" />
    <glyph glyph-name="onesuperior" unicode="&#xb9;" horiz-adv-x="279" 
d="M282 811c25 0 35 -9 31 -34l-58 -327c-4 -26 -14 -34 -40 -34h-29c-26 0 -33 8 -28 34l42 238l-59 -30c-24 -11 -38 -7 -46 12l-11 24c-8 23 2 35 24 47l117 60c14 8 25 10 41 10h16z" />
    <glyph glyph-name="twosuperior" unicode="&#xb2;" horiz-adv-x="360" 
d="M112 721c27 48 76 98 165 98c93 0 131 -61 120 -129c-11 -72 -49 -108 -133 -134l-58 -16c-23 -6 -38 -14 -40 -27l-3 -8h166c22 0 28 -10 24 -30l-5 -30c-4 -21 -12 -29 -35 -29h-228c-21 0 -29 7 -26 29l6 31c12 70 36 106 107 132l59 21c37 14 59 21 65 57
c4 23 -8 40 -37 40c-34 0 -51 -23 -61 -37c-15 -24 -22 -31 -46 -22l-26 11c-22 8 -28 19 -14 43z" />
    <glyph glyph-name="threesuperior" unicode="&#xb3;" horiz-adv-x="367" 
d="M106 721c34 65 85 98 170 98c87 0 130 -47 119 -117c-6 -38 -21 -61 -56 -79c37 -27 43 -65 36 -105c-13 -71 -68 -110 -168 -110c-86 0 -128 33 -139 96c-4 25 3 36 24 43l30 9c24 8 34 4 40 -21c4 -26 18 -40 60 -40c35 0 55 14 59 38c5 24 -7 38 -33 38h-38
c-25 0 -29 5 -25 30l6 25c5 29 8 33 37 33h30c23 0 40 10 45 35c4 26 -10 38 -38 38c-38 0 -61 -11 -75 -38c-16 -28 -25 -32 -53 -21l-18 7c-19 9 -25 17 -13 41z" />
    <glyph glyph-name="foursuperior" unicode="&#x2074;" horiz-adv-x="381" 
d="M376 580c25 0 28 -5 24 -27l-5 -28c-4 -22 -8 -27 -34 -27h-19l-9 -54c-4 -22 -10 -28 -33 -28h-37c-23 0 -26 6 -22 28l10 54h-170c-23 0 -27 6 -23 30l3 24c4 16 6 20 16 32l206 209c15 15 23 18 44 18h42c25 0 28 -5 24 -30l-36 -201h19zM285 690l-109 -110h89z" />
    <glyph glyph-name="fivesuperior" unicode="&#x2075;" horiz-adv-x="360" 
d="M382 811c18 0 23 -5 19 -23l-6 -37c-3 -18 -8 -23 -27 -23h-153l-15 -54h53c98 0 133 -58 120 -131c-14 -75 -66 -135 -166 -135c-87 0 -130 36 -140 98c-4 24 3 34 22 41l29 10c27 9 33 5 39 -15c6 -30 20 -49 57 -49s61 19 66 52c5 29 -8 50 -45 50h-116
c-22 0 -26 9 -21 28l45 162c6 21 13 26 36 26h203z" />
    <glyph glyph-name="sixsuperior" unicode="&#x2076;" horiz-adv-x="374" 
d="M194 654c20 5 47 12 78 12c95 0 128 -53 114 -131c-15 -84 -77 -127 -177 -127c-103 0 -145 59 -128 154l21 115c17 95 78 142 184 142c74 0 113 -36 126 -74c5 -13 -1 -21 -18 -29l-42 -19c-24 -11 -27 -3 -33 7c-8 13 -18 26 -49 26c-43 0 -65 -16 -72 -57zM176 551
c-6 -37 8 -54 48 -54c39 0 61 14 65 40c5 28 -9 40 -48 40c-25 0 -49 -7 -62 -12z" />
    <glyph glyph-name="sevensuperior" unicode="&#x2077;" horiz-adv-x="323" 
d="M371 811c21 0 25 -6 22 -26l-5 -24c-2 -14 -6 -22 -13 -32l-182 -293c-11 -19 -14 -20 -45 -20h-37c-26 0 -29 7 -12 34l169 271h-151c-20 0 -24 7 -21 25l7 39c4 22 12 26 30 26h238z" />
    <glyph glyph-name="eightsuperior" unicode="&#x2078;" horiz-adv-x="384" 
d="M113 706c12 72 76 113 169 113c94 0 144 -46 133 -111c-9 -47 -40 -69 -68 -83c36 -18 56 -48 47 -97c-13 -76 -71 -120 -184 -120s-153 49 -142 111c10 55 51 78 84 92c-30 20 -47 51 -39 95zM316 703c4 22 -6 39 -47 39c-37 0 -56 -15 -60 -39c-4 -26 17 -36 59 -47
c18 8 43 20 48 47zM291 528c5 27 -18 38 -61 48c-22 -9 -54 -22 -58 -49c-5 -24 7 -42 54 -42c44 0 60 18 65 43z" />
    <glyph glyph-name="ninesuperior" unicode="&#x2079;" horiz-adv-x="375" 
d="M290 573c-20 -6 -47 -13 -77 -13c-96 0 -128 56 -114 134c15 84 80 125 177 125c102 0 145 -57 128 -152l-21 -115c-17 -96 -79 -144 -184 -144c-74 0 -116 33 -128 70c-6 14 3 25 19 32l39 18c25 12 28 4 34 -6c7 -13 21 -25 51 -25c43 0 66 16 72 56zM308 675
c7 37 -7 55 -48 55c-39 0 -60 -14 -65 -41c-5 -28 9 -40 48 -40c26 0 49 7 62 12z" />
    <glyph glyph-name="asterisk" unicode="*" horiz-adv-x="360" 
d="M261 673c14 0 19 -6 13 -19l-27 -87l87 38c14 7 19 4 22 -10l5 -32c1 -13 -3 -21 -19 -22l-88 -16l48 -63c10 -10 7 -18 -6 -26l-31 -20c-13 -8 -20 -7 -24 6l-28 75l-54 -75c-9 -13 -17 -14 -28 -7l-23 21c-11 8 -10 16 2 26l72 63l-83 16c-14 2 -17 9 -10 22l16 32
c8 14 15 17 27 10l72 -38l4 87c-1 13 5 19 19 19h34z" />
    <glyph glyph-name="backslash" unicode="\" horiz-adv-x="436" 
d="M95 682c-3 19 2 28 25 28h53c23 0 31 -6 36 -28l140 -714c3 -19 -2 -28 -25 -28h-52c-24 0 -32 6 -37 28z" />
    <glyph glyph-name="periodcentered" unicode="&#xb7;" horiz-adv-x="253" 
d="M138 353c49 0 61 -16 53 -64l-2 -9c-9 -49 -27 -64 -75 -64h-8c-48 0 -61 15 -52 64l1 9c8 48 27 64 76 64h7z" />
    <glyph glyph-name="bullet" unicode="&#x2022;" horiz-adv-x="364" 
d="M156 149c-66 0 -106 50 -94 115c11 65 69 114 134 114s105 -49 94 -114c-12 -65 -69 -115 -134 -115z" />
    <glyph glyph-name="colon" unicode=":" horiz-adv-x="257" 
d="M151 422c48 0 60 -15 52 -64l-1 -9c-9 -48 -27 -64 -76 -64h-7c-49 0 -62 16 -53 64l2 9c8 49 27 64 75 64h8zM116 203c49 0 61 -15 53 -64l-2 -9c-9 -48 -27 -64 -75 -64h-8c-48 0 -61 16 -52 64l1 9c8 49 27 64 76 64h7z" />
    <glyph glyph-name="comma" unicode="," horiz-adv-x="216" 
d="M67 -91c-7 -22 -15 -31 -38 -31h-22c-19 0 -23 5 -21 23l30 186c3 28 13 36 41 36h44c32 0 41 -12 32 -36z" />
    <glyph glyph-name="ellipsis" unicode="&#x2026;" horiz-adv-x="703" 
d="M89 130c48 0 60 -16 52 -64l-1 -9c-9 -49 -27 -64 -76 -64h-7c-49 0 -62 15 -53 64l2 9c8 48 27 64 75 64h8zM327 130c49 0 61 -16 53 -64l-2 -9c-9 -49 -27 -64 -75 -64h-8c-48 0 -61 15 -52 64l2 9c7 48 26 64 75 64h7zM566 130c48 0 60 -16 52 -64l-1 -9
c-9 -49 -27 -64 -76 -64h-7c-49 0 -62 15 -53 64l2 9c8 48 27 64 75 64h8z" />
    <glyph glyph-name="exclam" unicode="!" horiz-adv-x="241" 
d="M228 740c23 0 30 -8 25 -31l-97 -475c-6 -23 -13 -30 -36 -30h-32c-23 0 -29 7 -25 30l70 475c3 23 14 31 37 31h58zM94 130c49 0 61 -16 53 -64l-2 -9c-9 -49 -27 -64 -75 -64h-8c-48 0 -61 15 -52 64l1 9c8 48 27 64 76 64h7z" />
    <glyph glyph-name="exclamdown" unicode="&#xa1;" horiz-adv-x="232" 
d="M128 388c-49 0 -61 16 -53 64l2 9c8 49 27 64 75 64h7c49 0 62 -15 53 -64l-2 -9c-7 -48 -26 -64 -75 -64h-7zM-6 -222c-23 0 -30 7 -25 30l97 475c6 23 13 31 36 31h32c23 0 29 -8 25 -31l-70 -475c-3 -23 -14 -30 -37 -30h-58z" />
    <glyph glyph-name="numbersign" unicode="#" horiz-adv-x="714" 
d="M693 502c24 0 28 -8 18 -30l-22 -48c-10 -21 -23 -28 -46 -28h-80l-58 -121h82c23 0 29 -8 18 -30l-23 -48c-10 -21 -22 -28 -46 -28h-81l-65 -138c-11 -22 -22 -31 -45 -31h-50c-23 0 -28 9 -16 31l64 138h-120l-65 -138c-11 -22 -22 -31 -46 -31h-49
c-24 0 -28 9 -17 31l65 138h-79c-24 0 -28 8 -18 30l23 48c11 22 22 28 46 28h79l57 121h-80c-23 0 -29 8 -17 30l22 48c10 22 22 28 45 28h81l63 135c11 22 22 30 45 30h50c23 0 27 -8 16 -30l-63 -135h121l63 135c11 22 22 30 45 30h50c23 0 28 -8 16 -30l-63 -135h80z
M331 396l-58 -121h121l57 121h-120z" />
    <glyph glyph-name="period" unicode="." horiz-adv-x="226" 
d="M89 130c48 0 60 -16 52 -64l-1 -9c-9 -49 -27 -64 -76 -64h-7c-49 0 -62 15 -53 64l2 9c8 48 27 64 75 64h8z" />
    <glyph glyph-name="question" unicode="?" horiz-adv-x="570" 
d="M80 578c57 98 136 161 281 161c156 0 236 -97 216 -211c-26 -150 -132 -184 -204 -224c-39 -22 -70 -44 -78 -87c-5 -25 -14 -32 -38 -32h-39c-24 0 -32 7 -27 32c16 95 70 134 125 167c61 34 122 61 136 143c11 59 -23 102 -106 102c-82 0 -129 -35 -165 -93
c-15 -25 -25 -33 -47 -22l-40 21c-21 11 -27 19 -14 43zM232 130c49 0 61 -16 53 -64l-2 -9c-8 -49 -27 -64 -75 -64h-7c-49 0 -62 15 -53 64l2 9c7 48 26 64 75 64h7z" />
    <glyph glyph-name="questiondown" unicode="&#xbf;" horiz-adv-x="565" 
d="M319 387c-48 0 -60 16 -52 64l1 9c9 49 27 64 76 64h7c49 0 61 -15 53 -64l-2 -9c-8 -48 -27 -64 -75 -64h-8zM471 -61c-56 -98 -136 -161 -280 -161c-156 0 -236 97 -216 211c26 150 132 184 203 224c39 22 71 44 78 87c6 25 15 32 39 32h39c24 0 32 -7 27 -32
c-17 -95 -71 -134 -126 -167c-60 -34 -121 -61 -136 -143c-10 -59 24 -102 107 -102c82 0 129 35 164 93c16 25 26 33 47 22l41 -21c21 -11 27 -19 13 -43z" />
    <glyph glyph-name="quotedbl" unicode="&#x22;" horiz-adv-x="348" 
d="M177 480c-6 -23 -11 -26 -34 -26h-33c-23 0 -28 3 -24 26l37 203c3 23 9 27 32 27h47c23 0 29 -4 24 -27zM315 480c-5 -23 -11 -26 -34 -26h-32c-23 0 -28 3 -24 26l36 203c3 23 10 27 33 27h46c23 0 29 -4 24 -27z" />
    <glyph glyph-name="quotesingle" unicode="'" horiz-adv-x="209" 
d="M177 480c-6 -23 -11 -26 -34 -26h-33c-23 0 -28 3 -24 26l37 203c3 23 9 27 32 27h47c23 0 29 -4 24 -27z" />
    <glyph glyph-name="semicolon" unicode=";" horiz-adv-x="254" 
d="M160 496c48 0 60 -15 53 -64l-2 -9c-9 -48 -27 -64 -76 -64h-7c-49 0 -62 15 -53 64l2 9c8 49 27 64 76 64h7zM64 -91c-12 -22 -20 -31 -43 -31h-22c-19 0 -22 5 -18 23l58 186c9 28 20 36 48 36h44c32 0 38 -12 25 -36z" />
    <glyph glyph-name="slash" unicode="/" horiz-adv-x="445" 
d="M89 -32c-12 -22 -22 -28 -45 -28h-57c-23 0 -26 9 -16 28l393 715c12 22 23 28 46 28h56c23 0 26 -9 16 -28z" />
    <glyph glyph-name="underscore" unicode="_" horiz-adv-x="496" 
d="M387 0c25 0 32 -9 28 -34l-8 -44c-4 -25 -14 -34 -40 -34h-383c-26 0 -33 9 -29 34l8 44c4 25 14 34 40 34h384z" />
    <glyph glyph-name="braceleft" unicode="{" horiz-adv-x="349" 
d="M397 856c23 0 30 -8 26 -31l-8 -43c-4 -23 -13 -31 -36 -31h-47c-22 0 -36 -14 -40 -35l-41 -237c-11 -63 -48 -103 -94 -127c48 -21 60 -63 48 -126l-41 -233c-2 -21 7 -35 28 -35h47c23 0 29 -8 26 -31l-8 -43c-4 -23 -14 -31 -37 -31h-49c-105 0 -134 41 -117 133
l39 223c9 47 1 84 -51 84h-7c-18 0 -23 9 -20 31l10 57c4 20 11 30 30 30h8c52 0 73 39 81 84l40 227c16 92 59 134 162 134h51z" />
    <glyph glyph-name="braceright" unicode="}" horiz-adv-x="349" 
d="M199 856c102 0 131 -42 114 -134l-40 -227c-8 -45 0 -84 51 -84h8c19 0 23 -10 20 -30l-10 -57c-4 -22 -12 -31 -31 -31h-7c-52 0 -73 -38 -81 -84l-39 -223c-17 -92 -59 -133 -164 -133h-50c-23 0 -29 8 -24 31l7 43c4 23 13 31 36 31h47c22 0 36 14 39 35l41 233
c12 63 39 106 93 127c-36 23 -59 63 -48 126l42 237c4 21 -6 35 -27 35h-47c-23 0 -30 8 -25 31l7 43c5 23 13 31 36 31h52z" />
    <glyph glyph-name="bracketleft" unicode="[" horiz-adv-x="301" 
d="M349 856c26 0 29 -4 25 -30l-8 -44c-4 -25 -9 -29 -35 -29h-78l-141 -795h79c25 0 29 -4 25 -30l-8 -44c-5 -26 -10 -30 -36 -30h-158c-26 0 -30 5 -25 31l166 940c4 26 10 31 36 31h158z" />
    <glyph glyph-name="bracketright" unicode="]" horiz-adv-x="302" 
d="M306 856c26 0 30 -5 26 -31l-166 -940c-5 -26 -11 -31 -37 -31h-158c-25 0 -29 4 -24 30l8 44c4 26 10 30 35 30h79l140 795h-79c-25 0 -29 4 -24 29l7 44c5 26 10 30 35 30h158z" />
    <glyph glyph-name="parenleft" unicode="(" horiz-adv-x="289" 
d="M109 610c24 132 87 203 185 245c23 10 33 3 39 -19l13 -50c6 -23 0 -30 -24 -42c-52 -24 -85 -59 -98 -132l-93 -529c-13 -73 8 -108 51 -132c20 -12 26 -21 10 -42l-29 -35c-16 -20 -25 -29 -45 -19c-84 42 -122 113 -99 245z" />
    <glyph glyph-name="parenright" unicode=")" horiz-adv-x="288" 
d="M143 836c17 20 25 29 45 19c84 -42 122 -113 99 -245l-90 -510c-24 -132 -87 -204 -185 -245c-23 -10 -33 -3 -39 19l-13 51c-5 22 2 30 25 42c53 24 85 59 98 132l94 529c12 73 -7 108 -52 132c-19 12 -26 22 -10 41z" />
    <glyph glyph-name="emdash" unicode="&#x2014;" horiz-adv-x="766" 
d="M679 323c25 0 32 -9 28 -34l-9 -45c-4 -25 -14 -34 -40 -34h-583c-26 0 -33 9 -29 34l9 45c4 25 15 34 40 34h584z" />
    <glyph glyph-name="endash" unicode="&#x2013;" horiz-adv-x="567" 
d="M478 323c26 0 32 -9 28 -34l-8 -44c-5 -26 -14 -34 -40 -34h-383c-26 0 -34 8 -29 34l8 44c4 25 15 34 40 34h384z" />
    <glyph glyph-name="hyphen" unicode="-" horiz-adv-x="412" 
d="M324 321c26 0 33 -9 28 -34l-7 -44c-5 -26 -15 -34 -40 -34h-230c-26 0 -33 8 -28 34l7 44c5 25 15 34 40 34h230z" />
    <glyph glyph-name="guillemotleft" unicode="&#xab;" horiz-adv-x="586" 
d="M502 129c11 -14 10 -24 -7 -39l-38 -33c-18 -13 -27 -14 -39 0l-153 186c-13 15 -11 24 6 39l220 188c16 13 27 15 39 0l28 -36c12 -14 9 -23 -7 -38l-158 -135zM265 129c13 -14 11 -24 -6 -39l-38 -33c-17 -14 -27 -14 -39 0l-154 186c-11 15 -10 24 7 39l219 188
c17 14 28 13 39 0l28 -36c12 -14 10 -23 -7 -38l-157 -135z" />
    <glyph glyph-name="guillemotright" unicode="&#xbb;" horiz-adv-x="589" 
d="M70 400c-11 15 -10 24 7 38l40 35c18 15 28 14 39 0l157 -191c12 -15 10 -24 -7 -39l-218 -185c-17 -14 -27 -14 -39 0l-31 36c-12 14 -9 25 7 39l157 132zM307 400c-12 15 -11 25 7 38l43 32c17 13 26 14 38 0l154 -188c12 -15 10 -24 -6 -39l-216 -183
c-16 -15 -26 -13 -39 0l-33 34c-13 14 -10 25 7 39l155 132z" />
    <glyph glyph-name="guilsinglleft" unicode="&#x2039;" horiz-adv-x="350" 
d="M266 132c12 -13 9 -23 -7 -38l-38 -37c-16 -16 -26 -14 -38 0l-154 186c-12 15 -10 25 6 39l218 186c16 15 26 12 38 0l30 -30c15 -15 11 -24 -7 -38l-157 -136z" />
    <glyph glyph-name="guilsinglright" unicode="&#x203a;" horiz-adv-x="356" 
d="M74 407c-12 15 -10 24 7 38l39 30c17 14 28 15 39 0l156 -193c12 -15 10 -24 -7 -39l-218 -186c-17 -14 -28 -13 -38 0l-35 44c-11 14 -11 25 7 39l160 132z" />
    <glyph glyph-name="quotedblbase" unicode="&#x201e;" horiz-adv-x="369" 
d="M68 -91c-8 -22 -16 -31 -39 -31h-21c-20 0 -24 5 -22 23l30 186c4 28 13 36 41 36h44c32 0 41 -12 32 -36zM220 -91c-7 -22 -15 -31 -38 -31h-22c-19 0 -23 5 -21 23l30 186c4 28 13 36 41 36h44c32 0 41 -12 32 -36z" />
    <glyph glyph-name="quotedblleft" unicode="&#x201c;" horiz-adv-x="371" 
d="M145 679c7 22 15 31 38 31h22c19 0 23 -5 21 -23l-30 -185c-4 -29 -13 -37 -41 -37h-44c-32 0 -41 12 -32 37zM297 679c8 22 16 31 39 31h21c20 0 24 -5 22 -23l-30 -185c-4 -29 -13 -37 -41 -37h-44c-32 0 -41 12 -32 37z" />
    <glyph glyph-name="quotedblright" unicode="&#x201d;" horiz-adv-x="365" 
d="M172 496c-7 -22 -15 -31 -38 -31h-22c-20 0 -23 6 -21 24l29 185c4 28 14 36 41 36h45c32 0 40 -12 31 -36zM325 496c-8 -22 -15 -31 -38 -31h-22c-20 0 -23 6 -21 24l29 185c4 28 14 36 41 36h45c32 0 40 -12 31 -36z" />
    <glyph glyph-name="quoteleft" unicode="&#x2018;" horiz-adv-x="218" 
d="M145 679c7 22 15 31 38 31h22c19 0 23 -5 21 -23l-30 -185c-4 -29 -13 -37 -41 -37h-44c-32 0 -41 12 -32 37z" />
    <glyph glyph-name="quoteright" unicode="&#x2019;" horiz-adv-x="212" 
d="M172 496c-7 -22 -15 -31 -38 -31h-22c-20 0 -23 6 -21 24l29 185c4 28 14 36 41 36h45c32 0 40 -12 31 -36z" />
    <glyph glyph-name="quotesinglbase" unicode="&#x201a;" horiz-adv-x="207" 
d="M70 -115c-6 -23 -15 -31 -38 -31h-27c-23 0 -29 8 -26 31l35 194c5 23 14 31 37 31h47c23 0 31 -8 24 -31z" />
    <glyph glyph-name="CR" horiz-adv-x="322" 
 />
    <glyph glyph-name=".null" horiz-adv-x="502" 
 />
    <glyph glyph-name="Euro" unicode="&#x20ac;" horiz-adv-x="731" 
d="M178 495c31 152 150 230 326 230c133 0 190 -48 220 -118c12 -26 8 -43 -22 -57l-35 -16c-30 -14 -42 -11 -56 14c-4 13 -30 60 -127 60c-95 0 -166 -43 -180 -120l-3 -18h252c23 0 29 -7 18 -29l-15 -32c-11 -22 -22 -29 -46 -29h-230l-10 -60h212c23 0 29 -7 18 -29
l-15 -32c-11 -22 -23 -29 -47 -29h-180l-2 -12c-14 -81 46 -116 139 -116c98 0 141 48 149 62c22 25 36 29 61 14l36 -20c24 -14 25 -33 4 -60c-54 -70 -137 -113 -271 -113c-173 0 -271 80 -244 233l2 12h-91c-24 0 -28 8 -18 30l15 32c11 22 22 28 46 28h65l11 60h-49
c-24 0 -28 8 -18 30l15 32c10 22 21 28 45 28h20z" />
    <glyph glyph-name="uni20BD" unicode="&#x20bd;" horiz-adv-x="669" 
d="M213 199h298c23 0 29 -8 25 -31l-5 -28c-4 -23 -13 -31 -37 -31h-298l-13 -75c-4 -25 -14 -34 -40 -34h-57c-25 0 -32 9 -28 34l13 75h-38c-23 0 -29 8 -25 31l5 28c4 23 13 31 36 31h38l84 477c5 25 15 34 40 34h273c141 0 210 -97 185 -237
c-25 -139 -122 -206 -262 -206h-182zM245 384h170c69 0 116 41 127 104s-21 105 -90 105h-170z" />
    <glyph glyph-name="cent" unicode="&#xa2;" horiz-adv-x="532" 
d="M447 163c22 -9 28 -20 13 -45c-38 -68 -96 -112 -181 -127l-8 -44c-4 -23 -13 -31 -37 -31h-54c-23 0 -29 8 -25 31l7 42c-112 16 -152 97 -132 209l24 138c21 114 85 174 203 192l9 51c4 23 14 31 37 31h54c24 0 29 -8 25 -31l-9 -51c85 -14 121 -66 131 -129
c4 -25 -2 -34 -27 -43l-44 -13c-25 -10 -35 -3 -40 21c-8 42 -37 67 -96 67c-73 0 -116 -35 -127 -98l-26 -148c-11 -62 19 -98 92 -98c58 0 97 26 121 69c13 24 24 28 47 20z" />
    <glyph glyph-name="currency" unicode="&#xa4;" horiz-adv-x="613" 
d="M231 532c37 20 78 32 119 32s78 -11 108 -32l56 49c19 16 30 16 44 0l32 -38c14 -16 12 -27 -7 -44l-56 -48c15 -33 21 -72 14 -114s-25 -81 -50 -114l40 -48c13 -16 12 -28 -7 -44l-45 -38c-18 -16 -29 -16 -43 0l-41 49c-36 -21 -76 -32 -117 -32c-43 0 -79 11 -109 32
l-58 -50c-18 -16 -30 -16 -43 0l-33 39c-13 16 -12 27 7 43l59 50c-16 33 -21 71 -14 113c7 41 24 80 50 112l-42 50c-13 16 -12 27 7 44l44 38c19 16 30 16 44 0zM436 337c12 69 -32 122 -101 122c-68 0 -131 -53 -144 -122c-12 -68 33 -123 101 -123c69 0 132 55 144 123z
" />
    <glyph glyph-name="dollar" unicode="$" horiz-adv-x="589" 
d="M407 774c23 0 29 -8 26 -31l-9 -49c92 -14 133 -72 154 -139c6 -24 0 -37 -29 -49l-48 -20c-25 -10 -36 -7 -44 18c-16 46 -42 75 -114 75c-85 0 -129 -24 -139 -82c-10 -59 53 -70 128 -78c109 -11 236 -42 207 -209c-21 -116 -100 -172 -235 -191l-9 -52
c-4 -23 -12 -31 -36 -31h-54c-23 0 -30 8 -26 31l9 51c-101 13 -157 70 -173 154c-5 24 5 37 31 46l52 18c27 9 38 4 44 -22c11 -54 46 -84 119 -84c90 0 143 26 155 88c10 63 -53 74 -129 81c-110 12 -236 47 -208 208c19 107 94 170 228 187l9 49c4 23 13 31 36 31h55z
" />
    <glyph glyph-name="florin" unicode="&#x192;" horiz-adv-x="438" 
d="M198 522c26 135 93 218 250 218c24 0 30 -8 29 -32l-4 -44c-2 -24 -11 -32 -35 -32c-82 0 -111 -44 -124 -113l-21 -108h103c23 0 30 -8 28 -31l-4 -46c-2 -23 -10 -31 -33 -31h-115l-58 -305c-26 -135 -94 -218 -251 -218c-23 0 -30 8 -28 32l4 44c2 24 10 32 34 32
c82 0 111 44 125 114l58 301h-98c-23 0 -30 8 -28 31l4 46c2 23 11 31 34 31h108z" />
    <glyph glyph-name="sterling" unicode="&#xa3;" horiz-adv-x="641" 
d="M165 525c19 111 112 200 264 200c134 0 195 -60 215 -154c5 -24 -1 -35 -26 -43l-53 -18c-25 -9 -31 -3 -39 21c-17 54 -48 77 -110 77c-68 0 -113 -44 -123 -98l-20 -118h218c25 0 32 -9 28 -34l-7 -40c-5 -26 -15 -35 -41 -35h-218l-12 -69c-8 -51 -34 -83 -68 -104
l-1 -6c30 5 86 13 156 13h204c25 0 33 -9 28 -34l-9 -49c-4 -25 -14 -34 -40 -34h-489c-25 0 -30 9 -26 34l9 50c3 15 10 28 24 28h7c45 12 64 49 74 101l12 70h-45c-26 0 -32 9 -27 35l6 40c5 25 15 34 41 34h44z" />
    <glyph glyph-name="yen" unicode="&#xa5;" horiz-adv-x="662" 
d="M680 710c25 0 26 -15 11 -34l-243 -305h78c22 0 29 -8 25 -30l-5 -30c-5 -22 -13 -30 -35 -30h-124l-10 -58h123c22 0 28 -8 25 -30l-6 -30c-3 -23 -13 -30 -35 -30h-123l-17 -99c-4 -25 -14 -34 -40 -34h-57c-26 0 -33 9 -28 34l17 99h-123c-22 0 -28 7 -25 30l7 30
c3 22 12 30 35 30h122l11 58h-123c-22 0 -29 8 -25 30l5 30c5 22 13 30 35 30h79l-136 305c-8 19 -2 34 23 34h58c40 0 51 -1 61 -30l108 -267l201 267c20 29 31 30 71 30h60z" />
    <glyph glyph-name="approxequal" unicode="&#x2248;" horiz-adv-x="558" 
d="M90 447c38 30 79 47 128 48c68 2 113 -37 164 -35c24 2 44 11 61 24c22 16 30 15 44 -2l29 -33c15 -17 14 -31 -9 -48c-35 -28 -75 -46 -123 -48c-75 -4 -110 34 -165 34c-26 -1 -46 -9 -64 -23c-23 -16 -30 -15 -44 2l-29 33c-15 17 -14 31 8 48zM60 263
c37 29 77 47 125 48c71 2 111 -34 164 -34c25 0 46 9 64 23c22 16 30 15 44 -2l29 -33c15 -17 15 -31 -8 -48c-36 -28 -76 -46 -122 -48c-74 -3 -111 34 -167 34c-25 0 -45 -9 -64 -23c-23 -16 -30 -15 -44 2l-29 33c-15 17 -15 31 8 48z" />
    <glyph glyph-name="asciitilde" unicode="~" horiz-adv-x="554" 
d="M73 347c39 30 81 48 131 48c78 0 102 -34 156 -34c26 0 47 10 66 23c22 16 30 16 44 -2l27 -29c14 -18 13 -31 -9 -48c-39 -30 -81 -49 -132 -49c-77 0 -101 35 -155 35c-26 0 -47 -9 -65 -23c-23 -17 -31 -16 -45 1l-26 30c-15 17 -15 31 8 48z" />
    <glyph glyph-name="divide" unicode="&#xf7;" horiz-adv-x="551" 
d="M328 579c48 0 61 -16 53 -64l-2 -9c-8 -49 -27 -64 -75 -64h-8c-48 0 -60 15 -52 64l1 9c9 48 27 64 76 64h7zM491 381c26 0 33 -8 29 -34l-8 -44c-4 -25 -15 -34 -40 -34h-404c-25 0 -32 9 -28 34l8 44c4 26 14 34 40 34h403zM263 209c49 0 61 -15 53 -64l-2 -9
c-8 -48 -26 -64 -75 -64h-7c-49 0 -62 16 -53 64l2 9c8 49 27 64 75 64h7z" />
    <glyph glyph-name="equal" unicode="=" horiz-adv-x="590" 
d="M527 482c26 0 33 -9 28 -35l-7 -44c-5 -26 -16 -34 -41 -34h-404c-26 0 -32 8 -27 34l7 44c5 26 15 35 40 35h404zM492 284c26 0 33 -8 28 -34l-7 -44c-5 -26 -15 -34 -40 -34h-404c-26 0 -33 8 -28 34l7 44c5 26 15 34 40 34h404z" />
    <glyph glyph-name="greater" unicode="&#x3e;" horiz-adv-x="485" 
d="M98 543c6 30 16 40 40 25l304 -183c19 -11 24 -19 20 -42l-6 -32c-3 -24 -12 -32 -34 -43l-369 -183c-30 -14 -36 -4 -32 26l8 50c7 36 15 43 41 55l244 113l1 6l-203 111c-24 12 -31 18 -23 56z" />
    <glyph glyph-name="greaterequal" unicode="&#x2265;" horiz-adv-x="526" 
d="M121 611c5 29 15 38 40 25l316 -157c19 -10 24 -20 20 -43l-6 -32c-4 -23 -12 -32 -35 -42l-371 -158c-30 -13 -37 -4 -31 26l7 46c7 38 15 46 43 56l240 87l1 6l-211 89c-23 10 -27 19 -21 56zM415 164c26 0 32 -9 28 -34l-8 -40c-4 -26 -14 -35 -40 -35h-338
c-26 0 -33 9 -29 34l8 41c4 26 15 34 40 34h339z" />
    <glyph glyph-name="infinity" unicode="&#x221e;" horiz-adv-x="704" 
d="M362 359c36 44 96 93 165 93c95 0 148 -75 131 -173c-19 -99 -109 -160 -194 -160c-67 0 -110 39 -129 88c-31 -38 -89 -88 -166 -88c-89 0 -146 79 -129 172c17 100 96 161 193 161c69 0 107 -44 129 -93zM290 287c-17 23 -31 63 -76 63c-42 0 -70 -28 -76 -64
c-7 -36 13 -65 52 -65c42 0 74 39 100 66zM561 286c5 34 -12 64 -54 64c-44 0 -74 -37 -99 -63c17 -32 34 -66 77 -66c39 0 69 28 76 65z" />
    <glyph glyph-name="integral" unicode="&#x222b;" horiz-adv-x="394" 
d="M182 544c24 135 89 196 245 196c24 0 29 -8 25 -32l-7 -44c-5 -24 -14 -32 -38 -32c-81 0 -99 -33 -111 -101l-98 -556c-24 -135 -89 -195 -244 -195c-24 0 -30 8 -26 32l8 44c4 24 14 32 37 32c82 0 99 33 112 101z" />
    <glyph glyph-name="less" unicode="&#x3c;" horiz-adv-x="484" 
d="M440 568c29 14 37 4 32 -26l-8 -43c-7 -37 -14 -44 -41 -56l-243 -113l-2 -5l204 -112c23 -12 29 -18 22 -55l-8 -48c-6 -30 -17 -40 -41 -26l-303 184c-20 11 -25 19 -21 42l6 32c4 23 13 32 35 43z" />
    <glyph glyph-name="lessequal" unicode="&#x2264;" horiz-adv-x="530" 
d="M511 569c-6 -37 -14 -46 -41 -55l-242 -90l-1 -5l211 -88c24 -9 28 -18 21 -55l-7 -46c-6 -30 -16 -39 -41 -26l-316 158c-20 10 -24 19 -20 42l6 32c3 23 11 33 34 43l372 157c30 13 37 4 31 -25zM405 155c26 0 32 -9 28 -34l-8 -41c-4 -26 -14 -34 -40 -34h-338
c-26 0 -33 9 -29 34l8 41c4 25 15 34 40 34h339z" />
    <glyph glyph-name="logicalnot" unicode="&#xac;" horiz-adv-x="585" 
d="M513 411c23 0 30 -8 26 -31l-37 -210c-5 -23 -13 -31 -36 -31h-54c-23 0 -30 8 -26 31l24 132h-330c-23 0 -29 8 -25 31l8 47c5 23 13 31 36 31h414z" />
    <glyph glyph-name="minus" unicode="&#x2212;" horiz-adv-x="590" 
d="M510 382c26 0 33 -8 28 -34l-7 -44c-5 -26 -15 -35 -41 -35h-403c-26 0 -33 9 -28 35l7 44c5 26 15 34 40 34h404z" />
    <glyph glyph-name="multiply" unicode="&#xd7;" horiz-adv-x="510" 
d="M432 204c13 -18 12 -30 -9 -47l-31 -27c-21 -17 -32 -17 -47 0l-100 121l-140 -120c-21 -17 -33 -17 -47 0l-22 28c-15 16 -13 28 8 46l141 120l-99 120c-13 18 -12 30 8 46l32 27c21 18 33 17 46 0l100 -120l141 121c22 17 33 17 47 0l23 -27c13 -17 12 -29 -9 -47
l-142 -120z" />
    <glyph glyph-name="notequal" unicode="&#x2260;" horiz-adv-x="581" 
d="M296 284h192c26 0 33 -8 28 -34l-7 -44c-5 -26 -15 -34 -40 -34h-249l-65 -93c-7 -10 -10 -10 -24 -10h-40c-8 0 -8 4 -3 11l63 92h-86c-26 0 -33 8 -28 34l7 44c5 26 15 34 40 34h144l58 85h-187c-26 0 -32 8 -27 34l7 44c5 26 15 35 40 35h245l63 91c7 10 10 10 22 10
h42c8 0 8 -4 4 -11l-63 -90h91c26 0 33 -9 28 -35l-7 -44c-5 -26 -16 -34 -41 -34h-148z" />
    <glyph glyph-name="partialdiff" unicode="&#x2202;" horiz-adv-x="553" 
d="M188 712c4 23 12 31 36 31c258 0 335 -112 292 -355l-37 -210c-22 -126 -113 -193 -264 -193c-152 0 -217 83 -195 209l21 114c21 126 116 197 240 197c77 0 117 -21 135 -56c15 126 -39 188 -208 188c-25 0 -30 7 -28 30zM384 302c11 63 -21 98 -96 98
s-121 -35 -131 -98l-21 -114c-11 -62 22 -98 97 -98s119 36 131 98z" />
    <glyph glyph-name="percent" unicode="%" horiz-adv-x="819" 
d="M80 578c16 91 83 148 191 148s156 -57 140 -149l-13 -72c-16 -91 -83 -146 -191 -146s-156 56 -140 147zM765 710c23 0 26 -15 11 -33l-591 -647c-24 -27 -32 -30 -72 -30h-39c-25 0 -27 16 -11 34l591 648c22 25 30 28 67 28h44zM314 572c6 40 -14 61 -59 61
s-73 -21 -79 -61l-11 -60c-7 -39 13 -61 58 -61s73 22 80 61zM437 203c16 92 84 148 192 148s156 -57 140 -149l-13 -72c-16 -90 -84 -146 -192 -146s-156 57 -140 148zM671 197c7 40 -13 61 -58 61c-46 0 -73 -21 -80 -61l-10 -59c-8 -40 12 -62 58 -62c45 0 73 22 80 62z
" />
    <glyph glyph-name="perthousand" unicode="&#x2030;" horiz-adv-x="1188" 
d="M81 577c16 92 83 149 192 149c108 0 155 -57 139 -149l-13 -71c-16 -91 -83 -147 -191 -147c-109 0 -156 56 -140 147zM766 710c23 0 26 -15 11 -33l-591 -647c-24 -27 -32 -30 -72 -30h-39c-25 0 -27 16 -11 34l591 648c22 25 30 28 67 28h44zM315 572
c6 40 -14 61 -59 61s-73 -21 -79 -61l-11 -60c-7 -39 13 -61 58 -61s73 22 80 61zM438 202c16 92 84 149 192 149s156 -57 140 -149l-13 -71c-16 -91 -84 -147 -192 -147s-156 56 -140 147zM810 202c16 92 84 149 192 149s156 -57 140 -149l-13 -71
c-16 -91 -84 -147 -192 -147s-156 56 -140 147zM672 197c7 40 -13 61 -58 61c-46 0 -73 -21 -80 -61l-10 -59c-8 -40 12 -62 58 -62c45 0 73 22 80 62zM1044 197c7 40 -13 61 -58 61c-46 0 -73 -21 -80 -61l-10 -59c-8 -40 12 -62 58 -62c45 0 73 22 80 62z" />
    <glyph glyph-name="plus" unicode="+" horiz-adv-x="541" 
d="M486 382c26 0 33 -9 28 -34l-7 -41c-5 -25 -14 -34 -40 -34h-148l-26 -148c-5 -25 -15 -34 -40 -34h-41c-25 0 -32 9 -28 34l27 148h-148c-25 0 -33 9 -28 34l7 41c5 25 15 34 40 34h148l25 147c5 25 15 34 40 34h41c25 0 33 -9 28 -34l-26 -147h148z" />
    <glyph glyph-name="plusminus" unicode="&#xb1;" horiz-adv-x="592" 
d="M524 445c25 0 32 -9 28 -34l-6 -31c-5 -26 -14 -34 -39 -34h-150l-14 -78c-5 -25 -15 -34 -41 -34h-37c-25 0 -32 9 -28 34l15 78h-149c-26 0 -34 8 -29 34l6 31c4 25 14 34 40 34h149l14 82c5 25 15 34 40 34h37c26 0 33 -9 28 -34l-14 -82h150zM481 201
c25 0 32 -9 28 -34l-6 -31c-5 -26 -14 -34 -39 -34h-404c-26 0 -34 8 -29 34l6 31c4 25 14 34 40 34h404z" />
    <glyph glyph-name="product" unicode="&#x220f;" horiz-adv-x="698" 
d="M706 710c25 0 33 -9 28 -34l-9 -49c-4 -25 -14 -34 -40 -34h-55l-116 -659c-5 -25 -14 -34 -40 -34h-57c-26 0 -33 9 -28 34l115 659h-207l-116 -659c-5 -25 -14 -34 -40 -34h-57c-26 0 -33 9 -28 34l115 659h-55c-26 0 -33 9 -29 34l9 49c5 25 15 34 40 34h570z" />
    <glyph glyph-name="radical" unicode="&#x221a;" horiz-adv-x="716" 
d="M761 751c25 0 27 -10 16 -33l-390 -796c-11 -23 -24 -28 -47 -28h-50c-23 0 -33 5 -37 26l-75 407h-123c-25 0 -32 9 -27 34l8 45c4 25 14 34 40 34h160c43 0 54 -6 57 -30l39 -243c11 -72 0 -150 1 -156h7c3 6 21 83 55 155l256 555c11 24 21 30 64 30h46z" />
    <glyph glyph-name="summation" unicode="&#x2211;" horiz-adv-x="593" 
d="M351 348c13 -29 11 -46 -14 -78l-198 -253h331c25 0 32 -9 28 -34l-9 -49c-5 -25 -14 -34 -40 -34h-449c-26 0 -33 9 -28 34l8 49c2 13 8 24 17 34l235 292l-129 283c-6 10 -8 21 -5 35l8 49c6 25 15 34 40 34h441c25 0 33 -9 27 -34l-8 -49c-4 -25 -14 -34 -40 -34h-327
z" />
    <glyph glyph-name="uni2215" unicode="&#x2215;" horiz-adv-x="623" 
d="M556 682c22 25 30 28 67 28h43c24 0 26 -16 11 -33l-590 -647c-24 -26 -32 -30 -72 -30h-39c-25 0 -27 16 -11 34z" />
    <glyph glyph-name="uni2219" unicode="&#x2219;" horiz-adv-x="245" 
d="M130 323c48 0 60 -16 53 -64l-2 -9c-9 -49 -27 -64 -76 -64h-7c-49 0 -62 15 -53 64l2 9c8 48 27 64 76 64h7z" />
    <glyph glyph-name="arrowup" unicode="&#x2191;" horiz-adv-x="745" 
d="M641 431c11 -13 11 -23 -6 -37l-36 -29c-15 -13 -25 -14 -35 0l-109 131l-82 -469c-4 -20 -12 -28 -33 -28h-42c-19 0 -25 8 -22 28l82 469l-155 -132c-17 -14 -25 -13 -36 0l-25 30c-12 14 -9 24 7 37l260 221c20 18 36 18 51 0z" />
    <glyph glyph-name="uni2197" unicode="&#x2197;" horiz-adv-x="745" 
d="M531 577c19 0 25 -7 22 -26l-8 -43c-3 -19 -11 -26 -30 -26h-187l274 -331c11 -15 10 -26 -7 -40l-35 -29c-17 -14 -27 -15 -39 0l-273 332l-33 -185c-3 -18 -9 -26 -27 -26h-45c-20 0 -25 6 -21 25l55 313c5 25 16 36 42 36h312z" />
    <glyph glyph-name="arrowright" unicode="&#x2192;" horiz-adv-x="745" 
d="M705 360c15 -17 12 -34 -9 -51l-260 -221c-17 -14 -26 -15 -37 0l-24 30c-11 14 -9 21 7 35l154 134h-470c-20 0 -26 7 -22 27l6 39c4 20 13 27 33 27h471l-110 135c-11 14 -9 21 7 35l35 31c16 14 25 13 37 0z" />
    <glyph glyph-name="uni2198" unicode="&#x2198;" horiz-adv-x="745" 
d="M192 563c17 14 26 14 39 0l273 -332l32 185c4 18 9 26 27 26h45c20 0 25 -7 22 -26l-55 -312c-4 -26 -17 -37 -42 -37h-312c-19 0 -25 7 -22 27l8 43c3 19 10 26 29 26h187l-273 331c-11 15 -10 26 7 40z" />
    <glyph glyph-name="arrowdown" unicode="&#x2193;" horiz-adv-x="745" 
d="M458 660c20 0 25 -8 22 -28l-82 -469l155 131c15 13 24 12 35 0l25 -29c12 -14 9 -24 -7 -38l-259 -220c-21 -19 -38 -19 -51 0l-183 220c-10 14 -10 24 7 38l36 29c16 13 24 14 35 0l110 -131l82 469c4 20 13 28 33 28h42z" />
    <glyph glyph-name="uni2199" unicode="&#x2199;" horiz-adv-x="745" 
d="M606 563c17 14 27 14 39 0l25 -29c12 -14 9 -25 -7 -40l-390 -331h187c19 0 23 -7 20 -26l-7 -43c-4 -20 -13 -27 -32 -27h-312c-25 0 -33 11 -29 37l55 312c4 19 11 26 30 26h46c18 0 21 -8 18 -26l-33 -185z" />
    <glyph glyph-name="arrowleft" unicode="&#x2190;" horiz-adv-x="745" 
d="M691 380c20 0 26 -7 22 -27l-6 -39c-4 -20 -13 -27 -33 -27h-470l109 -134c10 -14 8 -21 -7 -35l-35 -30c-16 -15 -25 -14 -37 0l-181 221c-16 17 -13 34 8 51l260 221c17 13 26 14 37 0l25 -31c11 -14 10 -21 -7 -35l-157 -135h472z" />
    <glyph glyph-name="uni2196" unicode="&#x2196;" horiz-adv-x="745" 
d="M624 577c26 0 34 -11 30 -36l-56 -313c-3 -19 -10 -25 -30 -25h-45c-18 0 -21 8 -18 26l32 185l-390 -332c-17 -15 -27 -14 -39 0l-24 29c-12 14 -10 25 7 40l390 331h-187c-19 0 -24 7 -20 26l8 43c3 19 11 26 30 26h312z" />
    <glyph glyph-name="lozenge" unicode="&#x25ca;" horiz-adv-x="555" 
d="M365 710c23 0 30 -8 39 -27l128 -304c5 -16 3 -33 -9 -48l-235 -304c-15 -19 -25 -27 -48 -27h-32c-23 0 -29 8 -37 27l-129 304c-7 15 -4 32 9 48l235 304c16 19 23 27 47 27h32zM323 569l-156 -214l81 -214h5l158 214l-82 214h-6z" />
    <glyph glyph-name="bar" unicode="|" horiz-adv-x="236" 
d="M240 856c23 0 30 -8 26 -31l-166 -941c-4 -23 -14 -31 -37 -31h-49c-23 0 -29 8 -25 31l166 941c4 23 13 31 36 31h49z" />
    <glyph glyph-name="brokenbar" unicode="&#xa6;" horiz-adv-x="244" 
d="M245 856c23 0 29 -8 25 -31l-65 -363c-3 -23 -12 -31 -35 -31h-50c-23 0 -29 8 -25 31l64 363c5 23 13 31 36 31h50zM143 279c23 0 29 -8 25 -31l-64 -363c-4 -23 -13 -31 -36 -31h-50c-23 0 -29 8 -25 31l64 363c5 23 13 31 36 31h50z" />
    <glyph glyph-name="at" unicode="@" horiz-adv-x="902" 
d="M49 330c42 239 211 395 475 395c266 0 378 -158 336 -395l-13 -75c-24 -138 -115 -214 -208 -214c-50 0 -61 14 -80 38c-44 -14 -107 -27 -182 -27c-121 0 -165 62 -147 168l26 144c19 105 85 168 206 168c86 0 148 -16 180 -30c24 -10 29 -20 24 -47l-50 -289
c-6 -31 17 -40 39 -40c39 0 84 31 102 127l13 79c36 204 -53 312 -261 312c-205 0 -335 -118 -369 -312l-14 -79c-34 -196 55 -304 260 -304c80 0 185 18 223 25c13 2 17 0 14 -11l-7 -44c-3 -17 -9 -22 -23 -26c-27 -6 -108 -25 -220 -25c-264 0 -380 146 -337 387z
M556 432c-21 6 -59 11 -96 11c-66 0 -98 -27 -108 -82l-24 -139c-10 -55 13 -81 79 -81c46 0 89 9 109 15l47 263c2 7 -1 10 -7 13z" />
    <glyph glyph-name="ampersand" unicode="&#x26;" horiz-adv-x="672" 
d="M147 546c17 95 98 179 226 179c105 0 173 -79 156 -177c-16 -86 -69 -137 -166 -181l-10 -5l99 -125l74 60c15 14 29 14 41 0l32 -40c10 -13 9 -22 -8 -37l-77 -64l98 -126c14 -19 10 -30 -19 -30h-72c-22 0 -31 4 -42 18l-52 65c-98 -78 -155 -98 -229 -98
c-126 0 -200 88 -177 213c17 98 86 157 166 196c-33 43 -50 95 -40 152zM420 550c6 40 -21 74 -65 74c-55 0 -91 -39 -99 -83c-6 -35 4 -59 36 -99l39 19c50 22 81 43 89 89zM248 314c-71 -32 -101 -71 -109 -118c-11 -59 24 -101 84 -101c53 0 91 28 142 70z" />
    <glyph glyph-name="paragraph" unicode="&#xb6;" horiz-adv-x="573" 
d="M546 710c23 0 30 -8 26 -31l-130 -737c-5 -23 -14 -31 -37 -31h-46c-24 0 -29 8 -25 31l114 652h-57l-115 -652c-4 -23 -13 -31 -37 -31h-46c-23 0 -29 8 -24 31l62 352c-119 3 -183 95 -162 216c22 124 118 200 242 200h235z" />
    <glyph glyph-name="copyright" unicode="&#xa9;" horiz-adv-x="798" 
d="M50 351c34 201 219 359 420 359c200 0 332 -158 297 -359c-34 -201 -218 -359 -418 -359c-201 0 -333 160 -299 359zM698 351c29 165 -75 290 -237 290c-164 0 -313 -125 -342 -290c-29 -163 75 -291 240 -291c162 0 311 128 339 291zM266 403c15 85 78 138 175 138
c79 0 120 -33 129 -90c3 -19 -2 -26 -21 -32l-29 -10c-19 -6 -25 -3 -27 16c-7 30 -23 41 -65 41c-48 0 -76 -22 -84 -63l-18 -107c-8 -41 14 -65 61 -65c39 0 63 15 78 43c11 18 20 23 35 16l25 -10c17 -7 19 -15 10 -32c-32 -57 -80 -91 -161 -91c-97 0 -142 54 -127 139z
" />
    <glyph glyph-name="registered" unicode="&#xae;" horiz-adv-x="467" 
d="M77 516c18 106 119 194 228 194c106 0 178 -88 160 -194c-19 -107 -119 -194 -227 -194c-107 0 -180 87 -161 194zM122 516c-15 -83 40 -151 124 -151c85 0 161 68 176 151c14 83 -40 150 -122 150c-87 0 -164 -67 -178 -150zM302 613c42 0 69 -24 62 -66
c-6 -30 -24 -51 -51 -59l24 -52c5 -10 2 -17 -13 -17h-18c-12 0 -14 3 -18 10l-21 54h-32l-9 -53c-1 -9 -4 -11 -14 -11h-21c-10 0 -11 3 -10 11l30 171c2 10 4 12 15 12h76zM242 524h46c15 0 26 9 28 24c3 13 -5 22 -20 22h-46z" />
    </font>
</defs>
</svg>
